/* XPM */
static char *ciel[] = {
/* columns rows colors chars-per-pixel */
"64 64 256 2 ",
"   c #04060A",
".  c #16171B",
"X  c #0C0E14",
"o  c #181C27",
"O  c #091133",
"+  c #1D222B",
"@  c #1C2537",
"#  c #26262A",
"$  c #38332D",
"%  c #282B36",
"&  c #2C3339",
"*  c #33343B",
"=  c #393437",
"-  c #322E2D",
";  c #262120",
":  c #463B37",
">  c #4E382C",
",  c #3A453B",
"<  c #3C4835",
"1  c #39693C",
"2  c #49453B",
"3  c #59463A",
"4  c #505238",
"5  c #664A35",
"6  c #754E34",
"7  c #695736",
"8  c #78543B",
"9  c #6D472E",
"0  c #71633A",
"q  c #101A4C",
"w  c #1B2858",
"e  c #182C4F",
"r  c #2B3445",
"t  c #373A45",
"y  c #232B59",
"u  c #293859",
"i  c #333B55",
"p  c #1D3868",
"a  c #1E2F64",
"s  c #283767",
"d  c #333B6A",
"f  c #2A3C71",
"g  c #353E72",
"h  c #242E63",
"j  c #413D42",
"k  c #394747",
"l  c #3C4557",
"z  c #38544D",
"x  c #26446B",
"c  c #394769",
"v  c #284776",
"b  c #384678",
"n  c #2B517E",
"m  c #38537A",
"M  c #3D546A",
"N  c #254C66",
"B  c #464749",
"V  c #564B46",
"C  c #495848",
"Z  c #575647",
"A  c #454A56",
"S  c #495656",
"D  c #595754",
"F  c #574F53",
"G  c #685746",
"H  c #775944",
"J  c #6B5650",
"K  c #46684C",
"L  c #58654A",
"P  c #576657",
"I  c #567855",
"U  c #4B714F",
"Y  c #676756",
"T  c #776A56",
"R  c #687557",
"E  c #777858",
"W  c #726C48",
"Q  c #495567",
"!  c #565B67",
"~  c #424B7A",
"^  c #485778",
"/  c #555C76",
"(  c #484968",
")  c #6E5667",
"_  c #5B6568",
"`  c #4C6579",
"'  c #58667A",
"]  c #53716E",
"[  c #67686A",
"{  c #667766",
"}  c #787865",
"|  c #636A79",
" . c #677478",
".. c #757778",
"X. c #786B6E",
"o. c #875737",
"O. c #965D36",
"+. c #86522D",
"@. c #996238",
"#. c #926D3B",
"$. c #A7693A",
"%. c #B0703B",
"&. c #C86F39",
"*. c #92524E",
"=. c #A75352",
"-. c #886547",
";. c #976846",
":. c #857759",
">. c #8F7351",
",. c #AC734D",
"<. c #8F766B",
"1. c #AC7268",
"2. c #945B6A",
"3. c #C77552",
"4. c #C16F64",
"5. c #54894E",
"6. c #6B8B5B",
"7. c #678864",
"8. c #6F8E6E",
"9. c #68A45F",
"0. c #B5893B",
"q. c #8A813C",
"w. c #CD953B",
"e. c #D1A43B",
"r. c #8C8648",
"t. c #888558",
"y. c #969054",
"u. c #AF8B50",
"i. c #B2AB58",
"p. c #878766",
"a. c #979669",
"s. c #8D9270",
"d. c #A69A66",
"f. c #B18A6B",
"g. c #8EB271",
"h. c #B2AF70",
"j. c #97A85D",
"k. c #CA8D4A",
"l. c #D2A94F",
"z. c #D29465",
"x. c #9BCB76",
"c. c #B2D16D",
"v. c #B7DB6D",
"b. c #CCD267",
"n. c #D6DF5F",
"m. c #394C82",
"M. c #2C5382",
"N. c #335483",
"B. c #3A5787",
"V. c #344B8E",
"C. c #3C6292",
"Z. c #3C618D",
"A. c #444D83",
"S. c #465688",
"D. c #525A87",
"F. c #495A94",
"G. c #525C94",
"H. c #4B6588",
"J. c #576886",
"K. c #587589",
"L. c #486697",
"P. c #546798",
"I. c #5A7696",
"U. c #4E7792",
"Y. c #646C87",
"T. c #677588",
"R. c #747B87",
"E. c #677996",
"W. c #767B94",
"Q. c #6D6896",
"!. c #556BA6",
"~. c #5977AA",
"^. c #5D79B3",
"/. c #4B6DA4",
"(. c #657CA5",
"). c #667AAF",
"_. c #6D5F88",
"`. c #8D5687",
"'. c #8A7396",
"]. c #9769AC",
"[. c #A875BA",
"{. c #A3699C",
"}. c #B377C2",
"|. c #578795",
" X c #678889",
".X c #78838B",
"XX c #6A8498",
"oX c #798596",
"OX c #709495",
"+X c #6FB292",
"@X c #5B8BB5",
"#X c #6886AB",
"$X c #788BA7",
"%X c #6788B8",
"&X c #7693B8",
"*X c #7195B2",
"=X c #73A2B4",
"-X c #74C799",
";X c #7ADAAB",
":X c #668BC3",
">X c #6993C8",
",X c #7698C9",
"<X c #6A9AD7",
"1X c #789DD3",
"2X c #718CC7",
"3X c #79A4D9",
"4X c #7AABD3",
"5X c #7AA9E5",
"6X c #6DA1E4",
"7X c #689ADA",
"8X c #848A96",
"9X c #8B9497",
"0X c #96999A",
"qX c #8E8B89",
"wX c #8995A5",
"eX c #969BA7",
"rX c #8C91AF",
"tX c #B091B9",
"yX c #9CA2AA",
"uX c #99A4B6",
"iX c #8BA7BA",
"pX c #A2A6AB",
"aX c #A5ABB6",
"sX c #B3B6BB",
"dX c #ACB2B5",
"fX c #A29890",
"gX c #8CD28B",
"hX c #93E393",
"jX c #83E5AB",
"kX c #B0D18B",
"lX c #DFE689",
"zX c #B58EC3",
"xX c #85A4C6",
"cX c #99ACC5",
"vX c #97B5CA",
"bX c #86AAD7",
"nX c #98B5D8",
"mX c #8FB1D8",
"MX c #A6B6CA",
"NX c #B5BBC6",
"BX c #A4B9D4",
"VX c #A6BBD6",
"CX c #B1BFD2",
"ZX c #82ACE3",
"AX c #96B5E3",
"SX c #8BB4E4",
"DX c #A3A5E5",
"FX c #C5ACC6",
"GX c #BDC3CA",
"HX c #AEC2D8",
"JX c #95C4EA",
"KX c #A7C9E2",
"LX c #CCD0D4",
"PX c #D2DBE4",
"IX c #E9E9E7",
"UX c #DFDFE1",
/* pixels */
"-.W F / S.J.D.D.D.D.D.D.D.^ D.~ ~ ^ c V &.6.+XmXJXJXJXJXAXJXSXqX2.,.*.c / M ^ T.' S #   X . O   . o o @ O e r ^ Y./ H.D.D.' / J.",
"5 l.7 * ! ` U.I.I.K.I.K.I.U.I.K.` J.M B &.T 7.iXAXDXDXAXAXDXbX<.:.&.>.E.W.0XyXXXt   - ! o O O [ pXs w a V.F.F.b ~.Y./ i D.J.wXS.",
"2 %.k.S 2 = M |.|.|.|.K.H.K.K.XXJ.E.W./ ,.,.6.8.rXDXDXDXDXzX<.a.-.&.F MX9XeXeX&   o NXaXo O q d / s M Q V.!.!.A.P.%X| F.I.9XsX' ",
"* 7 l.:.L - * K.W.Q.W.rX'._.W.'.Q.wXQ.Y.H k.-.9.8.'.rXtXrX..a.:.k.,.pXLXCXT.+   O y / i O Y.Q.q O i LXwXV.^.!.S.T 2XT.%X%XI.Y.J.",
": 5 e.r.|., 2 2.) ) `.( ( eXeX| W.sX .9XpXo.e.r.7.8.9.6.s.a.E k.w.R.wX9XR.# + k q O O q q eX'.w w w c ( F.!.).<.<.%XE.@X^.` I.J.",
"Z C 0.u.{ >.; [ wX' sX8X8XeX .aXaXsX' oXNXT.-.e.u.t.t.6.t.0.e.0.R.$XiXW.% O r eX% Q | q w w w h h s h F.^.!.R.>.<.:X&X<XH.H.K.' ",
"Q k 0.0.] M = D '.R.dXNX.XGXdXW.MXdXwXoX8XwXK.Y 0.e.e.e.e.i.d.vXKXKXXX@ q w w O % LXsXq y s a s g g A.F.P.<.) -.qX2XoX>X>X&X&X( ",
";.B >.w.' { 7 D LXLXLXaXoXwX'.8X| ' wXoXwXE.E.H.|.uXpXpXdXvXJXBXvXT.r ' a w w q w / ( y y y d A.m.m.F.!.) f.<.f.&X%X%X3Xm E.#X/ ",
";.B #.0.' 8.5 J oXW. .T.T.R.oXiXcXvXvXvXKXXX^ E.vXvXiXxX$XuXwXoX_ o u E.w d y y y q h ~ NX( b A.~ !.~./ X.<.f.wX%XoX>X<X@X,XxX,X",
"# l #.w.|.|.#.T $XwXuXiXK.K.K.=XvX&X|.I.U.` / ^ T.aXuXaX9XsXNX..# o p q J.NXc e ( J.s d ( d ~ ~ D.X.<.<.1.1.wX@XW.&X6X<X1X*XxXmX",
"* B H >.Y >.;. XvXiX=XxXH.M ` E.U.Q X.-.*.) A J.uXaXGXiXxXnXJ.X   8XS.q J./ w d d W.d g g g ~ / ~ G.E.(.XX@X#XoX,X6XS.~.%XeXxXbX",
"l 2 = B K.O.J E.I.` $X' T.W.M / *.=.2.1.;.=.=.2._ U.4X4XJX|.& k w n f p w q h h d h g ~ g g g F.J.Y.T.Y.oXE. .' ^ %XI.>X,XwX&XmX",
"Q , = r 8.T ! W.|  .IX8XeXwX/ =.=.1.z.z.z.f.=.*.=.' $X4X#X+ Q NXf a p f f h ( eXy d g g y y B./.!.^.P.(.%X&X^ 0XqXH.ZX5XbX3XmX&X",
", r & o yXUXY.eXUXyXHXvX*X_ =.*.1.z.i.h.d.X.1.2.) X.oX' + O x p f p h s d d LXdXi d g y _.yX~ G.~./.oX$X@X^.' LXyXS.3XZXbXSX&XT.",
"= dXMXpX XHX|.C.=X>X@X@XK.) *.=.4.<.s.s.p./ _ R T } 9X& k Y.p a p s wXc g s ( y q g g y pX0X~ !.^.^.oX$X>X>Xm l l ~.SXbXmXxX/ ! ",
"eXLXrXiX|.@X=X=X@X=XXXE.Q 2.) ) [ | J.Y T ..<.>.u.u.S O Y.$Xa ^ b a x s a d h d _.y A.d w i L.^./.~.~.@X6X>X@X#X%X5X%XH.SXbXI.( ",
"iX@X@X@X=X=XOX|. XT. .| ' _ { [ T E :.u.,.u.k.,.k.G p p p p c PXE.a f ~ '.d g ( rXg A.A.F.!.^.I.M S M ~.<Xx L.5X5XbXl H.SXmXxX$X",
"=X=X*XOX8. X .] D [ [ E :.p.:.,.,.k.,.u.u.i.l.l.7 e x x p v x Y.~ g h / uXy g d h A.A.F.F.b !.^ ! LX9XJ.<X^.<X3X3XZX,XSXnXAXVXJX",
"8.' ' F D .. .Y :.:.,.u.,.u.&.k.u.u.y.b.n.b.b.j.+ @ v s XXP.f p h d g y s d d y ~ ~ S.!.b % ^.P.! LXpXJ.>X6X3X5X5XbXAXnXAXAXAXKX",
"' D  .[ :.<.y.,.,.u.k.i.h.c.i.r.lXfX0Xb.n.n.i.r ' .Xe N NX' s a XXwXs g g g y ( i ~ !.!.!.~.:X%XY.! l /.6X1X5X4X*X,X*X,XAXnXJ.$X",
".X<.r.u.u.,.k.k.l.h.s.x.x.j.n.c.g.qXQ h.n.b.= p v m v a b a f f ~ ~ g g d h 8XUX| ~ !.!.^.^.:X:X:XI.~.<X@X6X5X,XY.Y.| (.AXnXT.cX",
"u.3.k.$.g.g.qXh.lXlX8.L j.x.v.b.6._ j.s.i.G w N f n v s f M.m.b x d h g g w 9X0Xd P.P.i L.#X$XE.%X6X6XL.u 3X3XI..XUX8X(.AXKXKXKX",
"k.h.h.7.hXhXhX-Xh.lX8.9.v.v.v.v.s.s.n.n.W p v H.m v v v M.m.n g g s ( y b d r i F.!.G.b /.I.GXGX#X7X6X>X>XZX%XA eXLX9X$XmXBXBXVX",
"9XkXkX8.hXhXhXx.gX8.g.gXv.v.c.c.b.v.v.y.N x XXLXm v m.N.m.m.b m.f / LXc g ~ A.A.G.!.^.:X^.J.dXuX/.6X6X3X3X4X,XE./ Q W.mXAXnXAXVX",
";X-X8.8.] -XhXgXhXx.hXx.g.x.c.c.g.j.8.r v x I.T.x M.N.B.s u h b f u ( d ~ A.F.D.l c !.%X:X~.H.^.<X<X<X3X3XZXmX1XiX&XnXBXnXnXBXVX",
"-X+X-X;XjXhXgXx.hXx.x.x.g.g. .] ` qXt N v v v x p p V.v D.eXc d g s h ~ A.D.F.A 0X.XM :X%XH.>X6X6XU.!.5X1X#X3XmXSXmXnXVXBXnXVXVX",
"] ;X;X;XjXhXgXgXgX X8.9..X9X| oXpX8Xu v v N.N.v J.S.b f Y.uXc b d y y g S.G.b / UXyX^ >X^.H.7X#X<X%X2XSX%XI.bXSXmXnXnXVXVXnXVXVX",
"+X;X;X;X-X+X+X+X+X.XOX|.pXLXtXtXtXl p ` XXn N.b GXE.m.m.a y f b ~ pX[ d S.~ S.Q r l ~.>X<X3X .6.~.5X5X4XbXbXmXbXbX'.{.aXAXVXVXVX",
";X;X-X-X X` oXdXdXsXFXzXzXzX[.[.( g u uXXXv N.v b m F.m.m.m.m.d ' IX8X( S.d F.P.H.^.<X<X%X .y.i.p.#X,XZXbXbXbXbXmXrX1.4.fXfXtXaX",
"=X|. X X.X8X'.FXFXtX}.[.].].{.) w M.n m n N.N.m.N.Z.B.S.A.A.~ g i A % m.!.!.^.).%X@X%XXXE W y.i.i.i.y.4XmXbXbXbXbXmXDXfX=.3.3.fX",
"' ' eXFXsXzXzX[.].].`.2.1.z.k.% v n N.n n N.B.B.N.B.S.A.f h c ~ b i ( D.F.^.G.u ^.qXp.y.y.y.W L E 6.>.{ %XmXbXbXmXcXnXHXuX{.3.k.",
"wXtX[.[.[.].].`.2.4.3.z.u.f.F a n n Z.B.XXm B.N.m s B.f Y.uXh ~ A.D.( l c !.!.F.:Xa.y.t.E P % 7 y.7 t.0 P.mXmXmXnXnXvXnXHXCXfXk.",
"[.[.].`.`.2.1.z.f.<.y. .T.S N n u v B.Z.E.m.Z.f eX^ m.g Y.'.l ~ A.( Q LX .S.%X>XOXt.u.i.E C t.W :.y.d.0  .bXmXmXnXcXMXBXcXMXMXuX",
"].`.2.1.,.1.) y.<.J.J.S.4XN v v uXI.M.B.n Z.B.v p f m.m.s h ~ ~ D.d _ sX! F.:XE.y.#.W R A Z L $ $ L E 7 6.,XvXnXnXBXBXBXcXcXuXuX",
"=.1.<.f.W._ 3Xl ^ I.H.&XI.u M.n K.Z.N.B.B.B.B.S.m.B.A.g g A.~ ~ ( S.i i m.^.>X%X7.r.} % Z 7 $ = - # 4 W d.9XxXnXnXBXBXBXCXCXBXMX",
"f.eXE._ 1X^ SXI.E.#XH.bXx x M.N.N x v B.B.c x V.S.B.b c y u ~ ~ y G.!.P.P.:X:X@XI.4 D V W r.7 2 : $ j.i.r.0XnXmXBXBXVXVXVXMXMXMX",
"Q.J.%X^ xX(.3XrX1XbXbXL.x n M.Z.^ wX^ N.B.NXY.v F.A.f W.LXQ ( G.G.!.^.P./.%X] :.W y.Z , 3 G : Z G B 0 2 _ MXBXMXBXBXvXMXMXcXcXrX",
"%XD.bXI.2X1X$XpX$X,X2Xb n p n M.K.UXH.N.N.D.c B.B.m.y T.pXA A.G.F.!.^.^.%X} r.t.! B E E 4 - 2 L 2 7 W q.9XHXMXVXBXCXVXMXcXxX'.<.",
"bXI.bX,X%XZXiXfX0X#Xm e c .Xx v N ^ N.L.B.v B.B.A.m.g u e d G.S.uX$X!.:X:Xp.u.6.Z 3 ; Y E 7 2 Z B 7 L y.y.cXVXCXCXBXHXvXeX1.k.z.",
"bX^.,X1X1XrXrXfXdXQ a x J.dXN.Z.v v L.L.C.F.b s b A.~ b S.G.F.G.rX).@X%X~.$XOXE r.E > W y.G : Z = & Y y.h.BXHXVXVXMXyX{.4.3.3.,.",
"1X1X,X,X1X1X&X0Xp.t v M.x v N.v F.L.L.x B.N.K.yXs A.b A.A.G.G.!./.~.:X^.H.<XOXi.i.r.P V y.:.: $ F ^ .XuXCXHXVXBXcXfX=.1.1.qXeXuX",
",X,X,X1X2XQ.(.).z e v M.Z.M.H.J.n L.m W.b f Q.wXg A.~ A.).uXG.).^.^.:X2X4X<Xj.u.y.r.L : :.T > # uXPXHXCXCXCXVXBXcXeXcXcXDXVXBXcX",
"2X2X,X^.A W 1.[ l @ K.N.C.Z.` XXZ.C.^ 8XB.B.s s A.~ ~ A.Q.W.!.%XP.~.>X3X<X<X,X%X' r.B = : : 5  .aX0XMXCXMXBXBXMXMXBXMXMXMXcXcXuX",
"2X2X2XS.G f.1.3 e M aXM Z.C.x v L.L.n v F.S.F.B.A.A.A.G.F.G.2X2X@X>X<X<X6X6X6X5X3X*X,XE.A G V ..b.a. .uXVXMXHXnXVXCXVXBXVXBXnXcX",
").:X2XP.J G <.F v M.x N.C.C.C.C.L.N.B.F.b B.S.b ^ d A.P.!.(.P.^.>X>X<X<X<X<X,X#X<X5X1X&X,X! 5 a.p.S c l eXrX.XoX.X| ...XqX.._ S ",
").&X^.I.t 3 H u N.n N.C.L.C.m M B.B.^ v H.A.b S.sXwXE.G.^ r o l ( A ! ! k S A : Z l V 7 7 3 :.a.Z d.7 - Y t 7 0 7 0 0 7 0 8 7 0 ",
"cXLXGXE. .= * v n n M.C.N.n G ,.J Q 9XNXpX9Xs ( 9X.X! B > V 3 3 3 V V 5 6 7 V 3 5 B : = 2 3 J t.h.Z s.R 0 0 H V 7 G W H W 0 4 5 ",
"MXLXIXLX8Xl @ M N.N.Z Y H o.1.-.9 9 3 Z B z ] ] , & C 6.Y V z 4 B B V F F A F 3 V V 3 V = = 3 2 B ; Z E 3 Z Z V 4 Z G V 7 Z 2 Z ",
"LXUXUXUXUX..@ yXH.M.o.&.+.T G 9 *.o.6 9 o.8 K I K U I U U U U 5.5.5.5.5.1 1 U U 5.5.I I U C V : j B 2 4 I 7.7.2 B G G V 3 3 Z H ",
"IXGXrXeXGXA v ^ M.M o.o.u.-.6 6 6 O.o.o.+.@.@.V M 5.I K 1 U U 5.9.5.5.9.5.9.9.5.5.5.1 1 5.C H $ 1 I I 6.7.{ 9.R , 2 , % & A A _ ",
"UXLXyXNX9Xu M.N N #.o.T > $.,.O.+.+.$.$.o.O.O.O.z z K z I 9.9.7.5.9.9.I 5.1 U K U U R U K C G 4 9.I ! 8Xz k 6.x.K S 7.U ] |.OX=X",
"uX8XY.aX_ N M.u > 6 -.V > $.O.O.,.o.O.O.$.+.o.@.+.# % < 4 K z 7.9.5.I U 7.9.7.7.7.8.8.I ] Y G S P 7.[ wX9X! C  .| R.k L C k l H.",
"rX8XwXoX% s n u - V J 3 > 9 O.;.$.;.6 O.$.$.8 6 @.6 l C C z S U I 9.7.{ L 4 P k P C S A S : G B [ P & T.HXXXJ.OXJ.I.` K.] ` K.^ ",
"rXW.$XJ.# r E.$ $ 6 H >.G > 3 9 o.$.;.o.$.@.%.+.V o.5 2 S { P C 4 C C V L E E 6.p.:.T 6.p.T V :.d.6.R ] K.K. X X` 7. X X8.OX] @ ",
"&X2X,Xr + Q r X $ > *.8 # > O.O.O.,.%.6 ;.$.$.6 8 o.+.> 5 O.O.@.o.: * % # * S ] C R 8.R 7.:.3 4 E 6.7.C C L W Z L E Z 4 R 4 < L ",
"E.ZX).# r %   # G # : H - o.&.%.$.O.-.+.;.,.,.9 8 O.O.O.8 $.$.$.O.: t * % - k ! z L L K z F G = Y { , K 6.h.6.:.s.a.h.d.a.R 7.7.",
"( %X^ % o     # : = j V 3 ,.%.$.$.+.V 3 ,.&.,.%.+.O.+.$.=.O.O.$.> X X X o % > # A R Y E Y F J V p.E L B 2 F Y S S L 6.4 C R C k ",
"` t t # = 5 $ > 6 G H : 6 &.$.$.$.,.O.$ G ,.-.H $.$.$.O.O.O.$.+.X @ # * = % * o # S P L <.Z J V D s.a.s.E P E h.s.R & - , , + & ",
"iXE.& P [ f.G : 8 o.-.; 9 $.O.-.$.+.+.+.+.J A = o.$.$.%.%.%.O.= r t t A A l i B % r t t D T s.Y E { } d.8.S < :.a.Y Y E ..} E Y ",
"rXQ % # = V : o ; -   $ ;.O.9 $.$.G ;.;.;.J B * > ;.%.@.+.> : t B t r i t t t A A t i % + Z R t.h.d.p.p.Z } C P Z K E j.p.a.C , ",
"E.& o # o . o * # %   > -.*.6 H *.G -.H H > % A * - ; X ; o o r t + * o o % % t + . r r % @ o t B l - & , I C C 7.C L E p.W & < ",
"Y.l o o * j % r t - # = F B #.H 6 o.6 o.=.X   # j - X % r # t - . o t % r : : j = o ; r # + % i l A i o & < K , [ & C z ; & z 4 ",
"( r r * % = # t B % . % * t $ *.> H V 3 ; o o - = # # B # . : j 3 # . % j V j : * : # - r % o % t t l , C L P z k L { 4 # @ z 4 ",
"t % * D t = . o % o l t + . # : $ ; . X o % r % r % r % r = + o o + . o B F F ) A ! A Q ! t % # t ! l % % o & , , , 1 < ;   o , "
};
