/* XPM */
static char *ciel[] = {
/* columns rows colors chars-per-pixel */
"70 70 256 2 ",
"   c #05060A",
".  c #0E1217",
"X  c #14151A",
"o  c #0B0E14",
"O  c #181B26",
"+  c #09102F",
"@  c #1D222A",
"#  c #1B2437",
"$  c #26262A",
"%  c #352D2A",
"&  c #272B36",
"*  c #332F34",
"=  c #2C3339",
"-  c #373639",
";  c #33352B",
":  c #251D1D",
">  c #47362A",
",  c #463A37",
"<  c #533C32",
"1  c #4A321D",
"2  c #364738",
"3  c #4A453A",
"4  c #564639",
"5  c #535139",
"6  c #674A36",
"7  c #675639",
"8  c #795439",
"9  c #6D4A32",
"0  c #74673C",
"q  c #436A3E",
"w  c #0F1A49",
"e  c #1B2847",
"r  c #1B2657",
"t  c #193255",
"y  c #2A3445",
"u  c #373A47",
"i  c #232B5A",
"p  c #293759",
"a  c #343C56",
"s  c #202C41",
"d  c #1C3867",
"f  c #1C2D63",
"g  c #252D61",
"h  c #283768",
"j  c #333B68",
"k  c #283D71",
"l  c #353E72",
"z  c #443D46",
"x  c #3B4745",
"c  c #3A4557",
"v  c #3C554B",
"b  c #284369",
"n  c #394768",
"m  c #294876",
"M  c #3B4375",
"N  c #374679",
"B  c #2B517E",
"V  c #37557B",
"C  c #3C526A",
"Z  c #325658",
"A  c #464548",
"S  c #584A46",
"D  c #495747",
"F  c #585546",
"G  c #454957",
"H  c #495656",
"J  c #585858",
"K  c #544F52",
"L  c #685846",
"P  c #785A47",
"I  c #6B5652",
"U  c #56644C",
"Y  c #4A6756",
"T  c #576555",
"R  c #4F7250",
"E  c #66664A",
"W  c #756848",
"Q  c #676956",
"!  c #697757",
"~  c #787757",
"^  c #776F51",
"/  c #434B69",
"(  c #465569",
")  c #555A66",
"_  c #444C79",
"`  c #485877",
"'  c #555C78",
"]  c #55496F",
"[  c #596668",
"{  c #4C6778",
"}  c #576579",
"|  c #526E70",
" . c #686967",
".. c #687868",
"X. c #656C78",
"o. c #67757C",
"O. c #76746C",
"+. c #695A68",
"@. c #885836",
"#. c #955D35",
"$. c #9A6238",
"%. c #8B6C3C",
"&. c #A76839",
"*. c #B36C3A",
"=. c #B3733B",
"-. c #8D554E",
";. c #976746",
":. c #977A58",
">. c #887051",
",. c #AE734C",
"<. c #897865",
"1. c #927267",
"2. c #AC716B",
"3. c #9E5460",
"4. c #CC764B",
"5. c #C86E5F",
"6. c #D66E3D",
"7. c #56924C",
"8. c #6C895B",
"9. c #678764",
"0. c #73906C",
"q. c #77A36E",
"w. c #5C9A5A",
"e. c #BD883E",
"r. c #D2973C",
"t. c #D8A23A",
"y. c #878559",
"u. c #948C50",
"i. c #B08E4E",
"p. c #B3A755",
"a. c #8A8B66",
"s. c #94926C",
"d. c #A98D6D",
"f. c #8AB172",
"g. c #ADAE6E",
"h. c #9AA854",
"j. c #CB8C4A",
"k. c #D2A749",
"l. c #CF9168",
"z. c #D1AE5D",
"x. c #B0CD6C",
"c. c #AEDC77",
"v. c #D3D359",
"b. c #D0DB66",
"n. c #3A4D82",
"m. c #2D5482",
"M. c #3B5C8B",
"N. c #385585",
"B. c #3A4F94",
"V. c #3C6291",
"C. c #434D82",
"Z. c #475788",
"A. c #525986",
"S. c #4A5C93",
"D. c #525D94",
"F. c #4B6585",
"G. c #576986",
"H. c #597888",
"J. c #476696",
"K. c #546899",
"L. c #597496",
"P. c #4C7790",
"I. c #656C86",
"U. c #687688",
"Y. c #747A87",
"T. c #677998",
"R. c #737C93",
"E. c #776785",
"W. c #566AA7",
"Q. c #5A76A9",
"!. c #5C79B2",
"~. c #4D66A7",
"^. c #657BA7",
"/. c #677BB0",
"(. c #775786",
"). c #253C81",
"_. c #8E5790",
"`. c #917093",
"'. c #AA75BB",
"]. c #9766A7",
"[. c #B36FC0",
"{. c #588592",
"}. c #6A8598",
"|. c #798598",
" X c #6F8C8F",
".X c #6EB58F",
"XX c #5A8BB4",
"oX c #6986A9",
"OX c #7789A6",
"+X c #7797A9",
"@X c #6688BA",
"#X c #738DB5",
"$X c #7695BA",
"%X c #6A96B4",
"&X c #70A7B1",
"*X c #77C595",
"=X c #7ADAAC",
"-X c #7EE8B7",
";X c #5D8BC7",
":X c #668BC3",
">X c #6A95CB",
",X c #7799C9",
"<X c #6A9BD8",
"1X c #7699D2",
"2X c #78A4DA",
"3X c #74A5D5",
"4X c #77A7E4",
"5X c #6DA1E4",
"6X c #6A9EE2",
"7X c #848A97",
"8X c #8D9195",
"9X c #8A96A7",
"0X c #949AA5",
"qX c #8598B5",
"wX c #8E92AC",
"eX c #A896B1",
"rX c #97A6B8",
"tX c #93A5B6",
"yX c #A4ABB6",
"uX c #ABAFB4",
"iX c #A2A391",
"pX c #8FD88E",
"aX c #93E697",
"sX c #90E19E",
"dX c #E6EE8F",
"fX c #9093CD",
"gX c #B48DC9",
"hX c #97AAC5",
"jX c #9BB4CB",
"kX c #87AAD8",
"lX c #8BB3DD",
"zX c #98B5D6",
"xX c #8BADC8",
"cX c #A5B5CB",
"vX c #B5BBC5",
"bX c #A4B9D4",
"nX c #ABBCD4",
"mX c #A4BAD7",
"MX c #A0ADC3",
"NX c #82ACE4",
"BX c #99B7E3",
"VX c #90B5E7",
"CX c #A8AAEA",
"ZX c #C6AACA",
"AX c #C099C5",
"SX c #B6C3D1",
"DX c #95C5E9",
"FX c #B0CEE8",
"GX c #9EC3DA",
"HX c #C4C7CA",
"JX c #C7CCD4",
"KX c #D1D5D9",
"LX c #D4DCE2",
"PX c #EAEDEC",
"IX c #E0E1E3",
"UX c #C9BDAF",
/* pixels */
">.>.G ' Z.A.A.A.A.A.A.A.A.A.` A.` _ ` ] p P 6.8.f.xXDXDXVXVXDXDXDXVXs.1.&.4.a ` ( ( F.U.` H $     . + o   X O O O # # & n G.} ' G.G.A.G.' A.",
"4 t.0 % H G.G.L.L.L.H.L.K.L.G.L.L.F.F.{ V S 6.Q 9.+XBXBXCXCXVXVXBXfX1.<.*.3.' R.|.8X|.}.u . $ G @ o w # yXX.f i k ).B.S.N Q.T.} _ a S.} 7XA.",
"3 ,.t.J - 3 x P.{.{.{.{.{.F.P.H.{.P.G.T.} ( 4.$.w.0.fXCXCXCXCXCXCX<.d.+.j.9 wXrX8XvX0XX   X yXHX# + w w OX` f y n B.W.~.Z.` :XI.` F.G.yXvX' ",
"2 4 t.:.^ ; $ c {.{.{.}.|.R.I.I.].wXR.R.`.K.8 r.Q q...OXfXgXgXwXX.d.<.,.4.) HXvXtX) $ o o j 9X} + & ' i + + I.ZXY.B.Q.W.S.+.#X}.T.:XL.T.o.H.",
", 4 r.u.| v ; S `._._._.(.(.E.`.E.] 0XrX( 8X7Xr.j.! w.0.0.9.0.s.s.<.,.r.:.SX0XSXY.# @ o w w + w w R.LXj r w / 0XA.S.W.Q.L.>.oXoXG.;X!.L.T.' ",
"4 3 i.r.P...7 ; <.G G yX[ c uXtXuX7XyX7XX.|.yXA r.k.y.8.9.9.8.q.y.i.t.u.U.Y.0X) @   [ |.O i s w r j _ i g g r r C.W.W.^.1.1.oX$X@X;Xn F.G.X.",
"J C u.t.W ~ S $ 7XrXO.yXyX7X0XY.X.yXKXuXR.rXvXwXH :.t.k.i.i.i.e.t.t.a.$XjXGXo.i w w j ) @ uXyXw r i i g g l l M D./.D.I ^ 2.$X#X#X<XK.,XT.( ",
"K u @.t.Q P.x S J 8X8XKXJX|.SXLX9X9X7XR.9XX.o.|.}.} F i.p.t.t.p.g.rXFXFXFX| & w f f w + c ZX8Xi w g g h M M C.C.~.' d.O.-.d.>X7X@X<X^.+XoX( ",
"4.K 0 t.E o.0 7 O.IXSXrX8XR.U.X.Y.7X}  XtXqXxX}.G.H.oXGXjXjXzXGXzXjXqXqX( & |.` w r r r r p g i j j h _ C.n.B.W.K.O.d.1.l.OX@X^.<X;Xp $XOXG.",
"P x 7 r.W XXv 7  .R.U.o.R.R.U.9X+XxXzXGXxXjXzX}.{ H.$XxXtX+XqXG.cX|.8XJ # e A.g h ( r g g r j j JXX.p Z.l ` ^.~.+.1.1.d.|.;X|.$X<X>X>XxXkXkX",
"@ C 8 r.^ XXa.&.Y.tX9XtXxXH.G.G.{.zXtXoXP.J.G.` ' ( } 0XvXyXyX0XHXcX} @ O t f g SX9Xe r ' I.j g a a M _ S.A.<.1.1.2.d.OX:XR.OX<X<X2X>X#X,XlX",
"- A L :.L ~ ,.W oXxX&XxXxXH.n { G.}.` I >.-.3.I G { 0XcXjXyXxX=XjX( .   Y.oXw n Y.i g h _ E.j M l M M ' ] D.K.^.T.^.XX@XR.qX5X@Xn 1X}.uX$XlX",
"c 4 - , G.Q $.J #XL.H. X} } |./ / +.3.3.3.3.;.3.3.3.+.A.$XlXlXlXF.= u e m M f g w g r g h g M M M l l C.S.G.X.I.U.|.Y.Y.G.C Q.@XJ.2XOX9X#XBX",
"Z A A = { ~ 6 I.I.( } PX|.7XuX{ -.3.3.:.z.z.l.5.3.#.3.+.}.3XlX{.X o.SXk f d k k k r I.E.i _ M l h r l ~.~.Q.Q.T.T.+X$X( X.8XC 3XNX2X2X,XlXqX",
"G s $ . J LXY.Y.uXIX9XJXyXtXU.+.3.-.l.l.g.p.d.1.2.1.-.3.U.|.( & # b m h k r f M h A.PX0Xi j _ h i 7X` S.W.!.J.T.oX;X!.' KXLX} @XkXkXNXVX,XU.",
"% O.tXU.U.KXKXC |.jX&X%X3XoX' 3.3.5.2.<.g.g.s.[ ) O.[ Q 7XY.= = b d d k t |.V h h / 7Xp i l l r 0XKX' Z.W.!.K.yX+X;X:X( ) [ n 1XNXNXkXxX} X.",
") KXvXJXR.{.&XXXXXXX%XXXT.{ +.-.-.2. .Y. .Q  .X. .W :.:.1.u X yXoXf h h h G./ h l g r i r j C.g / ) l !.Q.!.@XW.XX<X5XXX` ` @XNX,X,XzX,X} c ",
"vXrX{.XXXXXX%X&X&X+X.X}.I.{ ) O.[ ] ^ O.X.>.:.s.d.i.j.i.A d d ` b h rXG.f f g h j M g I.wXg C.l i k W.!.W.` F.P.>X<XJ.~.5X2X4X@Xe ^.VXkX}.I.",
"%XXX&X&X&X+X}. Xo.[ [  .X.! X.Q <.>.>.:.i.,.,.j.j.j.j.F d d m d k ` KXU.h M j HXE.g l / _ _ S.S.W.W.!.W./ [ X.) Q.<Xb P.4X4XlXoX{ kXVXzXlXkX",
"&X+X X{.[ | o.| J  .Q O.<.:.<.d.,.,.i.j.,.i.p.p.g.v.0 O d b d b m h j k k k r R.j g l l l _ C.D.A.s S.K.G 0XPX7XG.<X<X3X2X2XkXNXlXVXlXBXzXGX",
"X.[ } ) F O.O.O.~ <.:.i.j.=.i.i.j.j.l.<.f.b.v.v.v.h.& = b d V uXZ.b k h / l h g l l i i _ C.S.~.S.y W.@X' U.HXo.K.;X4X4X2XNX2XlXzXVXzXBXzXmX",
"X. .Q X.O.:.:.i.,.4.4.i.p.x.x.x.y.f.dXf.0Xv.v.b.p.e b yXc e X.uXb k f |.rXh l l _ i G X.a C.D.W.!.!.:X:XL.I.c n XX6X2X2X2X#X#X#XoXkXBXhX_ #X",
"|.<.,.i.,.,.j.4.k.z.g.a.f.x.h.b.b.h.iX . .v.b.v.2 d m b B d d m d N m M l l M M j / ZXJX .M W.Q.Q.@X;X:X:X@XP.;X>X;X2X2X2XG.U.X.I.,XBXhXT.cX",
"d.j.j.=.y.pXf.f.x.dXdX0.D f.f.b.b.x.) T g.8Xx.%.d d k B m k k k n.m N l l h h N i n uXX.j W.~.p Z./.T.R.oX>X5X5X` p 2X2XoXo.KXuX' kXBXmXGXFX",
"j.k.z.8.q.aXaXpXq.g.dX..q.c.c.c.c.x...g.b.x.W d m V V m m m m N n.k l M h j i l M p y G S.W.D.j K.K.0XKX9X@X6X5X@X;XNX%X/  XIXuXR.$XBXmXBXmX",
"f.iXdX0.sXaXaXaXaXpX8.f.x.c.c.x.x.x.x.x.b.h.Z d { JXU.m N m.n.B.n.n.n.k h KXX.i N M _ C.W.W.!.!.XXG.rXKX^.;X<X<X4X2X2X,XU.G.K Y.OXzXzXmXmXmX",
"*X*X0.| | 9.aXpXc.pXq.pXaXf.f.x.c.x.x.g.a.y B d T.uXb B N M.n.k d h C.h p R._ l _ C.D.G.j Z.!.@X@XQ.F.L.!.<X6X3X2X2XlXkX,X#X^.OXmXzXzXzXmXmX",
"-X*X*X*X*X*XaX*XpXaXpXc.f.f.x.f.s.} 8.8.u d m m m b m m m N.m / ' r M M g r j _ C.S.Z.G  .) N :X:X!.XX;X6X<XQ.@X4X2X1XkXlXlXVXzXmXzXmXzXmXmX",
"F.*X=X*X=XaXpXpXpXpXq..Xf.q.q.o.H.I.0X7Xe b m m.V B d h m n.h MXvXn M M g h _ _ Z.S.j E.PXeX( :X@Xn !.5X5X>XF.>X4XoXG.,XVXzXlXkXBXmXmXmXnXmX",
"{ =X-X-X=X=XpX*X*Xq.o. X0.|.uXeXE.vXeXc m m V B M.b 9XyXm n.k ` / h M i ] y i Z.D.D.M o.8X[ Z.>X>X%X<X} T.6X<X2XNX,X$XkXlXlXfXMXhXCXmXmXmXnX",
"=X-X=X=X*X X.X.X.X0X0XiX7XuXZXZXgX[.] b t 0X+Xm N.m 9X}.n.Z.m d h N l ' KXuX) _ _ p K.C # F.:X>X2X1X9.u.<.oX4X4XkXkXkXkXkXkXwX3.2.eXjXnXmXcX",
"=X&X.X.Xq.| { +XUXvXuXZXgXgX'.'.'.(.b m n tX` B N.m f m S.N.Z.Z.C._ j / JX7Xa C.Z.n.Q.!.Q.:X>X>XoX} a.h.h.s. XqXNX2XkXkXkXkXzXMX2.6.2.2.eXhX",
"+XI.U.OX XeX7XwXZXAX'.'.].].].`.1.# m m m m m.V N.N.n.J.N.M.N.C.N C.l j * $ l W.W.!.W.W.@XXXoX XW u.u.h.h.p.k.~ ,XkXkXkXxXkXxXzXMXiX3.4.4.2.",
"I.I.7XvXZXgXgX'.'.].]._.2.l.5.l.4 t B B M.B B N.N.N.B n.Z.Z.M g g l C./ l _ A.C.W.!.n j @Xs.s.u.u.a.W 5 E ^ E u.Q %XlXkXkXzXkXzXzXmXhX8X4.j.",
"wXeX'.'.'.].].].3.3.2.j.5.i.p.^ e B m M.M.F.|.m V.m._ h N n.h tX9Xi _ C.A.( u / N./.J.W.:Xs.u.~ y.E 3 & s.u.E u.S Q.lXkXkXzXzXjXzXbXbXbXiXj.",
"'.[.[._._.3.3.5.l.2.:.d. .T.) c m d d m.m.F.T.V V.h 9XOXk n.h 7Xo.j _ _ _ x uXeXC Q.@X:XR.y.p.p.y.3 8.~ >.a.u.h.E 0.kXkXzXzXzXcXcXbXcXcXvXeX",
"]._.(.3.-.l.1.<.d. X} X.` kXC d B { rXB M.m.B M.M.N h d n.n.l i g _ _ A./ G JX8Xn Q.:X Xh.0 ^ ~ K H ^ 5 $ S ~ >.5 ~ xXkXzXzXzXmXbXjXhXhXwXrX",
"3.2.3.l.Y.^ T.oX* G.K.G.XXoXb m B { +XM.M.M.J.M.N.M.n.n.N.N n.C._ _ A.C.Z.a u a S.@X:X{.u.i.8.& 3 7 ; % - & & 2 E s.9XhXkXcXCXmXbXnXnXvXcXvX",
"l.iX|.Q xX` @XkXn L.oX_ lX{ d B N.m.d b B N.M.h k m.N.N.n.M p i l _ _ s C.D.S.K.!.>X>X>XH.1 [ S L u.0 4 , $ 3 p.p.p.8XkXzXzXjXnXmXmXnXnXcXvX",
"`.}.#X/ :XoXoXkX$X,X,X$XXXb m B V.M.C } m M.V 9XG.k S.C.n.h 7XX.a _ A.C.W.Q.W.N.Q.;XG...Q u.F u 5 y.5 ; E 4 5 u.3 Q MXzXhXmXmXjXcXcXcXcXnXhX",
"T.C #X^.L.kX@XqX0X$X2XkX` m.m B V.B uXHXV m.N.vXF.m Z.N.N M JXHX/ _ D.K.~.Q.Q.!.oX~ ~ u.Q E ^ E S * - D U 3 E L 0  XmXnXnXmXnXmXcXjXhXhXqXR.",
",XK.kX,XK.NX,X0XuX`.$XQ.d k b p m.b 7XtXb S.B f k S.Z.n.M i ) A j D.A.K.Q.Q./.:XT.u.u.^ c z E E 7 < 4 5 F 3 E E u.s.nXnXnXnXnXnXbXcXxX|.1.j.",
"kXL.,XkX:X1X,X9XiX0XH.b f b uXG.B b d b V.V.Z.M.S.n.n.n.N M h l _ D.Z.ZXqX~.:X>X}.s.u.~ W 7 : E u.E < 3 J ; L ^ h.p.rXnXnXnXcXbXbX0X2.5.j.j.",
"kX@X:X2XkX,XqX8XUXiXu d m C 9XF.V.M.m.V.J.J.S.Z.b n h n._ N C.S.S.D.K.^.W./.:XP.XX,X X~ u.^ 4 E u.~ 3 3 S % u ..a.iXSXnXnXcXnXeX`.5.4.,.2.2.",
"1XfX1X,X,XfX<X#X8XP s m B m d V b B J.~.n.k N.V G.JXM M C.M C.D.D.D.Q.!.!.!.@XF.@X,Xd.v.p.y.J S u.y.4 ; A X.U.wXvXFXnXnXnXhX0X2.2.2.8X0XtXjX",
"1X,X,X1X1XK.E.^.@Xu t m B V.V.V OXV V.M.G.|.m k ' wXM C.C.C.C.rXwXD./.^.!.:X>X,X3X+Xh.u.0 y.U > W ! S : | LXLXGXnXnXnXcXcXjXrXyXcXzXzXmXcXrX",
">X1X>X:X/ S d.>.) p e H.V V.J.B 7XF.J.m.I.}.n.M.h g C.C.M C.A.^.T.^./.W.W.>X<X<X<X3X%X%X .u.2 * S - L S yX0X0XnXnXnXmXbXbXcXcXbXjXcXcXcXrXhX",
"/.:X,XW.S >.d.-.2 e C SXZ V.V.m d N.J.S.b m S.Z.S.Z.C.C.C.C.A.D.W.@X:X!.@X<X3X<X6X<X5X4X3X+X@XL.z < P K iXz.a.E.MXnXcXmXmXmXnXnXcXmXmXbXjXhX",
"@X:X1X/.+.>.W d.a B B m V V.V.V.J.J.M.N.J.J.Z.Z.Z.N _ M _ D.D.W.^./.@X>X>X3X3X5X5X4X>X>X4XNXNX,XNXI.6 L g.~ ( / ( MXhX9X+X9X|.Y.7X9X8X X} [ ",
"/././.!.G $ P S b N.B B M.V.P.V.B N.V.N h m m k n.M wXU.A.A.W.A.p O n K._ } H.( / { J A { ( J L I K 4 g.Q E y.* * O.u 5 W 7 7 5 8 7 0 7 3 7 ",
"qXHXhX/.I.H 3 x m.m M.M.V.V.m.C P +./ I.tX0XuX9Xb h uXSXyX} G 4 , 4 < A 3 4 S 4 6 4 u 4 7 - 3 3 6 4 I >.s.g.a.s.5 7 7 0 L L W W 0 W 0 %.7 0 ",
"cXJXPXZXR.) O e b m.B C V ( F P i.-.6 6  .7X[ [ ( ( D = = - E S S z z S S S L L L I I 6 4 K A , - $ I 5 a., @ a.~ 7 P 7 x 4 4 7 L F L F 3 3 ",
"vXJXPXIXHX0Xy c }.N.m.8 &.&.@.:.@.9 @.8 9 > F A Y 9.Y v R w.w.R D R R D R R H v y c x v Y D F 5 5 - 4 , * % , 5 4 S U U F L L L F 5 7 7 F 0 ",
"KXIXvXKXIXUX# { 9Xm.B @.*.#.>.6 < @.@.@.9 @.@.#.W Z Y R R q v v Y q 7.w.7.w.w.7.7.7.7.7.7.w.7.7.7.7.L S A H D D 8.q.9.q.- - S 4 F A , z S L ",
"PXHXwX7XuXO.d B n B J @.8 :.;.#.@.8 8 @.$.#.@.#.&.9 ( | 7.R D 7.7.7.7.7.7.7.7.7.w.w.7.R R q 2 2 q v L > 2 7.7.[ 8.Y Y f.f.R x v = # C V ( T.",
"JXKX0XvXZXx m m.b F #.@.1.- #.*.#.#.@.#.&.&.@.#.@.&.9 y H 2 D 7.w.8.8.w.w.q.7.7.q Y R R 9.9.w.9.R H I 4 q.8.D R.|.) 2 7.f.R v ..8.9.| 9.+X+X",
"wXY.X.9X Xp m.m.s > 9 >.< < @.$.@.,.&.@.#.@.*.8 8 #.#.> # ; D 3 3 Y 8.8.7.R R 8.w.0.8...9.0.0.Y [ ) P 3 H T 9.[ 8X9X} x o.X.|.) 2 5 2 x a { ",
"wX9X9X9XA # B m = 3 S P L < < @.#.&.&.@.8 $.&.&.@.9 #.#.3 Z Y H H Y Y T 0.0...T 5 F D x T v H D Y = I A Y ..D y |.GXoXG.+X| I.} {.{.{.| {.( ",
"0X|.}.#X= $ ` X.$ > 9 I :.9 < < 6 9 #.,.;.@.&.$.*.@.4 8 8 4 , H | Y Y D H D D F ~ 8.8.y.a.y.Q ~ y.~ I S g.a.~ ..| {.{.9. XH.o.9.}.{.0. X( @ ",
"#X:X,X` X c { @ X ; > $.P * $ @.$.@.$.=.*.9 ;.&.&.#.9 8 @.9 1 9 #.%.@.0 4 * & & $ G [ T D ! 0.! 8.a.L < 8.Q 8.9.2 5 D E D 2 Q | % U Y D 2 U ",
"^.2XfXs @ a .   % L $ 4 -.% 4 =.*.*.$.$.@.8 ,.=.,.4 9 $.#.#.@.#.*.*.*.$.< u z = * $ ( | x ! R T D G P , A 9.! D R a.g.a.8.d.s.g.g.g.a.! 8.9.",
"' kX^.& = O o   * 3 : x S , &.*.&.&.&.4 4 6 ,.,.=.*.@.@.#.&.#.#.#.#.&.9 O . . O & , % u v U E U J K >., T ~ T ; x 3 Q T H T K h.~ D E 8.T u ",
"u u c & X % X X > L S S S < *.*.&.&.&.&.@.- ;.4.,.$.;.&.#.#.#.#.#.&.#.o . O @ $ $ & ; X x ..Q ^ <.S I S E a.d.s.~ Q J ~ s.~ T v 2 & U 2 $ = ",
"qXL.= A K :.:.S 6 @.@.;.* 9 *.*.>.&.&.#.9 4 < >.J A 8 $.#.&.*.&.&.*.> # u u u z u u u # @ u Y x O.J ~  .x [ ..a.s...H 5 g.g.s.J F 5 [ x 3 F ",
"OXOX= A K ~ >., $ 6 9 > : 6 #.@.;.$.$.9 $.*.&.I A * < ;.*.&.=.=.#.6 y z u u G G c z G G z u y = & Q s.<.s.g.a.a.g.O. .2 D ~ q U 8.d.s.s.0.T ",
"OX/ @ & X & O * @ X @   1 ,.$.9 8 =.-.I >.P L I A u & 6 -.8 1 > O = u z u s & & & y u a u y a u & & - L y.y.~ Q U 2 ! U T U ! T g.~ s.E = - ",
"T.u o & X * O & & * * . > -.L $.L W 7 8 @.8 P 1 O z A * X   X = O O & & . - & O - & * y O o $ & @ & # # a a y @ @ v U D x ..T $ U Q y.3 2 3 ",
"U.G & O * u u = u u & $ & G A 6 ;.6 8 @.8 -.-.o   . u - : O A @ * A , $ O y * & z z < S - $ $ u * O # = u G G u @ ; 2 U D Y x A T $ . u 2 D ",
"G y y u = & * $ u u $ O & & , * < -.> P < > X O O * * * O u - @ X - , z * o & - S S z * * , * $ - u & @ u u G c 2 U Y Y D x D ..5 q @ & D D ",
"z $ & J A u *   $ # & u z & . @ = , @ :   + @ * y & y y & u $ z * $ O O @ X $ @ +.*  .+.n +.c ) ) a & $ $ G ) y = @ X = 2 - 2 A q 2 o   @ = "
};
