/* XPM */
static char *god_adam[] = {
/* columns rows colors chars-per-pixel */
"64 64 245 2 ",
"   c #2D0F11",
".  c #2C1315",
"X  c #341212",
"o  c #391719",
"O  c #250B0A",
"+  c #1B1D28",
"@  c #27282E",
"#  c #392A28",
"$  c #2A2E39",
"%  c #2D313D",
"&  c #39383A",
"*  c #34312B",
"=  c #1D202B",
"-  c #421A1B",
";  c #511F1E",
":  c #471E21",
">  c #492727",
",  c #562624",
"<  c #473C33",
"1  c #593636",
"2  c #50322D",
"3  c #643A37",
"4  c #52251D",
"5  c #544738",
"6  c #484037",
"7  c #684A36",
"8  c #745639",
"9  c #373B47",
"0  c #2D3345",
"q  c #633A40",
"w  c #413E40",
"e  c #3B424A",
"r  c #3B4453",
"t  c #464748",
"y  c #554C42",
"u  c #545249",
"i  c #444A54",
"p  c #4B4C53",
"a  c #444B5B",
"s  c #4B4E5B",
"d  c #424757",
"f  c #4C515C",
"g  c #47525E",
"h  c #54545D",
"j  c #5B5B5D",
"k  c #565455",
"l  c #4E504F",
"z  c #6B4546",
"x  c #685A48",
"c  c #765845",
"v  c #635E58",
"b  c #795457",
"n  c #774C4F",
"m  c #6F624D",
"M  c #74654C",
"N  c #696458",
"B  c #776A57",
"V  c #77725C",
"C  c #4D5563",
"Z  c #525561",
"A  c #555A63",
"S  c #5B5C63",
"D  c #565A68",
"F  c #444F61",
"G  c #605F66",
"H  c #5C616A",
"J  c #586576",
"K  c #646264",
"L  c #64646B",
"P  c #6A6A6B",
"I  c #676A66",
"U  c #756D69",
"Y  c #6B736B",
"T  c #73736D",
"R  c #7B7664",
"E  c #686B74",
"W  c #6D7576",
"Q  c #737373",
"!  c #797A76",
"~  c #706F70",
"^  c #5B635E",
"/  c #855C3D",
"(  c #83595C",
")  c #88684A",
"_  c #926845",
"`  c #866956",
"'  c #82735B",
"]  c #8B755C",
"[  c #897759",
"{  c #957A5B",
"}  c #91685E",
"|  c #A2714E",
" . c #8C6568",
".. c #877965",
"X. c #967C67",
"o. c #9A7575",
"O. c #8F7072",
"+. c #A07C75",
"@. c #885D65",
"#. c #76847B",
"$. c #6B8573",
"%. c #8A826B",
"&. c #988569",
"*. c #86857A",
"=. c #988876",
"-. c #93917B",
";. c #A68968",
":. c #BA946B",
">. c #A58C75",
",. c #A99479",
"<. c #B59977",
"1. c #B18F6B",
"2. c #BCA37D",
"3. c #AC8455",
"4. c #C59A6F",
"5. c #C9A37B",
"6. c #737988",
"7. c #5C7AA5",
"8. c #647DA3",
"9. c #A37D84",
"0. c #798C82",
"q. c #7C908D",
"w. c #6985AD",
"e. c #7890B2",
"r. c #998685",
"t. c #979887",
"y. c #848A98",
"u. c #8C9699",
"i. c #8B918D",
"p. c #A9888B",
"a. c #A79687",
"s. c #B69B84",
"d. c #AC8A91",
"f. c #A99597",
"g. c #B49799",
"h. c #B18B92",
"j. c #98A794",
"k. c #8BA48F",
"l. c #BAA48A",
"z. c #A7A795",
"x. c #BAAA9A",
"c. c #A6B398",
"v. c #B8B89D",
"b. c #A5A68F",
"n. c #969CA9",
"m. c #879BB8",
"M. c #8B95A7",
"N. c #BA9DA3",
"B. c #A99DA4",
"V. c #9AA4B8",
"C. c #8DA2B6",
"Z. c #A4A4A7",
"A. c #B9A8AA",
"S. c #BBB3A4",
"D. c #A3AABB",
"F. c #ABAEBB",
"G. c #A4A8B5",
"H. c #AEB1BC",
"J. c #B5B4BB",
"K. c #B1AFB0",
"L. c #C3AB8B",
"P. c #C6A887",
"I. c #C4AD94",
"U. c #CAB49B",
"Y. c #CAB498",
"T. c #D4B898",
"R. c #D4B08A",
"E. c #C4AAAA",
"W. c #C8B8A7",
"Q. c #D4BEA7",
"!. c #C8B9B6",
"~. c #C7AFB5",
"^. c #D1AF92",
"/. c #D5C2AB",
"(. c #DBC4A8",
"). c #D5C5B4",
"_. c #DCCAB5",
"`. c #DDCCBA",
"'. c #D8C7B6",
"]. c #D0C6B7",
"[. c #E2C6AD",
"{. c #E2CBB4",
"}. c #E2CEBB",
"|. c #E3C7B0",
" X c #E4D2BD",
".X c #EAD4BC",
"XX c #94A7C3",
"oX c #A6AEC2",
"OX c #ABB2C4",
"+X c #A9B4C7",
"@X c #B7BBC8",
"#X c #B4BFD2",
"$X c #879FC2",
"%X c #B8C1D0",
"&X c #C7C7CB",
"*X c #D7CBC6",
"=X c #D4D2CD",
"-X c #DBD3CD",
";X c #DED2C6",
":X c #D6D5D4",
">X c #D9D6D4",
",X c #DCDAD5",
"<X c #D5D5DB",
"1X c #DDDCDA",
"2X c #D7D9DA",
"3X c #C9CCD5",
"4X c #E4D3C3",
"5X c #E9D6C4",
"6X c #EAD8C6",
"7X c #EBDACB",
"8X c #E6D7CA",
"9X c #E1DCD6",
"0X c #EBDDD3",
"qX c #E1DEDB",
"wX c #E4D7D2",
"eX c #EDD8C8",
"rX c #DFE0DD",
"tX c #E3E1DD",
"yX c #EAE3DE",
"uX c #EDE1D5",
"iX c #F3E2D4",
"pX c #F2E6DB",
"aX c #F6E9DC",
"sX c #DCDEE4",
"dX c #DADDE5",
"fX c #E1DFE0",
"gX c #DEE1E4",
"hX c #DFE1E9",
"jX c #E5E4E2",
"kX c #E9E6E3",
"lX c #ECE9E6",
"zX c #E3E5EA",
"xX c #ECEBEA",
"cX c #E7E8E9",
"vX c #F1EBE6",
"bX c #F2EEEA",
"nX c #FAEEE4",
"mX c #F5F1EC",
"MX c #F8F5EF",
"NX c #FFF8ED",
"BX c #F5F3F1",
"VX c #F9F6F1",
"CX c #FCF9F3",
"ZX c #FEFCF9",
"AX c #EFEEF1",
/* pixels */
"2X1X2X2X=X=X:XrX2X>X,XrXrXrX9XtXrXlXyX].,XrX,X9X,X=X,XrX,X:X=X9X=X=X=X,X=X=XrX=X:X>X1X1X1XqX,X,XtX=XqXtXqXfXfXqXqX1XfXfXkXjXfXfX",
":X1X:X:X,X:XrX:X:XrXrXrX,X9XrXrXrXkXyX=XrXrXrX9X9X,X,X9X,X,XrX9XrXrXrXrX,X,XrX9XqX1X>X>X>X>X9X,X9XqXtXqXfXfXqX1X>X1XqXfXfXqXsXqX",
":X=X1X,X,X:X,X,X>XrXrX-X,X9X9XuXyXlXnXrXyXyXrX,X,X,XrX,X:X,XrXtX,X,XrX,X=X=X,XrXfX1X>X>X1X,X>X,X,X,XqXjXfXqXsX1X>XfXfX2XqXqXqXfX",
"3X=X,X,X,X,X-X9XrX,XrXyXrXrXtXtXlXlXyX9XyXrXrX,XrXrXrXrXrXrXrXjXrX9XrX,XrXrX=XrX1X:X:X<X>X>X>X,X,X2XyXjXfXfXqXqXfX2XqX>XqXqXjXfX",
"=XrXtXtXtX9XtXtXrXyXyXlXyXyXlXlXlXuXrX9XtXuX9X,XrXrXrXjXjXrXrXrXjX1XqXjXtXrX:X1X<X>X2X>X>X>X-X>X,XqX1XjXjXjXfXfXfXfXfXfX1XqXfXfX",
",XtX,XtX9X,XtXyXtXlXyXvXlXyXlXlXlXtX9XtXtXyX9X,X,X,XrXjXjXjXrXjXjXjXfXqXrX>X2X:X:X:X>X:X:X:X:X:X,XjXfXjXfX1XqX1XqX2XfXfX1X1XqXqX",
",XtXtXtXuXtXtXyXlXtXtXyXlXlXyXyXrX,X,XvXyXlX9X-XrXrXrXrXrXcXcXjXjXgXjX2X,XtXrX2X1X:X:X:X>X>X1XqXqXkXjXjX2X>X1X1XqXqX>X>X>XqX>X*X",
",XrXuX,XrXtX9XyXyXlXyXyXlXlXrXuXuX=X9XvXyXtX,X,X,X,XrXrXrXrXrXrX1X1XfX1X2XtX,X1X1X:X<X>X>X1X>X>XqXjXjXtX1X>X1XqXfXqXfXwX>X&X~.N.",
"rXtXtXrXrXrXtXkXtXtXrXlXlXlXkXlXlX,XlXlXuXrXtX9XrXrXjXrXrXtXrXtXjXjX1X1X1XqX>XsXqXfX2XqXfXfXqX9XjXkXfXfXfX1X1XqXfXfXsX*X~.B.n.f.",
"lXkXkXkXyXkXlXkXtXyXlXlXlXlXlXlXlXrXlXyXlXrXtXrXtXrXjXrXjXtXrXtX1X1X1X>X>X2X1XfXqX1XqXfXkXjXfXjXjXfXfXfXfX1XfX1XfXqX~.A.n.A.@X6.",
"lXlXlXlXvXlXcXrXlXlXbXbXxXbXlXbXlXkXmXxXlXlXtXrXrXkXjXtXrXjXtXrXtX1X,XtX1X2X1X1XfXfXkXjXjXjXjXfXkXkXfXjXfXjXjX1XfXA.B.oXn.%X@Xy.",
"lXkXxXbXlXlXcXrXrXlXxXxXxXlXlXbXlXlXlXmXlXrXtXrXtXjXjXjXtXgXrXrXjXtX1XjXjX1XfX1XqXfXkXcXkXfXqXqXkXcXjXqXfXfXqXqX!.N.&X!.a.9.! U ",
"cXcXlXxXmXxXcXcXcXxXxXxXbXlXlXlXjXcXlXlXkXrXrXrXrXtXrXcXjXjXrXrXtXtXrXjXtXtXjXjXkXjXkXkXcXkXfXlXcXlXfXfXjXjXqXA.E.Z.&X4Xa.c c ) ",
"lXxXxXmXAXmXxXxXxXxXAXxXcXcXcXrXtXkXlXlXyXrXtXtXrXrXrXlXkXcXtXrX,XjXtXkXjXjXxXxXxXcXcXkXxXxXkXlXxXcXjXjXjXxX!.g.=. .r.W.X.;.) } ",
"cXxXxXmXxXxXxXcXxXxXxXcXjXjXcXrXtXkXtXkXrXjXjXgXrXrXtXcXcXtXjXkXcXlXjXcXjXcXlXlXkXkXkXcXxXcXkXcXxXcXjXcXzX&Xh.=.c ` B R s.<.M r.",
"cXxXcXcXlXlXcXcXcXcXrXjXrXrXrX,XrXcXtXtXtXgXjXtXtXtXcXxXjXkXjXtXtXtXjXkXjXxXlXxXcXkXjXjXxXcXkXkXcXxXcXcX:Xg.] _ 3.{ B p.[.1.r.u.",
"xXcXcXcXcXgXgXrXfXjXfXzXjXjXjX1X1XtXqXjXjXjXrXjXjXtXjXjXcXjXjXtXtXjXjXtXcXxXxXxXjXjXcXjXxXlXkXcXkXcXkX>Xx.o.;.l.1.:.M =.X.r.F.J.",
"xXxXcXzXrXrXgXgXsXjXxXzXxXlXxXtX,XtX1XjX1XjXtXtXqXqX1XjXtXyX,X1XtXjXtXrXtXjXxXjXjXkXxXkXkXcXjXkXcXkXfX!.h.O.] ^.<.R.{ x N i.2XtX",
"xXxXxXcXcXgXgXrXkXxXcXkXcXkXjX,X,XtXrXtX1XtXqX1X,XjXtXtXtXtXjXtXjXkXyX1XkXlXlXjXjXxXxXjXkXcXjXxXfXxX-XN.d.N.o.n s.4._ g.K.<XzXH.",
"AXcXxXxXlXlXgXgXjXcXkXjXjXtXjX,XtXtX1XtXjXjXtXqXtXjXjXjXtX1XtXkXjXjX,XtXcXcXlXxXcXlXkXjXlXcXkXkXbXfX~.h.g.E.b X z <.U.wXjX&XK.y.",
"2XcXjXgXgXjXcXcXkXjXkXjXkXqX9X,XqXqXqXjXqXjXjX1XtXtXjXkXjXtXjXcXlXtXtXtXkXxXjXjXxXxXcXjXcXcXjXkXBX~.d.d.E. .- - _ R.5XfXkXkXJ.K.",
"C.%XgXhXcXlXcXlXcXkXjXxXkXyXtX9XqXqXjXzXjXqXqXqXjXyXtXjXlXjXlXlXtXtXkXcXcXkXxXjXjXjXxXxXxXxXlXlXfXN.9.N.d.; o X } ^.8XqXyXbXvXbX",
"$Xe.D.rXcXlXcXcXjXcXxXjXjXlXqXlXbXxXxXcXjXzXjXkXkXjXtXjXcXjXjXlXrXyXjXjXkXxXxXxXxXcXxXcXxXxXkXkXwX9.+.N.1 X n I.5XeXwXwX-XqXmXVX",
"e.XX$XV.rXcXxXcXzXxXAXxXcXrXzXAXxXxXzXjXzXcXkXjXtXjXtXqXlXxXcXlXjXkXkXkXxXxXbXxXxXAXcXxXbXcXfXkXE.@.h. .1 ~.iXiXeX{.I.~.*Xf.~.VX",
"$XXXXXe.XXdXhXhXdXhXzXAXcXfXzXzXzXzXzXzXfXcXkXjXkXjXcXyXlXlXxXlXlXkXlXlXlXxXxXmXxXcXcXlXcXlXxXfXa. .h.O.8XCX6XQ.N.>...B r.p.O.=X",
"m.XX$X$Xe.3XhXhXdXhXhXhXzXsXzXfXdXdXzXcXkXlXxXkXqXwX1XjXkXbXxXlXxXxXxXlXlXmXmXlXvXcXxXxXxXvXkX0XwX`.].4X0XQ.a.=...X.X...] ,.x.A.",
"e.m.e.w.w.XXzXdXdXdXdXhX<X2XzXdXsX<XsXzXxXxXyX4X4X'.).4X'.&XlXBXbXmXxXxXbXbXbXxXxXAXmXvX0X0X0X7XwX;X;X0XE.V ..r.a...] R.5.:.&.X.",
"XXw.w.w.7.e.3XfXdXdXdXdX<XdXsXdXzXsXfX1X-X4XY.,.X.Q.aX'.W./.v.].mXmXBXBXmXmXvXkX0X8X'.`.7XiXvXpXnXiX`.).=.X.X.B 5 o ` T.:.:.:.:.",
"$X$Xe.e.w.w.e.#XzXzXfXhXdXdXfXwX4X`.{.{.{.T.;.M &.S.`.)...B ' a.].yX*X!.-X`.;XaXI.>.,.U.{.).'.7XeXQ.p.&.' m 2 # # = ] R.:.5.R.T.",
"n.Z.E.S.j.w.7.e.@XdX<X*X3X>X4X|.(.|.|.|.U.1.8 ..jXxX*XwX].%.V ..!.=X!.*X].c.v.a.' U r.,.a.X.=.a.=...B x 1 > & * # > 2 1.:.4.5.[.",
" X(.[.Q.Q.x.A.!.Q.|.Q.U.l.E.U.E.Q.|.|.<.` 8 =.tXkXyXvXbX-Xz.S.O.vXVXCXbX].a.a...%.>XVXyX,X,XjXA.9.9.1 o : 6 < # 5 _ 7 ` 4.:.4.R.",
"5X/.l.Y.4X.X4X|.{.}.|.[.I.>.U.|.{.[.Y.{ ' !.kXkXkXlXlXvXkXyXvXbXmXVXmXBXx.t.a.!.bXZXmXVXMXVXZX*Xd.9.1 : > < 5 8 8 / 8 8 ) | { | ",
"7XI.[ x.s.,.l.Y.T.Y.L.4.;.X.T.R.;.{ { -.tXbXyXkXlXlXlXlXyXlXmXCXVXVXVXCXS.S.].bXCXmXmXmXmXVXCX-Xd.o.1 - > < < _ ) / / 7 4 < < * ",
"iX,.5 V &.;.&.3.{ { ` M c ' { ' a.,.z.rXlXyXyXkXkXlXpXlXtXyXCXVXVXVXCXMXbXbXVXVXmXBXBXBXVXVXCX9Xh.O.q : o > 5 c 7 7 7 _ _ 8 8 5 ",
"l.m 6 5 N ] [ M x U ! M.+XC.Z.-XMX7X).`.;XlXlXlXlXlXbXlXkXbXCXCXVXVXVXVXCXVXVXVXCXBXMXMXVXMXCXtXh. .q > o o > # < # 7 | 8 6 ) M ",
"[ u 7 Y #.#.#.*.n.D.+XoXC.K.).).0X6X XaXY.tXmXmXbXlXlXyXyXyXCXVXVXMXVXCXCXMXVXVXMXMXmXMXBXbXmXyXN.9.q 1 o . . o : > 4 3 2 8 :._ ",
"V x m #.k.k.k.t.-.t.-.t.W. X`.`.0XiX'.Q.<.J.2XrXlXvXvXvXyXmXCXVXMXVXVXVXCXCXVXVXMXmXvXvXvXmXmXMX~.g.q 1 - X   . X o ; q B 5.1.5 ",
"B x V q.q.k.k.j.t.t.S.`.4X4X`.W.4X6X/.>.-.H.%X%XD.%XtXvXmXNXmXmXbXmXmXmXmXmXbXmXmXvXlXkXvXMXMXMX>XN.@.2 :       O o ( O.P.1.x y ",
"M m $.#.0.i.k.j.k.].8X8X6X}.&.v.;X_._.1.%.D.+X+XoXV.D.%X9XbXvXmXvXbXmXmXmXbXvXmXmXmXkXlXmXMXmXmXVX~.9.q 1 : X   . q  . .+.v < 9 ",
"8 m $.#.0.W 0.i.'.7X4X4X5X>.=.`. X7X/.&.-.C.C.m.V.%X@X%X@X&X,XmXbXbXxXmXmXmXmXmXmXmXkXvXbXmXbXvXBXwXh.@.q q o   o q @. ., < > # ",
"M 7 e g A g ^ S.7X;X6X5XI.=.pX4X8XuXY.%.c.c.c.c.n.oX#X%X@XOXF.&XBXxXbXbXbXmXmXMXmXvXyXvXmXvXmXmXbXCX!. .q n z X X b ( ( 3 - ; ; ",
"m m $ % e $ K 8X X X_./.{ ).aX`. XpXY.&.c.c.v.v.c.z.D.%XH.G.oXV.&XBXbXbXbXmXmXmXmXbXyXyXmXmXvXvXbXbXVXA.b b ( > , O.z ( ( 1 ; ; ",
"m M m u & e v._.).)./.L.&.7X7X/. XpXl.V j.j.c.K.v.c.j.z.H.+Xm.m.M.dXVXbXmXbXmXmXmXmXyXyXvXvXbXbXvXbXmXBXA. .n n (  .z  .} } , , ",
"B V &.[ ' I./.`. X_.Q.P.l.uX`.W.7X8X&.V W $.k.k.j.z.c.b.t.z.D.V.XXV.fXBXlXbXmXvXmXmXlXmXmXmXvXbXbXbXbXbXmX-X9.o.O.N.!.z o.o.( , ",
",.2.,.[ ..L. XiX6XQ.L.,.W.6XW.Q.iXU.] v H H J Y ! *.j.z.t.-.i.V.oXXXV.jXbXbXmXmXbXmXlXbXmXbXmXbXbXbXbXbXbXMXMXkXkXmXBXd.( ( } } ",
"l.<.1.[ [ _.iX7X}.l.5.>.W./.U. X7X,.' s F D H H K Q ! *.! ..K H y.oXn.V.1XbXvXbXbXmXbXlXmXmXmXlXbXbXvXvXMXbXmXVXMXbXbX0Xh.} } } ",
"l.L.>.&.[ T.iX.XI.;.:.{ x.(./.uXW.[ v a r p h K ~ K L E U T L Z D y.V.V.D.gXmXlXbXmXbXbXbXbXbXlXmXvXvXvXMXbXbXMXMXmXmXmXmX~.+.1.",
"I.l.>.,.&.&.P.<.] { ;.[ W./. X4X=.M f D C s f j L L L E Q ! 9.Q S S 6.@XD.G.jXbXbXbXbXlXbXmXbXmXvXvXbXmXMXbXMXMXMXMXMXVXmXvXnX'.",
"<.>.l.l.%.&.M 8 M V M %./.).7Xx.V u f A C A h S L E E P Q Q 9.! E H F 9.@XV.@XvXvXvXvXlXbXbXbXAXbXmXmXbXbXmXmXmXVXVXMXMXvXmXVXuX",
"Y._.`. X/.=.v.=.M m < t.`.8X'.&.N H E W P L K S E E W Q Q ~ E E E L F J V.oXV.<XAXvXlXbXvXvXbXbXxXvXbXbXbXbXvXbXVXmXbXbXmXMXMXmX",
"pXuXyXaX8XW..X.XW.V w /.`..X,.B $.W Y H H K L H S G H ~ Q E L L S s r D D.oXe.M.sXlXfXbXbXbXbXbXbXvXlXlXvXvXvXvXbXMXvXbXmXmXmXVX",
"pXuXtXuXpXpX;X_.{. Xv.].;XY.M $.q.0.$.W Q P P j h Z A D S Z s s s a 9 9 n.+XV.m.G.:XbXbXvXlXvXvXbXvXlXlXvXvXkXbXbXlXlXbXvXbXmXmX",
"7X7X7XuXuXyXvXpXuXiXnXvXpX0XW.-.$.$.0.0.#.! T K k h S S s d s D Z d 9 9 D y.oX+XD.OX@XlXbXlXlXvXbXvXkXvXlXkXkXkXkXkXyXlXvXmXvXbX",
"(._.6X6XuXpXpXpXvXmXvXvXvXbXaX`.l.b.0.0.#.! *.T j p s s k s s Z D D F a 0 9 E M.oXOXG.OX<XvXlXlXvXxXlXvXvXkXjXvXvXyXkXlXlXbXlXbX",
"L.Y.T.{.{..X.X6XiXuXuX6XuXaXmXuXQ.T.b.H p h T Y p t t t p s Z G S S G S Z p 9 d J XXOX@XoX<XAXvXbXvXcXkXkXkXkXvXkXkXvXvXlXvXbXlX",
",.2.2.L.Y.T.Q.(.[.{.(.Y.Y.{. X(.(.Y.T.=.h N Y w % 9 9 9 9 t p k K ~ ~ P L L D s 9 F 9.D.@XOX3XfXcXvXkXkXkX0XcXvXyXyXlXvXvXvXvXlX",
"5 m %.-.,.,.2.2.L.L.l.,.;.<.2.R.T.T.Y.Y.2.T.v.-.k e t 9 t p j ^ K T ! #.R N j h s 9 C 6.n.OX@X&XfXlXfXlXfX0XfXvXyXkXvXvXkXlXvXfX",
"N < @ l ^ N I V V V V N m V &.2.2.L.(..X.X X(.(.U.-.I Y P Y Q Y T U T U T ! ~ h a d F 6.9.oXOXoXD.&XvXfXfXkXlXfX0XyXkXkXkXvXfX0X",
"$.[ 5 * = % r f i % g t ^ e t N ,.l.T..X6X6X6X.X}.Q.b.*.Y Y Y H P T Y Y I I Q E s Z F J 6.y.XXV.oXV.@X0XlXkXkX0XqXyXyXyXkXpX0XlX",
"5 V %.V 5 & @ & l g g g g g r 0 u <.l.Y.T._. X6X5X X}./.v.t.*.t.t.U I I ^ N j H s C L E J w.D.V.oXF.V.F.<XvXkXwXkXjXjXqXfXfXvXfX",
"& 5 $.&.R R N 5 $ 9 i r r r F C r l $.1.5.L.T.Q.(.(. X X X.X4X4X;XQ.x.z.S.Q.E.P s F Z L E J D.+XoXoXD.F.oX&XfXfXvXfXyXyXvXkXkXnX",
"r 6 5 $.%.%.$.B u % 0 e i e e r C h 5 m $.&.1.1.:.2.P.L.Y.T./.(.`.7X7X6X5XU.>.! 9 d r C C 7.9.oXD.n.G.OXoXB.@XpXlXpXfXfXfXpXvXlX",
"J $ & 6 Y -.#.V v & + + $ % % 0 t t & w 5 5 u m m m M B B ' B &.>.L.Q.Q._./.a.h 9 s d d F J H 6.V.V.G.G.G.G.B.F.fXyXkXyXpXkXkXfX",
"J e & e l R %.V u & @ + = = % % % @ @ & w 6 6 l N ^ u w t l p u t V ,.l.U.l.l.^ K S f s C C D E y.G.D.oXOXOXoXG.F.fXvXlXlXfX0XpX"
};
