/* XPM */
static char *god_adam[] = {
/* columns rows colors chars-per-pixel */
"70 70 240 2 ",
"   c #2A0D0D",
".  c #2E1114",
"X  c #361617",
"o  c #300E10",
"O  c #191C26",
"+  c #292C38",
"@  c #383739",
"#  c #332C2C",
"$  c #2E2125",
"%  c #441B1C",
"&  c #501F1E",
"*  c #451D20",
"=  c #4A2828",
"-  c #542727",
";  c #4A372E",
":  c #453C35",
">  c #593636",
",  c #55312F",
"<  c #62383D",
"1  c #46221E",
"2  c #464238",
"3  c #594939",
"4  c #765639",
"5  c #694E3A",
"6  c #373A46",
"7  c #2F3645",
"8  c #653D42",
"9  c #423F4A",
"0  c #3C424A",
"q  c #3C4555",
"w  c #484748",
"e  c #5B5648",
"r  c #454B55",
"t  c #454C5B",
"y  c #4B4E5B",
"u  c #454854",
"i  c #4D525C",
"p  c #4B5358",
"a  c #52535C",
"s  c #57585A",
"d  c #534D49",
"f  c #695946",
"g  c #755B46",
"h  c #625E5A",
"j  c #7B5458",
"k  c #734C4E",
"l  c #5C615D",
"z  c #6D624D",
"x  c #77634B",
"c  c #686456",
"v  c #776A56",
"b  c #7D7259",
"n  c #6B745C",
"m  c #4A5262",
"M  c #535662",
"N  c #5A5B63",
"B  c #575B67",
"V  c #444F60",
"C  c #5D626A",
"Z  c #5E6066",
"A  c #5A6677",
"S  c #646264",
"D  c #63646B",
"F  c #6C6B6D",
"G  c #686967",
"H  c #6B746B",
"J  c #73736C",
"K  c #797665",
"L  c #6B6C72",
"P  c #656A76",
"I  c #6D7776",
"U  c #737373",
"Y  c #797977",
"T  c #736D65",
"R  c #835839",
"E  c #96633F",
"W  c #83595A",
"Q  c #945F41",
"!  c #896849",
"~  c #846A55",
"^  c #89755A",
"/  c #967958",
"(  c #966F4D",
")  c #865D62",
"_  c #8B6569",
"`  c #936967",
"'  c #887B66",
"]  c #927D62",
"[  c #997A65",
"{  c #857E75",
"}  c #967477",
"|  c #A17A75",
" . c #A37E5F",
".. c #77857A",
"X. c #6B8778",
"o. c #A9865E",
"O. c #8C846C",
"+. c #9C8263",
"@. c #98856A",
"#. c #888478",
"$. c #998A78",
"%. c #99917E",
"&. c #A58B6A",
"*. c #A48E76",
"=. c #AA9478",
"-. c #B69B79",
";. c #B59067",
":. c #BBA37E",
">. c #C49D75",
",. c #C7986D",
"<. c #CEA57C",
"1. c #767A87",
"2. c #60779E",
"3. c #607EA8",
"4. c #5E7BA1",
"5. c #8D7F81",
"6. c #A47D85",
"7. c #7A8C84",
"8. c #7A9585",
"9. c #6985AC",
"0. c #7991B4",
"q. c #6F89AF",
"w. c #888884",
"e. c #879A88",
"r. c #979A88",
"t. c #8D949B",
"y. c #8F8C93",
"u. c #A8888A",
"i. c #A89888",
"p. c #B69D84",
"a. c #B6979A",
"s. c #AA9196",
"d. c #96A896",
"f. c #8FA58F",
"g. c #BCA58B",
"h. c #B8A488",
"j. c #A7A895",
"k. c #B7A797",
"l. c #B7B59B",
"z. c #A7B599",
"x. c #8A94A8",
"c. c #959AA8",
"v. c #899CB9",
"b. c #959EB2",
"n. c #B89CA2",
"m. c #A096A0",
"M. c #99A4A6",
"N. c #99A4B9",
"B. c #8BA0BE",
"V. c #A6A6A8",
"C. c #B7A5A7",
"Z. c #A3AABB",
"A. c #A6A9B7",
"S. c #B6B5BB",
"D. c #B1B6A8",
"F. c #C5A987",
"G. c #C9B18E",
"H. c #C4AD96",
"J. c #CCB494",
"K. c #CAB39B",
"L. c #C6B39A",
"P. c #D3B89A",
"I. c #D3AC87",
"U. c #C3A7AC",
"Y. c #CDB9A4",
"T. c #C8B7A8",
"R. c #D5BDA7",
"E. c #C7B8B6",
"W. c #CDB6B7",
"Q. c #D0AE94",
"!. c #DAC2A5",
"~. c #D5C2AB",
"^. c #DCC4AC",
"/. c #D9C4A8",
"(. c #CAC2BA",
"). c #DDC5B1",
"_. c #DCCAB4",
"`. c #DCCCBC",
"'. c #D3C5B7",
"]. c #D7C8B6",
"[. c #E1C7AB",
"{. c #E3CBB4",
"}. c #E2CEBA",
"|. c #E4C8B0",
" X c #E3D2BD",
".X c #E6D1BA",
"XX c #8DA3C2",
"oX c #97A9C6",
"OX c #A7AEC1",
"+X c #ABB3C3",
"@X c #A8B3C8",
"#X c #B5B9C7",
"$X c #B2BED1",
"%X c #C0B7C1",
"&X c #BCC3D0",
"*X c #C8C6C9",
"=X c #D6CBC8",
"-X c #D8D1CA",
";X c #D5D4D3",
":X c #DAD6D4",
">X c #DCDAD6",
",X c #DDDCDB",
"<X c #D4D5DA",
"1X c #CCCDD3",
"2X c #E4D4C4",
"3X c #E9D6C4",
"4X c #EBDBCB",
"5X c #E8D7C8",
"6X c #E2DCD5",
"7X c #EBDED2",
"8X c #E1DEDB",
"9X c #E1D6D5",
"0X c #ECDACE",
"qX c #DFE0DD",
"wX c #EDE1D5",
"eX c #E3E1DD",
"rX c #EAE4DD",
"tX c #F2E5DC",
"yX c #F4E5D7",
"uX c #DCDEE3",
"iX c #D3D8E3",
"pX c #E1DFE0",
"aX c #DFE1E5",
"sX c #DEE1E9",
"dX c #E5E4E2",
"fX c #E9E6E3",
"gX c #ECE9E5",
"hX c #E3E4E9",
"jX c #ECEBEA",
"kX c #E8E8E9",
"lX c #F1EBE6",
"zX c #F2EEEA",
"xX c #F9EDE4",
"cX c #F5F1EC",
"vX c #F8F4EF",
"bX c #FFF5E9",
"nX c #F9F6F1",
"mX c #FCF9F4",
"MX c #F6F4F1",
"NX c #EEEEF1",
/* pixels */
">X,X<X<X;X-X;X;XqX;X;X>XqXqXqX6XqXrXrXfXqX(.>X6X>X>X>X-X;XqX>X;X;X-X6X-X-X-X;X>X-X:X:X-X;X;X,X,X,X8X>X>X>X6X-XdX,XeX8XpXpX8X,X8XpXdXfXdXpXdX",
"<X,X>X;X;X;X;XqXqX;XqX6X>X>XqXqXqXqXrXgXqX-XqXrXqXqXqX>X;X>XqX>X>X>XqXqXqXqXqX>X:X6XeX>XeX>X:X:X>X>X,X6X>X8X8XeX,XeXdX,X,X<X<X,XpXpXpX8XuX,X",
">X;X,X>X>X;X>XqXqX>XqXqX>X;X>X>XqXwXfXgXgX6XwXqXqX>X6X>X;XqX>X>XqXqXqX>X>XqX>X;X;X:X,X8XqX,X>X:X>X>X>X>X>X>X>XeXdXpX,X,X8X<X8X8X8X>X8X8X8X8X",
";X*X>X>X>X;X;X;X>X;X>XqXqXqX6X6XeXrXgXgXgXqXdXqXqX>X>XqXqXqXqXqX>XqXqX>X>XqX>X>X<X>X:X8X,X;X;X<X:X>X;X>X>X>X,XdXfXpXdXpXpX,X,X8X,X<X8XpXdXpX",
"*X>X>XqXqX>XqXwX6X6XeXeXgXrXeXrXfXgXfXeXwX6XwXeX6X>X6XqXqXqXqXqXqXqXdXqXqXqXqXqXpX:X<X,X>X;X<X>X<X:X:X:X6X>X,XqXdXdXpXpX8XpXpXpXpX,X8XpXpXpX",
";XeXqXwXwX>XeXeXeXeXgXgXrXgXrXgXgXgXrXrXqXqXeXrX6X>X>XqXqXqXkXdXdXqXqXqXqXqXdXqXpX1X,X<X<X<X>X;X>X:X;X;X:X,XdX,XdXpXpXpXuX8XpXpXpX,X,X,XpXuX",
"qXqXeX>XeXqX>XeXrXgXgXeXgXlXgXrXgXgXeX>X>XgXrXgXeX>X>XqXqXqXdXqXdXdXkXdXdXqXqXqX,X,X:X<X>X:X;X1X;X<X:X>X:XeXfXdXpX8X,X8X8X<X,X,X,X>X8XpX8X>X",
">XqXeX6XeXwXqXwXrXrXrXeXeXgXgXeXqXwXqX-XwXgXrXeX6X>X>X>XqXqXqXqXdXdXdXaXqXqXqX>X8XpX,X,X,X:X;X;X;X>X:X,XeXeXfXdX8X<X;X>X8X8XpX8X8X:X9X<X=XU.",
">XqXeXqXqXqXqXeXgXrXgXgXgXgXgXrXrXeXeX-XgXgXeXeXqX-XqXqXqXqXqXqXqXqXqXqXqXqXqX>XeX>X,X,X,X<X<X>X,X>X:X<X>XdXfXeXpX8X<X8X,X8XpX,XpX:X=X%Xn.C.",
"qXrXrX6X6XeXwXeXgXqXeXeXeXgXgXgXfXgXrXqXgXrXeXqXqXqXqXqXqXqXqXdXdXqXqXqXqXqX>X;XqX>X,XuXpXpX8X8XdXdXeX,XdXdXpXpXpX8X,X8X8X8XdXpX=X%XC.m.m.x.",
"gXfXgXfXgXrXgXfXqXeXgXgXgXgXgXgXgXcXeXeXlXgXeXeXwXqXqXeXeXqXqXqXqXqXqXqX>XqX>XqX:X<X,XdX,X,X,XdXdXdXdXeXdXeXuXdXpXpXpX8X,X8XdX*XC.n.m.#X#X5.",
"gXgXgXgXgXgXkXdXgXeXgXjXzXgXgXgXgXcXfXgXzXzXlXgXeXqXqXeXkXdXeXqXeXqXqXqXqX>XqXqX,X,X,X,X,XdXkXdXdXdXdXeXdXfXdXdXdXpXpXdX,XdX=Xs.S.V.A.1XA.y.",
"gXkXjXgXjXjXkXdXdXqXjXjXjXjXjXgXjXzXeXjXjXcXgXeXeXqXqXeXdXdXdXaXdXeXqXgXqXqXeXdX,XpX8X,XpXpXfXfXfXdX8X,XdXkXfXeX8X8XdX8X8X1Xn.C.1XC.u.7.1.L ",
"dXdXjXjXjXcXkXkXdXdXkXjXjXjXjXgXjXdXeXjXgXjXdX,XeXqXeXeXqXdXdXdXdXdXeXqXqXqXqXdX8XdXdXdXdXfXdXgXfXdXdXdXgXkXfXaXpXdXuXdX(.U.n.#X;XR.] 5 g ~ ",
"kXNXjXjXNXNXNXjXjXjXjXNXjXjXjXjXkXqXgXgXgXgXdXqXqXqXqXqXqXdXdXgXkXqX>X>XeXqXdXdXeXfXkXkXkXkXgXhXjXjXkXfXjXjXdXdXdXdXkX=Xa.a.6.5.(.R.`  .! / ",
"kXcXjXjXcXcXjXjXjXjXjXjXjXdXqXdXeXqXdXdXdXrXeXqXdXeXqXqXqXdXgXdXdXqXqXeXgXeXgXkXdXkXkXgXfXfXdXfXkXjXfXfXkXkXkXdXhXdX,Xn.s.v g f } K p.&.! { ",
"kXjXjXjXjXjXjXjXgXgXkXkXdXaXeXdXdX>XdXgXeXeXdXdXdXdX,XdXdXdXkXdXeXeXdXrXgXrXkXdXdXjXjXgXgXdXdXfXkXjXdXdXjXjXjXjXjXpXC.| ^ ( / / v i.^.( ^ t.",
"jXkXkXkXjXdXdXqXaXdXqXqXaXdXqXaXqX>XeXeXeXeXdXaXqXeXdXdXdXgXgXdXkXgXqXeXdXdXdXqXgXjXjXgXdXkXgXdXlXjXkXgXjXjXhXpXpXW.u.[ / ;.+.^ ~ T.p.a.A.V.",
"jXkXkXkXhXqXqXqXuXaXdXkXkXjXdXdXdX>XqX>XqXdXeXdXeXdXdXeXqXdXdXdXeXqXqXeXeXdXqXrXgXjXjXdXdXdXkXdXgXkXdXfXjXpXhXpX=Xu.` [ R.=.<.o.x v h 5.S.1X",
"jXNXkXaXaXsXqXsXqXaXdXjXkXgXgXkXdXqXqXeXeXeX,XqXeX8X,X,XeXeXaXeXeXqXqXeXdXdXeXeXdXkXgXdXkXgXgXdXfXgXdXfXjXpXjX9XU.s.u.~ p.-.I.,.g T 5.*XNX,X",
"kXNXNXkXkXdXdXqXdXgXjXdXeXkXgXgXeX:X8X8X,X8X8XdXeX,X>XdXdXeXeXeXeXrXeXeXdXeXqXdXgXkXgXdXdXkXdXkXdXkXdXkXfXjXpXW.a.u.U.*., [ p.( &.=X#XpX1XV.",
"NXkXkXkXkXkXdXkXdXdXgXkXdXeXqXeX>X,XdX8X,XdXpXdXeXeXeXeXdXdXdXeXqXeXkXdXrXqXqXeXkXdXkXjXjXkXkXdXkXkXfXfXkXzX(.U.6.n.n.k X - &.Q.2XpXpX(.A.1.",
"iXkXqXqXdXdXkXkXkXdXeXgXdXgXeXqX>X6X8X8X8XdXeXdXeX,XeXeXeXdXgXdXqXdXkXgXeXeXeXdXjXdXgXdXgXjXkXdXjXkXfXfXzXkXn.u.a.U.` % % < <.!.tX9XzXpXS.S.",
"B.@XqXkXdXkXkXkXdXgXkXkXkXgXeXrX>XeX8X8XdXdXdX8XeX8XrXeXeXeXdXkXdXgXgXeXqXgXdXgXdXgXkXdXkXkXkXjXjXjXgXdXjX=Xu.6.U.6.& %   W >.}.7X8XfXzXlXxX",
"B.B.N.iXkXdXkXkXkXdXkXjXkXdXjXeXwXNXjXjXjXkXdXkXdXfXdXfXdXeXgXkXgXkXgXqXeXdXeXdXjXjXjXjXgXkXkXjXjXjXgXeXgXU.| 6.n.> o > *.W.0X0X9X9X-XjXzXMX",
"0.B.B.B.iXkXkXjXkXdXjXcXkXkXqXqXgXjXNXjXhXhXhXkXkXdXdXdXeXeXeXgXkXdXgXqXgXdXdXgXjXjXjXcXjXjXkXkXjXkXfXdX9Xa.` n.) & u.5XtX0X3X|.T.9XU.C.9XmX",
"0.B.oX0.B.qXsXhXsXsXhXNXNXsXaXkXjXkXhXsXhXuXpXkXgX8XpXfXeXeXeXgXgXjXgXgXgXdXgXgXjXjXcXjXjXkXgXgXjXkXdXjX(._ ) u.k W.mX0X}.R.H.| K $.V.u.6.8X",
"0.XXoXoXq.oXsXiXsXuXsXsXsXkXqXsXsXsXsXhXhXhXhXfXfXfXfXfXkXkXkXgXjXgXgXgXgXgXgXjXjXcXzXjXjXgXgXkXjXjXlXdX2XW.T.U.=XxX0XR.p.] ' ' K v ^ p.u.S.",
"B.oXB.9.q.0.iXsXsXiXaXaXaXsX<XsXsXaX,XiXhXkXlXjXjXeX6X`.~.-X:X-XdXMXzXlXzXjXjXzXzXcXzXjXzXzXzXzXjXgX7X7XtX5X=X=X5X(.u.' O.$.$.@.@.>.;.-.h.i.",
"B.0.0.9.9.q.&XhXiXsXaXaXaXiX1XaXaXsXaXuXhXsXdX8X2XY.T.).2X2X2X`.E.=XzXzXzXcXcXcXcXjXjXgXfXlXlXwX5X4XtX7X7X7X5X2X5Xi.v @.%.$.g , F.<.>.;./ / ",
"XX0.q.q.9.9.0.&XsXsXaXiXsXqXiXsXaXaXeX>X:X-X}.|.F./ ! @.4XwXk.i.g.h.l.gXcXcXjXjXcXfXwXrX=XR.K.R.3XwXtXtXxXtX2XH.h.' } b d = $ , P.<.;.<.<.<.",
"0.B.B.0.q.9.9.9.&XsXsXsXsXiXqX<X>X X_.[.|.|.|.Q.[ x $.=X(.'.T.^ f c *.D.qX(.l.l.'.T.7X5X} [ *.p.Y.L.g.R.{.Y.i.O.} v 3 # * # # # >.>.,.<.I.!.",
"V.C.Y.Y.T.m.2.9.v.%X9X=X(.*X-X=X).R.^.|.|.!.h.+.4 ' eXgXeX>XwXl.%.' v W.8X-X9X:Xk.T.r.' x { j.i.i.$.$.$.6.{ T k > = = : # $ ; ; 4 ;.o.,.<.[.",
".X|.^.R.~.!.C.W.}.|.R.R.R.p.F.H.H.Y.).|.!.&.! f %.eXrXrXgXfXcX(.l.D.$.zXmXmXzX-Xk.$.i.' s.lXmXzXkXfXMX8Xn.6.} * % = : : @ ; Q R 3 o.,.;.,.<.",
"3X^.g.g.`.}.2X{.|.|.{.|.!.P.*.k.{.|.{.!.F.~ ^ (.gXrXfXgXlXzXjXgXlXzXmXcXvXvXmX=X$.j.i.qXMXnXzXMXvXvXmXlXn.6._ - = = : 3 4 4 R 4 4 5 / ( ( +.",
"4XR.~ h.H.p.p.K.P.Q.Q.I.>.*./ F.!.F.+./ ^ i.rXgXrXrXtXgXgXgXgXrXfXvXmXvXvXvXmX6Xi.=X(.mXcXMXvXvXzXMXmXzXn.6._ = * = : : ! ! Q R 4 3 2 2 @ ; ",
"yXH.3 v ' @.+.@.[ &.[ ^ ~ z 4 +.! ~ $.@.l.eXfXrXgXgXgXrXgXgXrXqXlXmXvXnXmXmXmXzXwXcXvXcXMXMXcXcXvXmXmXnXU.6.) - % % ; 2 x 4 4 5 R E E 5 f : ",
"R.~ : 2 f / +./ x f h v #.N.N.t.C.rXbX].'.].6XgXrXgXgXkXlXlXgXrXcXmXnXvXnXnXvXmXmXnXvXvXMXcXMXvXMXvXMXmXW.6.W , % X X ; : 2 1 1 E E 5 3 ! g ",
"O.e 3 z H H H T Y t.A.@X@XoXx.(._.4XtX`.7XyXY.tXjXlXlXgXlXgXrXeXlXmXnXvXnXnXnXmXnXnXmXvXnXnXvXnXmXcXzXMXE.s.) < - X X . X # ; 1 R 5 ; 3  .( ",
"^ z f H e.e.e.r.r.r.j.m.t.V.'._.~.=XtX2X`. Xh.1XgXcXvXzXgXgXrXrXcXmXnXvXvXvXmXmXnXmXnXnXnXMXzXcXzXzXzXmX;Xn.} < - X .   X . 1 X % , g >.;.5 ",
"x f f 7.f.f.e.f.f.%.%.%.l.`.2X2X X].yX4XY.=.*.Z.#X&X&X;XgXjXzXzXnXmXcXcXvXnXvXnXnXnXMXvXcXlXjXrXlXcXnXcXxXn.s.8 , X o o .     = W _ g.>.~ w ",
"v z n ..7.8.f.d.d.e.d.`.5X2X3X`.i.`._.`.Y.&.@.&X$X&XZ.N.#X<XrXnXbXlXcXlXzXzXzXzXzXzXjXvXcXjXgXgXzXcXvXcXnX=Xa.) > - X . .   X k _ | F.j d w ",
"x x n 7.8.7.8.f.f.l.5X3X2X3X{.] *.2X`.3X/.+.O.N.oXb.Z.+XOXoX&X:XgXjXcXlXzXzXcXcXzXzXlXcXcXcXrXjXcXcXcXzXzXcXU.6.8 > - o . . = ) _ ) j < # @ ",
"f z l X.I I I ..j.4X-X5X5X3X=.O.2X`.5X4Xg.O.f.M.M.b.B.@X&X&X&XS.S.;XcXjXzXjXcXzXcXzXvXzXcXcXrXlXxXcXzXlXzXmX-Xu.j < k * o . , _ ) W X - = = ",
"x 5 6 q p t r I -X X5X3X XL.@.wX4X`.yX-Xg.O.z.z.z.z.M.b.@X&X&X#XS.A.&XvXlXzXcXcXzXMXcXcXcXzXeXlXzXcXcXzXzXzXnXU.) 8 k j X o 8 _ 8 ) - & - - ",
"z z @ + 7 7 + j.7X]. X]././ l.xX5X_.wXwXh.O.z.z.l.l.l.z.M.S.&XN.N.@Xv.S.vXzXcXjXzXvXcXcXzXzXrXrXzXzXxXzXlXzXvXjXn.j W ) > * ) W k ` W - & & ",
"z v z f 2 + T ).`.).].~.J.+.].wX X~.wX5X@.O.d.d.z.z.l.z.j.d.z.#XZ.x.B.v.1XvXjXcXzXcXvXcXcXvXrXrXlXzXjXcXlXzXcXcXNXn.) j j W } 8 8 } ` Q - - ",
"v b ] O.v $.~.~. X}._.R.G.=.4X-X~.~.yX~.+.K ..X.e.d.d.j.j.z.i.r.V.oXN.N.v.,XnXcXlXzXzXzXzXzXfXzXzXzXzXjXlXzXzXzXcXzX=X} _ ) } 9X_ W | | < - ",
"&.-.-.^ b -.Y.3XyX.X~.F.:.k.4X/.L.2X7Xh.^ s B A L I Y ..r.j.j.r.%.y.OX+XXXN.uXvXgXzXzXcXzXcXfXlXcXcXcXxXzXcXzXzXlXzXbXvXeX>XrXmX=Xj ` ! ` W ",
"g.-.=.@.b =.4XwX4X.Xg.F.*.L.`.K.~.4X_.@.b r M B C N G F { w.w.#.{ G U b.OXb.b.,XxXzXzXzXzXcXlXjXcXcXcXlXlXzXlXgXlXvXzXcXnXvXvXlXvXU.` W ( ` ",
"g.g.=.+.^ =.yX3X.XL.&.>.+.g./.K.`.wXh.^ h u u y B Z L G D F U G G G M D c.OXc.b.<XzXlXlXzXcXzXzXlXcXcXlXzXcXgXlXcXcXzXcXvXcXcXcXzXzX2Xu.`  .",
"G.F.=.@.&./ P./.J.+.+.;.^ k._.~.4X'./ v M m t t p s D G D F F Y Y { D M B y.+XOXZ.pXzXjXcXcXzXlXjXcXcXjXzXgXzXcXcXvXcXcXvXcXvXcXvXnXzX9XW.Y.",
"H.=.=.h.&.^ O./ ^ b ^ / ~ Y.~.`.5Xi.v p M M i N a N Z D L D F Y Y { 1.S M B t.#Xb.A.hXzXzXzXzXfXcXcXzXcXzXzXzXzXcXzXcXcXvXvXvXnXvXcXtXzXnX2X",
"=.-.L.T.=.i.O.v 5 z b e ' ].].4X~./ z p C C B B s N P L L L L L U Y { L F M M b.+XZ.*XcXjXzXgXgXjXjXjXzXzXzXzXzXzXcXcXcXcXvXcXvXcXzXcXnXMXlX",
"`.4XwXwXwXi.h. Xi.b e # k._.5X`.$.v l C P I F F D Z Z L L L 1.U U L L Z B a y x.@XN.x.<XcXlXfXlXzXzXzXzXzXlXzXzXzXzXzXjXgXvXvXcXlXzXMXMXcXMX",
"tXtXwXwXwX X X X{._.{ w ~.`.2Xh.x ..X.I L S N S D Z N N N D L L L C Z M m u 6 t.#XN.q.b.<XzXpXlXzXzXlXzXzXzXgXgXgXgXjXgXlXcXcXlXzXcXzXxXcXMX",
"rXwX4XwXyXrX7X2X}.}. X].]. X~.O.n X.f.X.....Y F D h s a M N N a y y y y t 6 7 2.OXoXb.b.Z.1XzXcXlXlXlXzXzXzXjXlXgXgXlXdXlXzXlXrXlXzXzXzXcXzX",
"4X5X4X7XwXtXtXlXtXyXtXxXlXlXtX`.z.X.X.X.8.....J U G a a s B a y u m B M u 6 6 9 1.c.OX@XZ.+X#XpXzXgXgXlXlXzXfXjXgXgXgXrXgXgXfXrXfXfXzXzXzXlX",
"!./..X4X7XyXtXtXrXlXcXcXxXlXlXtX4XJ.z...X.7...Y #.{ l a y a y y y y M N B y t 6 7 m 1.b.+X#XZ.OX<XzXjXpXlXzXlXfXgXgXrXeXlXzXgXrXlXfXlXNXlXNX",
"G.P././.}. X X4X7XyXyX7X5X7XtXzXxX.X!.P.e.Z a Z U U y w w u u a a N N N M D B M M 6 6 m 1.A.+X@XOX1XzXjXjXzXlXlXgXlXrXfXgXgXrXgXxXfXkXlXzXlX",
"=.:.:.G.J.Y.!./.[..X.X[././. X4X.X/.P.J.L.K w d D u @ 6 7 0 6 9 w y a D L L F S S N a 6 9 A b.OX#X+X&XpXkXgXlXfXfXgX8XlXgXrXfXgXlXkXlXlXlXfX",
"c O.+.=.:.:.:.G.G.J.J.l.-.=.-.G.G.P.!.J.G.F.h.g.k._ 2 6 0 @ @ 6 w a l c U _ { U G N N N t q B 1.N.#X#X*XpXzXpX8XfXtX8XfXgXrXrXgXlXlXlXlXlXfX",
"2 : 2 l n b b ..+.@.*.@.O.b O.&.:.:.h.J.!.[././.!./.k.O.l l Z h D F G T J U U J U U N t t q t P 5.A.#X+X+X*XfXlXfX8X8XfXgX7X8XfXfXlXlXlXfX9X",
"O.n # # @ 0 p l l p @ s 2 l d 3 O.:.:.G.[.4XwX3X`.`.).Y.i...H H ..U G J J J T T L _ U B t m t A 1.x.OXN.A.b.#XpX8X8XfXfXfX8XrX8XfXpXlXfX9XfX",
"z ..b 3 # O # 6 q q 0 p p B p 0 7 p =.G.P./..X.X4X4X3X X/.l.%...H H H H T H H G s l F C y M B B 1.1.OXoXZ.OXZ.OX;XfXfXfX7XpXrXpXpX7XpX7XfXfX",
"2 z O...n c d @ @ q M q V q V q V 7 e @.:.:.G.P./..X X X X X X/.l.j.D.E.%.J H G #.#.l s y m D P A 1.b.b.Z.OXA.b.A.*XpXfX9XfXfXfXfXfXfXfXlXfX",
"@ 2 n O.O...X.z 3 + + 0 q q q q V q q p b &.:.:.<.G.G.J./..X X X X5X X`.2X`.E.`.}.`.E.s y V m B P 1.q.+X+X+XOXA.#XA.#X:XfXpXfXrXpXfXlXfXfXlX",
"q @ 2 e O.O.O.b n p @ + 0 q q 0 0 q M l w e z O.&.&.;.;.-.:.:.:.G.J.~._. X X3X}.).*.' s q 6 q t m A D x.Z.b.b.A.+XA.b.A.9XjXlXpX7XpXpXtXlXtX",
"A + @ @ e O.O...n p @ O O + + + 7 0 u @ @ 2 w d d e z e e z z n v z ^ +.h.P.K.^.).R.r.6 w y r u m A B P x.Z.N.A.A.A.A.V.b.1XjXpXfXfXpXlXlXpX",
"7.q + 0 0 l O.^ n q @ + O O O O @ + + O + @ : @ w w c n c 2 0 2 p r e w c $.h.H.H.g.$.s H s y y m M m P 1.c.A.A.A.+X#XA.A.A.=XzXlXlXtX7XpXrX"
};
