/* XPM */
static char *man[] = {
/* columns rows colors chars-per-pixel */
"64 64 203 2 ",
"   c #0E0401",
".  c #1E130E",
"X  c #291B16",
"o  c #2E241B",
"O  c #2C2222",
"+  c #3B322B",
"@  c #45383A",
"#  c #59483F",
"$  c #5B4E47",
"%  c #5E5C5C",
"&  c #63544A",
"*  c #685849",
"=  c #635751",
"-  c #6B5C55",
";  c #685D5B",
":  c #715F56",
">  c #6E635C",
",  c #74665C",
"<  c #786B65",
"1  c #7C726B",
"2  c #7D7B79",
"3  c #77797B",
"4  c #8E795D",
"5  c #806F69",
"6  c #8A7B6E",
"7  c #887F78",
"8  c #927C71",
"9  c #8E8074",
"0  c #8B8279",
"q  c #95867B",
"w  c #94897D",
"e  c #9C8B79",
"r  c #A59079",
"t  c #888482",
"y  c #878488",
"u  c #948C84",
"i  c #938C86",
"p  c #9B938C",
"a  c #95948E",
"s  c #8E9293",
"d  c #959696",
"f  c #999692",
"g  c #969999",
"h  c #9B9B9B",
"j  c #999798",
"k  c #A1948B",
"l  c #A6998D",
"z  c #AC9B8B",
"x  c #A19186",
"c  c #A59B93",
"v  c #A29D99",
"b  c #AB9F97",
"n  c #A3A29E",
"m  c #ACA29C",
"M  c #ABAA9E",
"N  c #ADA196",
"B  c #B2A394",
"V  c #B3A79D",
"C  c #BCAB9C",
"Z  c #B6A899",
"A  c #BFB29D",
"S  c #9C9EA2",
"D  c #9DA1A4",
"F  c #9FA3A8",
"G  c #A3A4A4",
"H  c #AAA5A2",
"J  c #A6A8A7",
"K  c #ADA9A6",
"L  c #A3A6AA",
"P  c #A5A9AC",
"I  c #ABACAC",
"U  c #A8A7A8",
"Y  c #B4ABA2",
"T  c #B9ADA2",
"R  c #B0A6A0",
"E  c #ACB0AE",
"W  c #BDB1A5",
"Q  c #B4B3AD",
"!  c #BCB3AB",
"~  c #B9B4AB",
"^  c #A6ACB1",
"/  c #ABAEB2",
"(  c #ADB1B5",
")  c #AFB4B9",
"_  c #AFB8BE",
"`  c #B3B4B4",
"'  c #B9B7B3",
"]  c #B5B8B6",
"[  c #BDBAB5",
"{  c #B2B6BA",
"}  c #B8B7B8",
"|  c #B4B9BD",
" . c #BBBCBB",
".. c #C1AA98",
"X. c #C1B49F",
"o. c #C2B4A6",
"O. c #C9B5A6",
"+. c #C3B6AB",
"@. c #C5BAAC",
"#. c #CABCAF",
"$. c #D0BAA8",
"%. c #C3BCB4",
"&. c #CCBDB2",
"*. c #C3BEBC",
"=. c #C8BFBA",
"-. c #C0B7B1",
";. c #BDC0BE",
":. c #D6C1AE",
">. c #C4C2BE",
",. c #CBC4BD",
"<. c #CBC2B5",
"1. c #D5C5B4",
"2. c #D3C6BD",
"3. c #D5CABD",
"4. c #DBCABB",
"5. c #DBCAB9",
"6. c #B6BCC2",
"7. c #BABEC2",
"8. c #C1BFC0",
"9. c #B5C0C6",
"0. c #BDC1C4",
"q. c #BDC4C9",
"w. c #BECACE",
"e. c #BFC9D0",
"r. c #C3C4C4",
"t. c #CBC6C3",
"y. c #C5C8C6",
"u. c #CCC9C5",
"i. c #C3C6CA",
"p. c #C5CACC",
"a. c #CBCCCC",
"s. c #C8C7C8",
"d. c #D0C7C2",
"f. c #D3CBC4",
"g. c #DBCDC2",
"h. c #D2CDCB",
"j. c #DBCFC8",
"k. c #CDD0CF",
"l. c #DDD1C4",
"z. c #D3D1CE",
"x. c #DDD4CC",
"c. c #D3D0C7",
"v. c #C5CDD2",
"b. c #CBCED1",
"n. c #D3CED0",
"m. c #C7D1D5",
"M. c #CDD2D4",
"N. c #CDD5DA",
"B. c #CED9DE",
"V. c #D3D4D4",
"C. c #DBD6D2",
"Z. c #D6D9D7",
"A. c #DCD9D5",
"S. c #D2D6DA",
"D. c #DCD7D9",
"F. c #D5DADC",
"G. c #DBDCDC",
"H. c #E3D4C4",
"J. c #E2D5CB",
"K. c #E5D9CC",
"L. c #E9DBCD",
"P. c #E4D8C7",
"I. c #E4DCD4",
"U. c #EADED4",
"Y. c #E2DEDB",
"T. c #E9DFD9",
"R. c #E1D7D1",
"E. c #DEE0DE",
"W. c #E5E1D7",
"Q. c #EBE1D6",
"!. c #E4E1DC",
"~. c #EBE3DC",
"^. c #EEE8DF",
"/. c #F0E6DE",
"(. c #F1E0D6",
"). c #CFDAE1",
"_. c #D5DDE2",
"`. c #DADEE2",
"'. c #E1DFE1",
"]. c #D6E1E4",
"[. c #DDE2E5",
"{. c #DDE4E9",
"}. c #DEE8EC",
"|. c #E3E4E4",
" X c #EAE6E2",
".X c #E5E8E7",
"XX c #ECE9E5",
"oX c #E2E6E9",
"OX c #E5E9EC",
"+X c #EBECEC",
"@X c #E8E7E8",
"#X c #F0E7E3",
"$X c #F1EAE4",
"%X c #F2EDEB",
"&X c #EEF0EE",
"*X c #F3F1EE",
"=X c #F8F6EF",
"-X c #E4ECF1",
";X c #ECEEF0",
":X c #EEF1F1",
">X c #EAF1F9",
",X c #F2F2F2",
"<X c #F9F6F2",
/* pixels */
"u.A. X'.OX X@X:X,XoX`.|.`.a.b.{.[.{.[.`.oXoX-X{.{._._.{.-X{._.`.{._.S.).'.{.oX'.|.`.`.`.oXoXG.G.'.t.Y.@X@XXX*X+X,X%XT.Y.T.T.4.l ",
"d.D.|.|.@XI.+X:X;X|.G.V.r.V.`._.F.`.`.`.{.{.`.{.{._._._._.`._._.)._._.`.`.`.`.'.[.`.F.[.'.oX'.`.@XG.t.G.+XXX+X%X=X#X~.T.T.U.g.V ",
"o.x.x.x. X+X&X*X+XV.u.>.h._._.D.S.F.F.[.{._.`.-X_.`.-X_.)._._.S.).S.S.).D._.`.`.G.[.F.`.`.|.'.'.[.Y.Y.a.G.+XXX*X=XXX X~.~.Q.J.W ",
"o.2.g.g.I.+X+X&X Xa.*.V.oX'.`.`.[.[.`._.[.{.oXoX`.{.-X{.`.`._._.`.N.N.s.8._.`._.G.[.[.`._.|.'.{.`.[.|.G.z. X+X+X%XXX~.K.U.~.J.@.",
",.f.g.J.R.~.&X&XXXt.C.C.D.|.oX@XoX`.[.[.{..XOX-X-X{.OX{.{.oX_.`.].F.E.M.n._.`.D.[.|.`.G.G.G.|.`. X[.!.G. XV..X*X%XXXY.U.H.K.J.@.",
"..f.J.Y. XW.!.A.~ f 0 w %.D.[.`.`.S.S.F.{.[.[..X`.`._.D.a.K t.' ,.] r.t.s.a.D.G.F.V.V.G.G.V.V.G.G.C.V.,.~ T T 3.I.$X~.~.T.U.x.Y ",
"C C.x.R.|.@XA.t.[ w > u k u.oX{.oX{.oX}.{.oX-X-X-X`.D.u.1 p ' }  .Q M s.V.S.[.OXoX[.oX[.|.oXoX+X XY.>.! ! T W 3.~.#X~.~./.$XQ.! ",
"%.j.j.x.!. X,.,.g.0 & =.*.I y.G.{.oX}._.].oX].[.).8.r.7 : < } S.0.Y u v V.D.`.{.|.[.oXoXoXoX[.|.a.' [ d.Y b <.W.~.#XT.T././.~.<.",
">.g.P.4.I.U.%.l.!.E.p 6 G.Z. . .y.y.Z.[.[.{.[.].S.a.%.< o = 1 i < , i n a.V.E.{.oX[.!.E.Z.t.t.>.*.|.T C ~ ! ~. Xx.T.I.~././.K.#.",
"3.:.5.:.o.%.u.I.!..XG.~ ]  .G.[.E.N.q.p.M.Z.N.N.M.M.*.- . ; f y ~ - 1 p >.M.F.oXoXOXY.y.*.n.V.G.+XV.[ >.z.Y.+X$XW.Y.~.~././.I.@.",
"e r Z X.l V x.t.I.+Xc.d.V.I ` F.E.}.OX0.;.p.v.Z.M.a.} $ . @ < 7 p + 1 p k.S.G.`.V.u.] y.|.OXOX[.r.>.C.|.@X X,X X X~.Q.~.~./.Q.@.",
"4 B W A l A <.3.XX&XY.b.b.V.t. .y.V.].].B.B.p.0.7.;.` 1   X $ 7 & o : ~ ;.y.` Q 8.a.V.@XoXV.y.~ >.G.|..X+X+X,XXX#X$Xx. X~.Q.Q.#.",
"z @.:.C V J.g.+.u.n.G.G.N.V.u.V.k.Q Q y.r.a.{.[.p.N.0.j O = u u N < i / | M.0.G.@X`.V.r.} ` h.D.G. XOX.XY.Y.@X X X%XI.~.#X/.L.&.",
"<.x.x.W t.%Xf.B b H 8.r.U G *.[ >.[ ~ >.Q n ` 0.0.| M.{ y H c a ~ [ D y.r.I V. .K n K [ =.>.u.u.d.t.,.<.u.-.+.,.Y.%XT.I.$X/.U.%.",
",.Y.x.<.Y.%XG.b 5 $ c t.H Q h.V.G.E.k.E M.E.a.( ( M.}.N.0.{.N.6.].S.;.E.[.y.V. .} t.u.] s.n.V.z.h.f.[ z ,.R V N I.%X#XJ.~.T.j.+.",
"h.!.A.C.XX+X|.*.v b U H d h s.G.|.|.G.;.y.p.M.E.N. .B.F.N.{.{.{.}.[.].[.k.I G.OX[._.G.V..X@XoX.X|.D.%.8 T m H 2. X%X#XT.T./.K.+.",
"h. XC.Y.oX@XG.|.<X+XF.V.p.g Q r.~ M ] r.y.r.' E ` n 0 V.>XOXOXN.{.-X-XE.K n >.E ~ ;. .8.u.a.a.*.' ,.u.h.C.C.T./.'.$X#X/.T.#X(.&.",
"d.W.t.Y.@X@XY.@X&XOX{.{.p.F B.E.k.a.G..X[.[.Z.a.y.a.* & r.M.y.` n Q y.a a k.Z.V.G.G.E.|.D.D.V.n.V.Y.+X%X:X'.@X'.#X*X#X#XR./.U.&.",
"t.f.%.T..X+X|.OX&X+X[.oXN.( N.{._.{.oXoXG.{.G.k.k.k.t 0 n  .| q.;.h ( ;.n V.G.E.G.{.oX|.oXoX'.'.@X+X+X;X,X@X+X#X'.,X+X%XR.(.U.&.",
"h.f.d. X X+X|.+X%XG.f.G.S.) q.E.[.[.[.{..X].[.Z.M.k.q.Z.}.}._.p.].].}.m.Q k.G.F.oX{.{.oXoXOXOX;X;XOX;X;X,X,X:X'.T.%X%X%XU.U.U.O.",
",.j.C.!.Y.@X!.|..X XC.u.u.y.M.F.E.[..X{.].[.[.E.N.m.y.M.]._.[._.].F.].;.;.G.G.[.[.G.OXoX`.OXOX-X;X;X;X:X*X:XXX'.#X%X%X#XU.R.(.&.",
"*.,.V. X`.@XG.|..X X.XG.G.G.[.oX].{.{.[.{.{.].S.Z.k.r.0.]._._.}.].].G.] ;.Z.E.{.|.[..XoX'.oXOXOX;XOX;X+X+X%X+X X'.<X%X#XD.J.(.O.",
"d.h.V. XG. XG.+XOX.X.XoXoX|.{.[.{..X[.[.]..X{.Z.N.p.y.^ m.B._.v.].p.p.E r.M.G.E.oX{.oXoX-XoXOXOX-XOX+X;X;X%XXX'.#X<X*X%X/.j.g.O.",
"h.h.D. X.X@XG.G. X|..X[.[.oX.X{.{.{.oX{.oX}.].G.G.k.p._ N.v.B.q.B.e.N.I y.N.F.[.{.oXoXoX'.OXOXOXOXOX;X+X+X:X%X|.'.*X#X#X#XK.j.o.",
"D.V.Y. X|.+XG.'.+X@XoXoXoXoXoXoX}.{.{.{.[.}.{.E.k.v.;.E B.B.v._ N.B.F.| p.m.E.E.`.{.[.oX{.'.oXoXOX;X;X;X:X:X%X XT.#X#X%X#XU.L.+.",
"D.h. X|..X@XG..X:X+XoXOXOXoX{.oXE.E.E.{.[.[.E.k.;.y.E g m.N.N._ m.B.p.F y.M.v.N.`.|.`.|.{.`.oXOX-X;XOX%X%X:X:X'.Y.<X%X<X%X(.U.+.",
"C.t.D.G.@X@XG.'.,XOXOX.XoXoX[.G.E.F.E.}.{.[.].N.k.a.( v.).m.B._._.N.N.J 0.M.k.Z.G.[.[.[.oXoXOXOXOX;X+X%X,X:X:X'.'.%X%X%X$XJ.U.o.",
"h.h.D.|.'.;XD.G.,XOX@X+X{.G._.`.].].E.v.m.[.E.F.Z.m.;.F._.B._.].}.B.N.] ;.p.Z.N._.`.`.{.{.oXoXoXOX;X+X:X:X:X,X+X'.%X$X*X$XU.j.R ",
"h.a.D.'.|.;X`.oX:X+XoXoX[.G.[.[.].[.E.m.M.E.F.E.F.p.D ].}.B.m.p.p.N.F.( E p.N.S._._.`.[.`.oX'.oXOX-X:X:X:X:X%XXX'.%X%X%X#XT.H.l ",
"C.s.n.'.'.+XD.oX:XOXOXOX[.{.oX[.[.[.[.}.{.].].F.F.9.) ].[.w.^ E S ) B.( E y.y.k.D.F.`.`.`.oX`.oXOX;X;X:X:X:X:X+X X<X#X%XT.x.R.Y ",
"n.h.s.Y.`.|.G.@X:X+X-XoXoX|.[.oX[..X{.{.].E.F.N.q.q.m.w.m.N.L F J p.m.w.;.] M.Z._._.{.`.-X`.'.-XOX;X;X;X;X:X,X+X@X%XXX%XR.R.R.T ",
"n.D.s.'.D.|.D.'.;X;X+XoXoX[.[.[.].[.].].B.N.m.y.] E.m.N.B.].^ / ] B.B.w.).( r.N.S.`.{.{.`.oXoXOX@XOX;X%X,X,X,X%X'.#X%X%XT.#XR.l ",
"n.'.8.D.'.@XD.oX+XOXOXoXoXoX{.[.`.{.`.).S.v.8.} 6.{.6.).).e.6.6.( e.m.9.].q.0.p.N.S._.[.{.{.[.oXOX;X;X,X,X,X:X+X X~. X$X~./.Q.! ",
"h.Y.u.h.|.|.G.@XOXoX{.oX[.`.[.[.`.`.`._.N.v.v.} e.{.e.).N.e.m.e._ q.).q.).v.] N.b.M.F.].[.|.`.OXOXOX+X;X:X,X,X+X X*XXX~.Q.$Xx.! ",
"t.D.Y.z.'.'.D.@XOX@XoXoXF.`.[.[.{.[.{.`._.S.b.7.)._.7.6.e.).6.6.m.9.B.9.N.m.E r.y.b.N.].[.[.oXOXOX-X;X+X&X:X,XXX XQ. XC.I.~.J.W ",
",.R. Xh.'.'.S.|.OXOXoXoX`.[.[._.[.{.{.`.F.v.i.{ ).).6.6.].{.6.6.].e.q.w.m.v.J ] a.a.F.[.[.[.[.@XOX;X:X:X,X:X<X&X!.f.2.R./.Q.x.T ",
"=.D.~.V.D.'.G.|.OXOXoX[.`.[.`._.[.oX{._.S.v.} ) )._.P b.}.).S 7.).).0.| N.F.J ] a.S.S.`.[.oXoXoX+X;X&X&X&X&X=XXXA.T.g.J./.(.l.W ",
"=.C.Y.D.u.!.D.|.+XoX{.|.{.].{.`.}.[.`._.N.6.U p.{.m.S i.].e.g 6.m._.q.S m.{.;.E V.S.G._.oX[.[.[.oXoX.X+X&X$X=X+XW.#XA.U.L.P.l.o.",
"=.f.C.I.d.Y.D.'.OX'.[.[.{._._.`.[.[.`._.m.^ ) ).v.L / ) ).8.F 6.m.).7.P | y.S.` a.V.G.G.`.[.[.|.oX+X+X+XXX$X=X.XW.I.z.Q.L.K.l.W ",
",.C.D.Y.A.C.A.`.;XoXoX`.`._.`.`.[.`._.).6.7.S.7.P ( { L m.).S 6.m.)./ ] ` 0.p.P y.F.G.`.`.[.{.[.oX+X+XoX+X%X=XXXY.C.I.~.~.P.l.N ",
"t.C.Y.'. XV.h.|.OX|.oX[._._.`.`.[._.N.{ | {._.^ 6.8.6.6.m.8.F 6.e.v.( p.P i.i.P ] V.G.G.[.[.[.|.oX@XOX+X+XXXXX&XA.!.#XQ.~.T.l.B ",
"h.R.Y.G.G.Y.r.G.OX@XoX[.`.`._.`.`.S.p.( `.oXi.| N.8.6.7.).6.F 8.B.v.L i.) ` S.S.n } G.S.F.E.[.|.|.[. X XXX&X<X$Xu.$XXX/.U.L.1.T ",
"h.Y.~. XG. Xn.V.+XOXOX[.`._.D.S.S.a.U ( `.{.6.7.v.).8.6.6.F ^ 6.q./ L q.| U b.b.t.G a.V.S.[.G.G.G.|..X+X&X&X<Xz.A.%X~.~.L.L.l.T ",
",.C. X XY.Y.G.V..X+XG.oX`._.N.p.r.7.G b.oXN.( p.8.8.6.8.v.6.6.v.v.P 6.M.p.S p.i.S.] ` a.u.S.G.G.|.|..X+X+X<XA.z.XX#X~.Q.L.H.g.T ",
"t.x.Y. XY.Y.C.G.Y.F.G.oX_.S.b.b.a.} U `.`.( i.N.b.6.^ N.N./ 6._._.6.7.b.v.L { F.M.y.G V.G.G.G.G.|.!.`.+X&X XG.XXY./.~.U.H.H.4.o.",
"<.J.G.!.!.Y.V. X+XS.oXOX|.D.S.i.8.I | OX` ( N._.v.6.) S.).6./ _._._ ) p.v.v.^ 8.V.V.] a.V.S.G.[.[..X.X+X!.G.=XXXI.#X/.T.P.L.g.R ",
"=.C.W.|.Y.G.C.D.+X[.b.oX{.F.b.i.{ S M.G./ b.)._.N.6./ S.).6.6.).m.6.6.m.N.b.i.P b.S.;.Q a.S.`.[.[.`.@X XZ.&X<XXXI.~.~.~.J.L.g.R ",
"t.x.I. X XY.V.G.+X@X|.V.D.S.n.s.i.I F.7.8.D._._.N.8.^ v._.6.^ v._.7.6.m.N.M.S.7.} V.M.I i.V.G.G.G.|.G.V.&X&X<X$XA.I.T.(.H.g.&.x ",
"f.R.W. X!.+XG.E.XX[..X@Xb.b.V.a.` I F.` V.F.`._.).i.) 6._.6.F ^ ).6.{ m.N.S.S.F.` 0.`.] 7.C.G.|.|.h.V.+X+X+X<XXXC.~.Q.~.H.1.2.b ",
"d.x.!.!..XXXG.E.&X.XoXoX|.V.| d n F.7.| F.`.{.{.`.b.( / {.8.^ ) ).6.8.b.S._._.F.a.I h.a.h Q U n *.V.@X@X+X%X=XXXA.^.~./.I.l.3.m ",
"2.x.Y.Y..X|.G.!.&XOXoX|.[.@X`.K G 0.` i.F.`.{._.`.N.7.L `.7.^ | ).) 6.v.N.S.S.M.a.' G a..Xr.D ] F.!.!.@X+X+X=X XW.$X~.~.R.J.2.l ",
"t.x.G. X!.!.G.C.&X.X.X.XG.`.G.oXb.I G 0.F.`.`._._.m.i./ 6.N.` { N.( ` v.b.N.S.S.M. .h M.` G y..X|.|. X XXXXX*XXXY.~.XX XT.H.2.c ",
"d.I.!.|.!. XG.E.&X|..X[.`.|.V.S.@X@Xi.q.S.`.`.{.`.).i.7.F b./ / i.7.S 6.a.F._.F.a.r./ `  .S.[.G.oX|.!.OXXXXX%X XY.#X#XXX~.J.%.c ",
"f.Y.~. XE.!.E.!.XXOXXX|.|.|.E.G.`.G.@XoX`.N.N.S._.).b.8.L S.6.j ) M.n.P U ] r.s.i.b.F.[.oXF.[.oXoX X|.+X+X+X<X XI./.~.T.T.H.#.k ",
"d.R.W.!.Y.G.C.C.XXG.Y.G.Z.D.G.G.G.G.S.D._.S.F.V.s./ ; @ % s s 3 / 7.8.7./ P S y.Z.G.D.Z.S.S.G.G.E.!.|..XXX X XC.f.U./.~.T.H.&.k ",
"<.x.W.Y.W.A.G.C.E.z.G.c.a.G.G.V.G.V.S.S.S.F.S.S.N.b.H 3 y S S P { 6.6.6.i.p.y.a.M.k.z.S.V.V.G.G.G.V.G.!.!.Y.W.Y.Y.~.T.U.L.5.O.l ",
",.x.W.G.^.E.!.^.$XXX.XE.E..X.X|.E.|.`.oXoXoXoX[.'.'.-XOX{.{.`.D.M._._._.D.b.S.`.G.G.G.[.E.|.[.G.G.oX.XXX+XXX*X=X%X~./.U.H.1.O.u ",
"f.x.I.W.XX^.E.A.E.!.!.Z.E.A.E.Z.G.V.[.S.G.[.oX[.'._.S.N.S.8.i.N.S.n.s.v.V.s.8.a.s.S.S.M.Z.a.h.t.V.G.!.!.~.XXC.C.T.Q.Q.Q.L.l.&.e ",
",.J.E.W.E.W.E.;.,.y.u.z.Z.z.E.k.G.a.S.y.F.F.[.G.`.`._.S.b.8.8.i.M.b.p.8.y.r.b.n.M.a.r.y.V.a.G.V.G.C.G.Y.c.a.R.,.d.~.T.U.P.l.O.e ",
"f.R.W.W.W.E.^.c.Z.c.k.!.&X.X.XOX@X.XoX{.oXoXoXS.b.S.S.8.m.b.V._.b.7.8.v.i.b.n.a.h.[ ~ S.[.|.G.Y.XX.X!.!.A.A.%Xf.g.~.U.L.P.K...6 ",
"3.x.K.W.^.E.^.XXXX+X=XXX|. XoX|.|.|.|.|.oXoX*.s L { ^ { } F / 7.| { U G I G U H H  .t.r.k.D.x.E.!.XXXX!.+X/.Q.=X/.~.Q.L.L.L.5.e ",
",.x.W.~.W.W.^.XX!.E.z.!.E.E.z.G.!.'.S.a.D.OX'.s.s.'.V.n._.`.`.S.a.M.S._.`.y.I r.V.a.t.s.Z.f.u.G.!.A.%.XXXXW.~.Y.W.L.P.P.L.L.5.q ",
"3.W.W.!.W.W.W.z.>.z.>.z.a.a.>.[ t.8.}  .s.M.p.} P 8.U j / n.p.7./ a.V.7.7. .I 8.E [ [ f u.>.Y Y ~ <.>.,.c.<.,.=.! J.P.Q.L.H.1.8 ",
"l.K.W.XX^.W.E.c.,.Z.G.XXh.>.Z.E.V.*.s.n.'.`.8.p.D.n./ / { s.8.p.8.S.G.7.K  .V.C. .r.M.,.>.[ [ c.,.@.A.A.!.c.C.$XI.~.^.^.(.K.1.9 "
};
