/* XPM */
static char *man[] = {
/* columns rows colors chars-per-pixel */
"70 70 200 2 ",
"   c #090200",
".  c #1A130E",
"X  c #1C1311",
"o  c #221511",
"O  c #2F2014",
"+  c #37261C",
"@  c #352D25",
"#  c #493B33",
"$  c #59483F",
"%  c #4B4142",
"&  c #584B42",
"*  c #5D5148",
"=  c #534E50",
"-  c #65534A",
";  c #675A55",
":  c #72625A",
">  c #7A695C",
",  c #655E60",
"<  c #716660",
"1  c #756A62",
"2  c #7B6E6A",
"3  c #7B726A",
"4  c #787069",
"5  c #7A7778",
"6  c #8A755A",
"7  c #87796D",
"8  c #8D7E75",
"9  c #857B78",
"0  c #947A6D",
"q  c #8B8074",
"w  c #878277",
"e  c #958879",
"r  c #A18C75",
"t  c #A6927E",
"y  c #848383",
"u  c #8A8887",
"i  c #958D83",
"p  c #9A8E83",
"a  c #948D8B",
"s  c #998D8A",
"d  c #95918C",
"f  c #9C938D",
"g  c #9D9388",
"h  c #8F9194",
"j  c #969A9B",
"k  c #9C9C9C",
"l  c #979595",
"z  c #A2968C",
"x  c #A4998D",
"c  c #A8998A",
"v  c #A39B94",
"b  c #AB9E93",
"n  c #A29E9B",
"m  c #A59790",
"M  c #9FA19F",
"N  c #B8A28D",
"B  c #B3A18B",
"V  c #ACA39B",
"C  c #AAA79B",
"Z  c #B0A094",
"A  c #B1A49C",
"S  c #B6AA9A",
"D  c #9B9FA2",
"F  c #969CA1",
"G  c #A19FA0",
"H  c #9DA1A3",
"J  c #9EA4AA",
"K  c #9EA8AB",
"L  c #A3A3A3",
"P  c #ABA7A4",
"I  c #ACA9A4",
"U  c #A3A6AA",
"Y  c #A5A9AD",
"T  c #AAACAC",
"R  c #B4ABA4",
"E  c #B9ADA3",
"W  c #B2AEAB",
"Q  c #ADB1AF",
"!  c #BCB1A5",
"~  c #B3B2AD",
"^  c #BCB3AB",
"/  c #A6ABB0",
"(  c #ABAEB2",
")  c #B2AFB1",
"_  c #ADB1B4",
"`  c #AEB4B9",
"'  c #B3B4B4",
"]  c #BBB6B3",
"[  c #B6B9B6",
"{  c #BDBAB5",
"}  c #B3B5BA",
"|  c #B5BABC",
" . c #BBBCBC",
".. c #C3B09D",
"X. c #C3B3A3",
"o. c #C3B6AB",
"O. c #C5BAAC",
"+. c #CABCAD",
"@. c #CAB6A9",
"#. c #D0BFAD",
"$. c #C3BBB4",
"%. c #CBBDB3",
"&. c #C3BEBB",
"*. c #C8BFBD",
"=. c #BEC1BE",
"-. c #CFC0AE",
";. c #C4C1BD",
":. c #CBC3BD",
">. c #CDC5B9",
",. c #D5C4B3",
"<. c #D3C6BB",
"1. c #D6CABD",
"2. c #DACABD",
"3. c #DAC9B6",
"4. c #AEBBC0",
"5. c #B6BCC2",
"6. c #BABEC2",
"7. c #B7C1C5",
"8. c #BCC1C4",
"9. c #BDC5CA",
"0. c #BDC9CD",
"q. c #C3C4C5",
"w. c #CBC6C2",
"e. c #C5C8C5",
"r. c #CCC9C5",
"t. c #C2C6CA",
"y. c #C5C9CC",
"u. c #CBCCCC",
"i. c #C8C7C8",
"p. c #D2CBC4",
"a. c #DACEC3",
"s. c #D2CECB",
"d. c #DBCFCC",
"f. c #D1C7C4",
"g. c #CDD0CF",
"h. c #DCD1C5",
"j. c #D4D1CE",
"k. c #DCD4CC",
"l. c #C4CCD1",
"z. c #CBCED2",
"x. c #D2CFD0",
"c. c #CDD1D4",
"v. c #CCD5DA",
"b. c #CED9DE",
"n. c #C7D3D7",
"m. c #D3D4D4",
"M. c #DBD6D3",
"N. c #D6D8D7",
"B. c #DCD9D5",
"V. c #D2D6DA",
"C. c #D9D6D9",
"Z. c #D5DADD",
"A. c #DBDCDC",
"S. c #E4D4C6",
"D. c #E2D6CB",
"F. c #E5D9CD",
"G. c #E9DCCE",
"H. c #E4D7C7",
"J. c #E0D7D0",
"K. c #E3DBD4",
"L. c #E9DED4",
"P. c #E2DEDA",
"I. c #E9DFD8",
"U. c #DEE0DF",
"Y. c #E6E0D6",
"T. c #EBE1D5",
"R. c #E4E1DD",
"E. c #EBE3DC",
"W. c #E8E8DC",
"Q. c #F0E6DD",
"!. c #CFDAE1",
"~. c #D5DCE2",
"^. c #DADEE2",
"/. c #D7DFE9",
"(. c #E4DFE2",
"). c #D5E0E5",
"_. c #DCE2E4",
"`. c #DDE4E9",
"'. c #DEE9EC",
"]. c #DFE9F0",
"[. c #E3E4E4",
"{. c #EAE6E3",
"}. c #E6E8E6",
"|. c #ECE9E5",
" X c #E2E6E9",
".X c #E8E7E8",
"XX c #E5E9EB",
"oX c #EBECEC",
"OX c #F0E7E1",
"+X c #F1EAE4",
"@X c #F2EDEB",
"#X c #EEF0EE",
"$X c #F3F1ED",
"%X c #F9F3EC",
"&X c #EBEEF0",
"*X c #E4EBF1",
"=X c #F0EFF1",
"-X c #EEF1F1",
";X c #F2F2F1",
":X c #F8F4F1",
/* pixels */
"r.B.(.(..X.X[.=X-X;X[.^.[.[.c.t.^.). X`.[.^. X*X X`.]./.~./. X'.`.^./.(.~.v.V.~.[._. X[.^.^.^.^. X(.^.A.P.m.p.{.[.{.@X$XoX$X$XOXP.I.L.I.<.c ",
"w.K.P.[. XR.K.=X&X&X_.A.C.i.z.A.^.~.^.^.^.^.'.`./. X/.^.~.~.~.^./.~.~.~.~.~.^./._.).B.`._.^.Z._. X X(.A.[..Xu.i..X{.|.oX@X;X@XE.I.I.I.L.1.Z ",
"X.k.A.M.[.{.oX#X;XoXC.m.;.q.V.A.A.V.V.Z.~.~._.~./. X/.^.`./.!.~.^./.~.v.~.~.~.~.Z.^.~.^.^.^.V.A. X[.[._.[.^.[.C.u.{..X|.@X:X@X{.E.Q.L.L.a.E ",
"! 2.a.<.F.|.#X#X#XP.r. .u.(.^.^.Z.^.^.^.Z.^.`._./.XX^.^.*X`._._.~.~.V.~.v.v.c.*.m.^.^.A.^.^.^.^.A.^.(.^._.A.A.[.N.j.oX|.@X=X@XW.I.D.Q.Q.D.o.",
"%.<.p.S.J.I.oX;X#X|.j.j.A.^.[..X[.&X_.`._._.`. X&X&XXX X*XXX_._. X)._.).~.~.v.w.Z.^.^.A.`. X`.U.A._. X X[. X.X^.R.A.N.oX@X=X@XE.I.F.D.I.h.o.",
"$.p.a.D.R.D.|.R.W.:.R ] ^ w.C.[._._.A.V.~.A.}._.^. X[.~.`.^.A.^.z.c.z.m.i.V.i.z.u.N.B.Z.Z.B.N.Z.B.m.m.B.A.A.m.B.m.j.w.:.[.I.+XE.I.L.F.J.a.^ ",
"N a.J.J.oXP.{.j.j.C f ; 1 V p.[.[._.^.~.~.).`.`.XX X X`.^.Z.u.d V  .I $.T R f.u.u.m.^._.A.A.A.A.^.^.A.^.P.P.A.f.! S A Z +.k.@X{.OXE.I.Q.J.R ",
"E d.J.d.(.[.{.:.w.$.3 1 ^ s R _.). X X'.*X_.`. XXX*X X!.m.s.i 1 z q.u.e.=.V P m.m.^. XXX X X X_. XXX`.XX.XA.f.{ $.] ! o.S.K.@XI.E.E.Q.+XL.o.",
">.s.k.h.Y.R.K.^ B.>.x $ S A.~ [ u.Z.). X).~.). X).U.A.y.q.V - ; ; ' =.T m f u r.m.A._.`._._.[..X`..XA.A.s.{ [ $.>.S z ;.T.K.+XT.I.I.OXQ.L.%.",
";.h.H.2.h.F.j.O.G.|.[.I 3 r.A.j.} e.r.e.N.)._.`.).).b.g.u.A & o 7 < f 1 : 9 g { c.Z._.[.[.[.[.A.j.w.$.:.&.B.[.c ] ~ :.{.|.k.J.Y.I.Q.OXQ.D.@.",
"<.@.3.3.o.! :.s.W.U.}.U.&.[ [ g.#XA._.c.q.y.c.c.N.c.c.g.m.s # X 9 a y $.> ; p ~ c.m._. XXX.XA.q. .m.A.A.&X.X;.;.w.M.R.|.$XT.R.E.Q.I.Q.Q.L.o.",
"e r N S S e a.w.p.Y.oXp.<.V.[ L y.U.U.XX X| =.0.l.Z.c.u.u.u @ . $ 4 9 n @ 1 w =.c.N.A.[.s.w.' q..XXX.X.Xm.[ u.A.[.{.|.$X{.R.+XY.I.I.Q.OXK.o.",
"6 B ....S c +.+.k..X@XA.u.z.z.u.=. .c.).`.U.Z.Z.y.8.6.q.' P #   @ & e * o - v y. .q.W ' &.u.m. XXX^.s.| ] s.U.R.}..XoX;XoXR.%Xk.(.Q.I.I.L.@.",
"t ..-.X.Z o.F.%.,.M.C.(.^.V.V.f.j.g.;.I | y.i.v.}.~.9.V.8.} ; X < 8 e b ; 3 ~ / c.u. .^.[._.A.i. .T &.f.m.B.[.}..X[..XoX$XE.%XR.K.OXOXI.J.@.",
"o.j.k.-.^ J.+X^ A n ] q.i.| T &.;.;.j.R { e.R C =.Z.c.| t.z.u 5 a f n R ] L T i.Q | m.t.=.) ~ { &.:.m.m.m.B.j.k.r.:.$.$.h.P.|.OXK.OXOXQ.L.%.",
":.K.B.O.w.{.;X$.A 8 : W f.P k  .w.e.e.e.[ T e.y.| k Y 8.Z.~.9.8.~.} G v.V._ u.XX8.g.u.C n P ] W &.q.:.w.:.$.] V o.j.^ E A >.$X{.K.K.OXL.d.o.",
"w.K.P.f.I..X=Xs.f : 1 f ~ k Y m.R.oX#X-XU.e.N.).`.^.c.8._.).0.c.'.`._.'.U.b.N.'.e. .[.XXXX[.[.g.A.XX[..XoX.X{.o.0 R m v E J.@X@X(.L.Q.I.a.o.",
"s.W.P.m.oX.XoXA.U.U.A.e.' Q u M q.r.;.;.=._  .{ [ =.i.| k c.`.`.'.`.).`._.'.}.g.C [ m.e.=.q.q.q.Z.A.A.Z.i.;.&.R Z *.$.*.K.P.+X{.+XI.Q.Q.L.@.",
"s.[.M.C.{.[.{.m.#X#X#X_._.A.J } u.e.^ ~ i.B.N.N.g.[ ~ [ i > A.XX X'.9.g.'.-Xm.M L  .{ [ e.e.e.j.r.w.w.&. .p.M.{.|.{.(.{.+XP.@X+XOXE.I.OXJ.%.",
">.K.%.d..X.XoX^.#X#XXX_.`.c.J y.`.A.c.). X.X_.).N.g.g.N.C + 2 ~ ;.) ~ f a T M w =.A.A.R._.[..X X_._.[.N.m.A.(..X&X=XA.{.oX(.:X|.OXOXD.OXL.%.",
"f.s.o.P.{.[.oX[.-X#XoXA. X_.` 7.`.).`. X'.[.A.`.U.c.g.g.' l Q =.y.l.y.V.` 7.Z.T =.N.N.U.^._. X[.[.}..XXXXX&XoX&X=X=X@XoX.XP.@X=X@XOXD.Q.J.@.",
"f.d.*.I..X.XoXU.#X.XB.1.m.V. .| N.U._._.`.`. X_._.N.c.c.g.8.).'.'.b.t.~.).).Z.T :.N.A.). X[. X X XXXXXXXXX&XoX&X=X=X=X=X(.P.+X@X@X@XD.I.F.@.",
"&.M.j.{.R.[.}.A..X{.[.B.s.w.i.y.Z.A._.`.'.`._._._._.N.g.g.8.U.!.).).~._.Z.).u.[ j.A.).[.^._. X X_.[.XXXXXX&X&X=X=X=X=X.X{.(.=X@X+XOXd.L.L.@.",
"&.:.p.[.R.[.{.N.{.[.[..X[.A.U.^.`._._.}.`._._.`._.Z.b.c.y.=.n.)././.'.`.).Z.q.' g.Z.). X[._.}. X_..X XXXXX&X&X&XoX=X=XoX+XP.%X@X@XOXD.L.I.@.",
"f.s.f..XR.[.[.A.$X.X.X}.[.}.`.}.`._.`.`._._.'.'._.b.m.g.y.=._ !.v.~.z.).l.v.'  .g.N.A.). X`. XXX X XXX*X*XoXXXoX&X=XoX|.{.(.:X@X@X@XL.D.a.X.",
"f.x.M.[.[.[.[.m..X[.[.}._.`.`. X}._._.XX_._._.}._.U.Z.c.y.=.| b.l.!.6.!.9.b.( [ g.c.A._.`. X X X X XXXXXXX*XoX&X|.oX@XoX|.P.=X@X+X+XI.D.2.X.",
"C.s.B.{.[.{..XC..X{.}.}.`.[. X X}.`.'.`.}.`._.'.`.U.N.c.g._ 0.b.v.l.6.!.v.).6.q.c.b.).A.`.[.`.[. X/. X`.XXoX&X&X&X@X=X=X{.A.@X{.+X@XE.L.F.o.",
"B.j.P..X[..X.XC.oX#XXX XoXXX X X`.}._._._.'._._.).N.e.=.e.l _ b.v.l./ !.v.Z.(  .g.c.m.Z.).[._._.^.^. X XXX&X&XoX=X=X&X@X{.M.@X@X@X:XOXL.F.o.",
"B.w.C.(.[..X[.V.oX-X XXX XXX X_.)._.Z.Z.).`._._.U.v.u.y.=.L 0.n.n.Z.n.b.v.v.Y ' u.c.g.Z.A. X[._. X(. XXXXX&X&XoX;X;X=X&X{.C.@X@X@X%XOXF.K.o.",
"m.f.x.(.(..X.Xm..X-XoXXXXX X_.).).A.U.A._.`._._.U.U.c.c.8.=.`.v.b.~.).).b.v.=.Q c.c.c.Z.~._._.`. X XXXXXXX&X&XoXoX;X=X=X&XP.@X+X%X@XI.F.F.E ",
"f.x.C.{.(..XoXx.XX-X&X XXX[.^.U.U._.)._.c.8.y.).!.U.b.c.=.9.`.).V.~.!.!.b.Z.7._ 8.c.m.V.~.A.^._.`. X X X XXXoX.X;X-X=X@X=XP.=X@X%X@XQ.L.2.b ",
"x.s.s.[.[.[.&XC.&XoXXX[..X_.A._.U._.`.).`.U.U.!.U.b.b.b.K =.'.).l.0.=.8.9.).8.L t.u.c.V.~.~.~.^.`.(.^. XXXXX-X-X-X#X=X=X@XP.@X@X@X@XI.T.d.z ",
"m.x.&.(.(.[..Xm.-XoXXX&XXX_._..X[.`.)._.`.`. X).~.Z.Z.t.} l.!./.5.U Y M U Z.| _ | e.y.c.N.Z.)._.[._.`. X X&XXX&X&X=X&XoX;X(.;X@X{.%Xd.J.S.^ ",
"f.M.q.C.A.^.[.C.#X-XoXoX X X X_.`.`.[.}._.`.).~.A.c.y.5.~.t.n.z.v.H U Y y.v.7.n.T u.N.Z.A.)._.)._.[._. XoX*X&X&X&X&X;X;X;XP.=X|.@X@Xd.I.d.A ",
"x.C.i.P.^.A.[.m.XXoX&XXX X`.`._._._.[.).).).v.V.n.t. .l.~.l.!.!.!.K ` ` b.!.0.b.0.` g.c.Z.)._.[.^. X X XoXXX&X&X;X;X;X;X=X(.|.+X@X+XT.Q.a.z ",
"x.(.i.x.(.(..XC.&XXXoXXX X X X[._._._.).).m.v.z.q.6._ ~.n.t.!./.0.5.K _ y.n.0.l.!.[ e.u.m.V.).). X`.[._. XoX&X&X&X;X;X=X=X{.{.I.+X{.W.Q.K.^ ",
"s.^.s.&.[.[.(.Z.oX X X X X X^._._._.U.).).~.c.y.t.6.| ).z.l./.l.l.n.0.4.7.!.0.l.).| q.c.c.c.A.~.`. X^.[.XXXX&XoX-X-X;X;X@X[.@X{.|.E.E.OXk.^ ",
"f.d.(.f.(.(.P.A.&XXX`. X XZ.V.`.)._.)._.`.).~.Z.c.5.c._.!.9.6.l.!.0.5.n.` !.7.l.b.| [ c.i.c.c.).).^.^.XX*XXX&XoX#X-X;X;X@X(.+XP.@Xp.E.E.k.E ",
":.M.{.s.C.(.A.m.oXXXXX X X^._.[.)._._.[.`.^.~.z.y.} V.~.l.J 9./.).4.5./.0.l.0.l.n.=.Y =.y.l.Z.)._.^._. XoX X&X-X-X;X;X:X$XR.T.:.J.J.E.T.S.S ",
"&.M.(.K.m.{.(.C.XX.XXX X_._._._.Z.A.`. X`.~.b.l.w.( c.v.t./ /.!.~.h 0.!.!.7.7.l.~.| L =.c.m.Z.).[. X X XXX&X&X&X#X$X;X$X@XP.M.a.1.Q.Q.T.2.R ",
"*.M.P.(.f.P.A.C.oX.X X X^.^._._.). X`.`.^.~.c.t.( ) ~.].5.U /./.l.h y.b.!.v.D y.~.V.L q.c.Z.Z.A._. X X[. X}.}.oXoX#X#X$X$XK.W.W.a.I.T.G.a.! ",
"*.f.M.P.f.m.(.m.oXXX`._. X X).~.^.`.[._.).^.v.` J z./.l./ U v.v.9.j | l.!.n.D } z.^.' | m.V.A.A._._._.).`.XXXXoX|.@X@X$X$XU.+Xk.K.L.G.S.a.! ",
"$.f.B.J.P.p.{.x..X.X`.(.^.).).^.~.).[.).~.~.l.Y 6.v.l.F ) U 6.v.n.j | n.!.6.) (  .y.V.( u.N.A.A.^.^.`.[.XXXXoXoX|.|.@X$X$XB.Q.1.Q.G.L.J.a.S ",
":.B.P.A.P.s.K.m.XXXX X X^.^.^.).)._._.A.~.l.( z.C.6.J } 6.( 4.C.l.F 7.l././  .T 8.q. .G m.m.A.)._._.[.).}.}..X.XXX#X@X@X$XR.B.B.(.Q.T.S.2.b ",
"f.M.P.P.[.P.u.m.oX X X_.^.~.~.~.^._.^.V.z./ 9.)./.) 5.t.5.( 6.v.5.D t.0.v._ t.5.Y c.y.U [ m.A.~.^._.^.[.[.[.XXXX.XoXoX{.$XB.P.|.OXI.L.L.a.Z ",
"p.P.P.P.P.P.C.&.XXXX X X X(.^.~.~.^.~.V.6.}  XXXt.4.z.t.l.5.n.V.` U l.b.n.U  .6.U i.c.m.k ;.B.m.A.).[.^.[._.[..X}.|.#X:X:Xw.{.|.+XT.L.S.<.S ",
"p.P.(.{.P.A..Xi.(.oXXXXX^.^.^.~.V.V.z.i.j 5.^. X6.5.9.z.z.4.6.( J / 5.9.` D 6.t.U  .y.c. .V u.m.m.A.A.B.A.R.[..XoX$X#X:XU.f.%XE.Q.L.G.S.a.S ",
"*.M.P.{.(.P.(.m.m.oX.X(.XX^.~.V.z.y.q.| L ~._.Z.( t.l.z.6.( V.5.` ` v.l./ _ z.n.( Y V.8.A.T ' z.u.c.A.A.U.[..X{.oX#X:XR.r.W.|.Q.Q.T.S.S.2.E ",
":.M.K.[.R.P.P.s.[.A.A.Z.XX).Z.u.z.u.q.) (  X(.} 6.c.c.l./ 5.!.l./ } !.V.5.5.z.z.} D l.m.m.8.L u.m.A.Z.^.U..XA.[..X;X#Xk.|.R.Q.Q.T.K.S.S.,.E ",
"*.k.K.R.[.P.P.m.|.[.m..X[.[.Z.V.m.t.q.U q. X} Y v.~.z.t./ i.!.V./ 5./.~.5.` 9.l.t.} ( V.u.m.' m.V.B.A.A.U.[.}.[..X.XN.$X#XB.|.W.T.F.F.F.1.R ",
"%.K.P.P.R.B.P.s..XoXZ.c.oX[.^.V.t. .T n ^.^.Y y.v.~.!.t.Y l.V.!./ 5./.v.6._ t.v.b.z.T } Z.m. .' u.m.^._._._.[..XoXj.}.;X$XK.Q.Q.OXL.D.G.a.R ",
":.j.K.R.{.A.P.j.R.XX.XA.V.[.V.z.i.t.' T (.| 5.m.^.~.c.y./ 6.~.!.( 5.~.!.9.5.v.v.v.z.u._ u.c.u.T t.m.Z.A._.U.[.[.j.oX;X$X%XB.Y.K.Q.L.S.h.%.m ",
"f.k.K.R.{.|.[.s..XXX`..X^.u.B.Z.z.i.| 6.Z.T m.Z./.~.V.y.5./ n.V./ / 5.V.9./ l.c.v.b.Z.q.( m.B.T q.m.A.`.[.[.A.m..X#X#X$X$Xk.Y.Y.I.I.3.3.%.g ",
"f.B.P.R.[.R.{.m.}..X X[.XX^.u.t.i.' k u.q.| Z.~./.^.^.z.6./ 0./.` U / V.5.5.l.v.V.V.V.Z.' ' _.t.P w.u.u.m.u.u.}.{.oX#X$X$Xk.E.R.I.OX2.3.<.V ",
">.k.P.R.|..X.Xm..XoX.X X[.[.[.y.k y q.[.U t.~._./.^.^.~.t.G 6.(.5./ 5.v.5.5.z.n.~.~.~.m.u.W =.u.U W P d P z.R.{..XoX#X$X$XB.{.Q.{.I.J.D.<.b ",
":.D.P.P.R.W.[.m..X#X.X[. X_.[.XXm.' U ' ' z.v.^. X~./.Z.l.} _ ].4.( 4.V.5.` y.z.V.V.V.z.i.[ k u.oXm.J  .B.[.R.R.{.oX$X$X+XK.OX{.OXI.G.S.*.g ",
"w.k.J.[.}.R.}.j.[.#X}. XXXA.^.Z.A._.u.T H t.~.^./././.x.l.9.G l.t.) } z.5.U l.t.v.c.V.V.z. .k m.T k  .[.A.[.R.[.{.|.#X$X@XY.W.{.+X{.K.S.%.m ",
"r.K.R.R.[.R.}.m.}.{.[.}.[.U.[.Z.m.A.XX[.w.y.V.^.(./.(.~.i.9.` Y z./ ` 6.t.D ` 8.m.A.^.V.t.q._ _ 8.Z.`.^._..X[.[.oX|.|.$X|.B.OX{.OX{.T.k.o.z ",
"p.K.[.W.R.R.W.m.|.{.XX}.[.[.[.U.U._.^.^.XX X).c.z.V.~.~.z.c.` ( ^.} l ) z.C.( G '  .u.q.t.z.Z._.[.Z.).[.XXXX[..X|.oXoX:X@XB.Q.E.{.T.L.h.+.f ",
"f.B.K.T.R.B.R.j.[.|.W.[.U.N.B.A.U.A.A.A.Z.A._.m.~.V.9.l.9 ; % y j j 5 4.9.l.i.5.Y k U m.B._.B.A.A.Z.^.A.U.R.R..X}.oX|.{.P.p.D.E.E.T.L.h.%.p ",
"%.k.K.R.R.K.B.j.B.k.j.m.u.e.M.B.m.m.m.m.m.m.V.v.V.V.z.v.G 2 = 5 u h F ( } ( / } t.8.8.z.u.g.u.m.c.g.m.M.A.C.m.A.[.R.K.Y.K.D.E.T.T.L.G.,.+.x ",
"-.k.P.B.R.R.R.{.}.|.}.}.U.M.XXXX[.U.U.U.^./. X X/.^./.^. X.X/./.~.C.V.x.V.~.C.~.c.c.A.A.A.A.A.^._.U.[.U.A.U.[.R.{..X{.@X@X@XE.E.Q.G.2.,...e ",
"<.F.K.R.|.R.R.}.}.|.}.W.U.R.[.[.[._.^.^.[. X(. X*X(.(.(.^.^.C.~.z.V.v.c.V.x.x.~.m.i.z.m.c.B.A.Z.A.B.N.j.j.A.W.}.{.oX+X|.{.OXE.E.E.G.H.1.o.e ",
"w.B.J.P.|.R.W.j.;.p.M.B.e.N.q.R.u.m.x.u.m.6.~.V.~.C.~.~.v.z.z.6.5.6.i.v.x.6.6.i.y.| w.q.t.c.y.8.m.q.u.u.r.A.g.U.M.M.B.s.:.f.E.L.T.G.G.2.-.e ",
">.M.Y.R.R.Y.Y.M.{ p.=.;.U.W.[.U.U.[.U.A.^.A._._.XX X(.(./.^.^.V.V.V.x.x.l.c.z.x.z.m.m.C.A.q.] m.A.^.R.(.[.[.R.[.A.j.w.@Xk.] E.T.T.H.G.2.N q ",
"f.D.J.Y.R.Y.Y.|.U.W.U.W.U.}..X{.}.}.}. X[._.[. XV.6.( q.6.( 5.} } t.V.8.} / ` 6.} q. .] ] ] &.u.B.A.C.N.R.[.}.R.P.|.E.E.R.k.T.T.T.S.G.S...q ",
":.k.F.Y.T.R.R.|.#X|.|.@X|.}.[.[.[..X[.[.^.[. X.Xw.k n q.) q.q.8./ 5.5.6.q.} ( / | j T G ] =.w.r.z.B.m.P.R.R.|.R.|.|.T.T.$X+XW.E.T.G.G.H.3.e ",
"1.k.Y.R.W.K.W.Q.W.k.U.e.A.B.U.u.u.B.B.A.u.t.m..XoXc.q.^.^.z.t.(.(.(.~.t.V.V.(.(.C.&.' M.x.u.q.q.j.s.&.p.k.R.:.{ +XW.K.T.k.k.D.S.H.K.G.G.,.e ",
"p.F.Y.W.W.Y.W.M.r.{ k.;.B.r.e.e.{ ;.;.[ ' 6.u.u.q.6.G 6.T k l } i.t.} U i.x.q.( &.( '  .L |  .d =.r.R R C R :.:.;.1.$.;.f.C h.S.T.T.G.h.#.7 ",
"1.k.Y.W.|.Y.W.B.j.e.U.U.|.M.;.m.U.}.r.q.u.m..X(.q.i.C.^.| [ P 8.6.u.i.q.~.^.i.W ' u.B.C.[ i.V.f.>.{ =.p.K.$.:.B.R.|.j.k.%XR.E.E.Q.Q.G.S.#.0 "
};
