/* XPM */
static char *picasso[] = {
/* columns rows colors chars-per-pixel */
"64 64 254 2 ",
"   c #0B0E07",
".  c #0C0E09",
"X  c #050B06",
"o  c #0D110B",
"O  c #0B1007",
"+  c #15160D",
"@  c #0C1616",
"#  c #141612",
"$  c #171812",
"%  c #191A14",
"&  c #121C1C",
"*  c #1C1D19",
"=  c #251A19",
"-  c #381C16",
";  c #2F1C0E",
":  c #1B241C",
">  c #1C200D",
",  c #272519",
"<  c #382619",
"1  c #30361B",
"2  c #0C1B26",
"3  c #131B27",
"4  c #0A1A38",
"5  c #161D31",
"6  c #241B28",
"7  c #311D2B",
"8  c #172628",
"9  c #1B2D3C",
"0  c #152736",
"q  c #1B3338",
"w  c #0F242C",
"e  c #252928",
"r  c #372628",
"t  c #28352C",
"y  c #282938",
"u  c #352736",
"i  c #273839",
"p  c #363A37",
"a  c #363625",
"s  c #492517",
"d  c #582A19",
"f  c #4C341B",
"g  c #672C18",
"h  c #75341E",
"j  c #6C321B",
"k  c #492826",
"l  c #572B23",
"z  c #553627",
"x  c #483839",
"c  c #4D3330",
"v  c #693627",
"b  c #753A28",
"n  c #6C352D",
"m  c #431D13",
"M  c #3A442B",
"N  c #374439",
"B  c #2F4636",
"V  c #54481C",
"C  c #464729",
"Z  c #56462C",
"A  c #47493A",
"S  c #545235",
"D  c #694936",
"F  c #70512D",
"G  c #676337",
"H  c #796739",
"J  c #746C31",
"K  c #5C6239",
"L  c #051C51",
"P  c #162A45",
"I  c #193347",
"U  c #173154",
"Y  c #382946",
"T  c #273744",
"R  c #2D3349",
"E  c #0C2566",
"W  c #1E2D66",
"Q  c #442C47",
"!  c #46384A",
"~  c #4A345A",
"^  c #53374F",
"/  c #733E55",
"(  c #5D3C6B",
")  c #583965",
"_  c #543B70",
"`  c #633C6C",
"'  c #653C72",
"]  c #2B4747",
"[  c #394745",
"{  c #375055",
"}  c #365070",
"|  c #336260",
" . c #474847",
".. c #585747",
"X. c #444955",
"o. c #475959",
"O. c #575957",
"+. c #544F4D",
"@. c #784B4C",
"#. c #655855",
"$. c #725050",
"%. c #546955",
"&. c #6F6C50",
"*. c #5A4E6C",
"=. c #6A4466",
"-. c #754466",
";. c #674374",
":. c #65586C",
">. c #5D636A",
",. c #4A706A",
"<. c #686967",
"1. c #687569",
"2. c #72706F",
"3. c #873A24",
"4. c #933E2A",
"5. c #90361A",
"6. c #86412A",
"7. c #924737",
"8. c #A84B37",
"9. c #A74C2F",
"0. c #897635",
"q. c #977B37",
"w. c #876B30",
"e. c #A97533",
"r. c #8C4B4F",
"t. c #AB5049",
"y. c #8E6F4E",
"u. c #A97150",
"i. c #89736F",
"p. c #B47172",
"a. c #864E67",
"s. c #7C813F",
"d. c #739276",
"f. c #6C855B",
"g. c #9A8638",
"h. c #9A953D",
"j. c #A9943C",
"k. c #B0913C",
"l. c #BCA03A",
"z. c #CDA23E",
"x. c #D9A43D",
"c. c #958D4D",
"v. c #A69745",
"b. c #B09550",
"n. c #B7A552",
"m. c #909072",
"M. c #B68A78",
"N. c #BA9778",
"B. c #B5936E",
"V. c #94A369",
"C. c #B2AA6D",
"Z. c #C69B4A",
"A. c #C9A847",
"S. c #D8AA46",
"D. c #DAB748",
"F. c #C9A856",
"G. c #CBB758",
"H. c #D6B755",
"J. c #CCAF49",
"K. c #E3BD4A",
"L. c #E6B946",
"P. c #E2AC48",
"I. c #C49B6E",
"U. c #CDB26D",
"Y. c #E6C24B",
"T. c #EBC44B",
"R. c #EAC448",
"E. c #F4CB4B",
"W. c #E9C754",
"Q. c #F3CD51",
"!. c #F8D251",
"~. c #DBC36D",
"^. c #E7C969",
"/. c #DDC153",
"(. c #54698F",
"). c #737A87",
"_. c #4875AD",
"`. c #738B8D",
"'. c #7B89A2",
"]. c #8A8884",
"[. c #978889",
"{. c #95948B",
"}. c #989999",
"|. c #8A9392",
" X c #BB9688",
".X c #A39B99",
"XX c #BE9C95",
"oX c #B28C86",
"OX c #8DA78F",
"+X c #B7A79A",
"@X c #B8B49C",
"#X c #AEA791",
"$X c #8B96A7",
"%X c #979AAA",
"&X c #939DB5",
"*X c #8994AF",
"=X c #9AA4B9",
"-X c #9AA2AB",
";X c #A4A6A8",
":X c #A8B6A6",
">X c #B8B5A8",
",X c #A5ABBA",
"<X c #ACB2BA",
"1X c #B8B9B8",
"2X c #B9ABA7",
"3X c #A09DA4",
"4X c #C1958C",
"5X c #C6B998",
"6X c #C8B18E",
"7X c #C8B9A7",
"8X c #C7BBB5",
"9X c #C8A9A6",
"0X c #B9C2B8",
"qX c #D3C390",
"wX c #C4C4BC",
"eX c #CBC5BC",
"rX c #C8C5B7",
"tX c #D3C4B5",
"yX c #D4C6BA",
"uX c #D5CABC",
"iX c #DACBBD",
"pX c #D8CAB8",
"aX c #D2C5AA",
"sX c #E4D6AA",
"dX c #EADA87",
"fX c #A7AEC1",
"gX c #ACB3C1",
"hX c #B7BAC4",
"jX c #C0BEC1",
"kX c #BEC1C6",
"lX c #C3C4C4",
"zX c #CCCBC4",
"xX c #C4C6CB",
"cX c #CCCCCB",
"vX c #C7C8C7",
"bX c #D5CCC4",
"nX c #D9CDC3",
"mX c #D3CEC9",
"MX c #D8CEC8",
"NX c #D4D2CC",
"BX c #DBD3CC",
"VX c #D9D4C9",
"CX c #CCCDD1",
"ZX c #C7C6D0",
"AX c #D3D3D2",
"SX c #DBD6D1",
"DX c #DDDAD3",
"FX c #DCDCD8",
"GX c #CED0D1",
"HX c #E1DCD5",
"JX c #E1DED8",
"KX c #E0D7D0",
"LX c #E6E3DA",
"PX c #EBE4E1",
/* pixels */
"BXbXNXHXwXAXFXwXDXDXJXMX2X<.+.S X.9 0 U P P 4 y p R &.Z.N ] o.o.%.{ >.+XbXBXeXSXnX7XHXnXyXSXiXMXSXVXbXmXrXbXmXDX%X'.kXCXhXfX=X&X",
"DXzXNXHXwXNXDXeXDXDX8Xi.x x R R U 4 4 0 5 5 9 y y a e y f.`.d.1.>.<.X.O.7XeX8XMXnX5XKXnXbXMXbXBXKXnXbXMXeXzXAXJX%X'.*X=XfXfXkXCX",
"DXbXzXDXwXDXDXeXBXaX$.A N P 0 4 0 U I U U P 0 w e p e [ `.A : 1 C K J %.i.M.yXBXiX7XBXbXiXBXbXMXSXbXnXBXbXzXBXHX%X).hXFXPXPXPXAX",
"DXzXmXDXwXSXDXwX0Xi.x p 9 9 0 9 9 q 0 8 & t q 3 w q M [ B 1 M e i o.A G O.[.7XMXbXtXSXuXyXBXyXMXSXbXbXBXbXbXDXJX$X$XZXZXgXfX=X=X",
"DXzXNXDXrXzXNXlX&XX.i 4 { I 0 0 q 0 : & q B ] ] q G S 9 [ &.F H B o.(.T  . .m.nXbXiXSXyXyXBXuXMXBXbXbXSXnXbXDXJX&X'.&X&X=XkXkXGX",
"HXeXzXAXrXNXcXhX].[ U ] 4 2 U I 8 3 2 8 ] ] { i J J B q  .~.6X8.H t N `.X. .+.KXbXtXMXiXbXBXyXMXBXbXnXSXbXyXBXHX&X=XZXFXPXLXFXxX",
"DXrXzXzX0XGXNX,X$.R { 2 0 U w : 8 @ @ 8 t w M s.f.: [ I ..W.rX@X9.G % A d.>. .+XiXyXmXyXbXBXtXMXMXyXnXSXbXbXKXHX&XgXZXkXfX=X*X*X",
"DXrXVXmX0XNXcXi.x X.w 9 { 8 # @ : o.{ { %.%.c.y.8 t q 4 v.Q.@XvX4XF G H O.*.O.m.pXnXmXtXMXBXtXMXSXnXnXSXbXnXDXNX&X=X'.=XfXkXkXxX",
"DXeXmXmXkXAXjXn [ ] 0 i B & 8 < F F.~.G.H.S.0.8 & 0 w y.Q.W.5X0X7Xr.w.Y.S O.>.+XtXuXmXtXnXBXyXnXVXpXnXBXiXbXBXNX$X,XkXFXLXFXGXvX",
"NXwXmXmXhXFXoXe ] P 9 B 8 8 p e.L.E.R.E.R.J.z , M H J.!.Q.D.aXwXwX+XZ.E.H [ ].zXtXuXMXtXMXbXyXVXBXpXVXLXuXiXDXSX'.,XCXAXGXkXhX,X",
"VXwXNXAXkXVXr.i U 0 T t w i F L.R.R.R.K.U.6XZ.J.Y.!.!.R.R.H.rX1X:X>XG.T.k. .+XbXtXbXNXtXMXBXyXMXBXyXVXDXuXbXBXmX$X,X=X&X&X&X=X=X",
"mXwXNXAXlX8Xz P 4 I e & T +.k.E.R.R.U.5XrXaX/.E.Q.E.!.!.Q.n.1. .p p D n.n.<.8XbXtXbXMXtXBXBXtXVXNXyXVXBXuXVXNXcX$X-XcXGXGXFXFXGX",
"NXzXGXcXZX[.r P 9 9 : 8  .S S.L.U.qXeXnX2XV.G M A K c.G.Q.b.S 1.{.|.d.#.G i.yXMXtXbXbXtXVXBXpXBXDXuXVXDXyXnXVXNX$XgXFXFXGXkXkX=X",
"zXzXVXcXCXi.Q y R & 0 p 8 Z H.6XwXcX2X#.r 1 F J K S B K R.x.U.FXhX<XZXzX<.i.iXMXtXVXbXtXDXKXtXBXDXpXBXKXuXVXDXNX-XgXfX*X*X&X=X=X",
"zXlXDXGXCX<.! i y 8 ! e 9 S aX8XvX{.f F v.n.V.V.V.V.V.j.H.n.b.d.2.m.).,X}.m.bXmXtXVXnXuXVXBXuXBXBXpXBXKXuXBXBXNX=X<XkXkXGXGXkXkX",
"cXlXDXAXjX#. .P 2 y p q c N.lXmXm.V n.G.m.d.>.<.m.b.Y.E.C.m.e.Z  .K &.} o.i.nXbXtXDXnXuXDXVXpXBXBXpXKXBXyXBXBXcX$X1XFXFXGXFXkXhX",
"zXlXFXGX,X#.Y 0 2 0 T 8 D @XcX.XV R.H.1.>...Z $.2.i.m.F.m.{.e.V o.%.&.X.Z 2.nXbXtXBXbXyXKXKX7XKXKXtXBXVXtXBXmXvX$X1XCXxXkXhX=X&X",
"cXlXFXGX}.+.T 0 & U R & p #XeXH D.Q.m.2.+.r f f B { y A `.OXu.G N #.O.+.A.A 8XMXtXBXbXtXKXKXtXKXKXtXnXKXyXBXDXcX;XhX=X&X=XfXfXgX",
"FXvXAXAX.X .0 5 & ] 8 q A I.C.A.!.z.N [ ,.D - b ..`.<. .`.-Xc.C.).&.+.c.W.G 1XnX8XnXiXiXMXMXiXHXKXtXBXBXyXBXKXcX*XlXcXAXCXAXAXZX",
"SXlXAXAX3XT 0 0 8 q & ] S S.Y.H.~.#Xm. .o.c z x (.hX5Xm.d.-XV.@XGX%XF.S.K.q..XVXtXnXiXiXKXKX8XBXnXpXBXBXyXBXBXzX%XvXAXFXFXAXkXhX",
"GXlXSXCX.X9 I q q e 8 o.S D.!.U.7XlXGX}.K &.a %.@XU.S.m.d.$X.XV.lX7XS.S.L.k.i.HX7XnXiXnXKXMX8XBXnXtXSXMXnXMXBXzX-XxXhXgX,X,X=X,X",
"mXlXJXCXoXy 9 9 q & w ..F e.l.P.~.6X7X8Xi.p +.O.y.F.P.S.m.$X=XV.>X7XS.S.S.A.1.VXpXnX8XiXHXMXiXKXMXyXKXMXyXBXKXzX,XhXgXkXxXcXcXGX",
"CXhXFXCX].9 q q i w 8 @.j e.w.e.E.J.N.N.4Xp.oXp.p.oXI.P.n.OX=X}.+X@XS.S.S.S.&.wXpXnXpXnXKXKXbXBXMXyXBXMXiXBXKXlX%XhXFXFXcXAXvXhX",
"mXjXDXCX|.P w T ] 8 t s s F H 0.W.F.oX XXX X X4Xp.p.p.F.P.{.+X~.^.U.n.V.n.P.q.XXiXKX8XiXKXKX8XBXnXnXKXKXyXBXKX1X%XcXJXDXAXDXcXlX",
"AXhXJXAX$XP w I { 8 @ S q.Z Z g.^.I.B.I.C.4X4X Xp.p.p.I.P.N.^.c.K b.<.i 1.n.c.{.iXMXpXiXSXnXyXSXnXbXKXKXyXnXDX3X;XcXlXhXfXfX,XfX",
"AXxXJXGX'.P 2 T o.: 8 @XA.< f H.K.b.A.K.D.F.9XXXp.p.p.p.S.n.~.O.:.2.c.0.G H M.rXpXMXpXnXBXnXiXSXnXbXKXKXbXVXVX{.;XkXhXfXfXxXZXcX",
"mXcXJXCX'.P 3 9 { @ B sXg.O F R.L.A.T.T.T.J.N.9Xp.p.p.4XF.b.V.C.kX6Xl.&.].#XrXbXpXBXyXnXMXnXnXSXnXnXKXBXyXSXSX;X-XSXJXHXBXLXJXFX",
"ZXZXJXCX).P w i { @ o.sXw.f F z.!.K.T.T.T.z.N.+X4Xp.p.4XB.h.h.c.>X5X0.2.PXaXtXSX8XMXpXnXMXnXpXKXbXiXSXKXbXBXDX1X<XNXcXxXcXcXcXCX",
"cXvXHXZX:.0 w T i @ <.sXc., V G U.H.L.D.D.A.4X9X4Xp.oX4XB.h.g.b.>X@XA.U.mXyXyXSXpXnX8XpXMXnXnXKXiXnXKXKXbXBXKXzX,XwX<X,XgXhXhXhX",
"cXhXJXhXX.4 8 T B @ 2.sXn.G p.! }.aXJ.A.l.b.4X+X4X4XM.4Xb.j.C.@X+X XI.c.8XtXbXSXpXnXpXpXKXnXbXKXpXbXBXMXbXVXBXzX1XFXDXAXGXmXDXFX",
"CXhXLX1XX.2 2 i t & }.sXg.a.4X1 O.CXb.b.I. X9X4XM.M.M.B.F.#XN.u.3.F Z O.KX7XbXBX8XKXyXyXMXyXyXKXnX8XbXMXyXNXDXlX1XHXSXSXFXNXAXGX",
"cXkXHX2Xx 0 5 i 8 8 ;X~.v.N S 1.M 6.r.6X9X9X9X4Xp.M.M.S.F.O.z ^ l v D ..tX7XMXNXtXMXyXnXMXyXnXKXnXbXSXMXyXNXSX8X<XuXZXlXxXhXkXvX",
"vXlXCX8X+.q 2 i & t >X^.v.f.f.s.w.5.m.cXN.6X9XXXN.u.I.L.D.V.d.V.u.e.y.2.VXaXnXVXtXMXiXnXMXtXtXMXbXbXBXBXyXNXSX1X1XwX<XgXhXhXkXkX",
"vXzXZX8X$.8 & t o t 0X^.h.B s.z.h z OXGXqXJ.I.C.I.x.P.L.L./.V.d.d.C.H 1XVXaXMXBXtXBXyXbXSXnXnXNXeXyXzXzX2XrXzX1XwXAXNXDXDXcXNXvX",
"bXvXFXeX#.& : t . i 0XW.g.1 W./.q.G %.m. XK.R.Y.L.L.L.L.L.L.x.n.V.c.&.yXbXpXBXMXpXBXnXyXyX7XtXbXzXbX1X>X|.-X1X,X1XbXNXAXNXcXcXlX",
"vXzXKXzX#.. e 8 * i @XJ.F j.E.D.S C F 3.f A.!.R.E.L.L.L.L.L.R.x.l.h.c.<XVX7XMXiXrXMX>X#X8X1X0XcXvXmX3X|.[.[.#X}.<X1X1XhXkXhX0XwX",
"nXzXJXAX+.o t = k t &.j.w.z.T.F w.g.g s C h./.!.R.R.L.L.L.L.R.R.D.l.c.2XnX#X2X3X}..X.X}.}.[.[.oXi.y.@.D Z f k  .`.vXAXAXSXDXBXBX",
"zXeXJXMXi 8 0 < n X F A.g.E.J w.dXG > S %.C.f.G.E.R.R.L.R.R.E.E.D.D.2.].oXi.m.i.i.y.y.D v z f < , = + + $ & % e o.0XLXDXJXJXJXFX",
"bXvXJXjX8 T w j F 1 J.A.D.J H qX.., &.M | G.v.d.V.J.L.R.x.L.R.L.D.b.p H F Z f s < , % $ # # + # + % % % % % : : o.0XzXzXNXVXVXiX",
"bX8XmX<X3 i : 4.F h.D.z.c.m.>XM @ K S 1 f.~.l.h.d.d.V.F.qXqXqX6Xm., o = = # # # $ % % % $ $ % + % $ % $ $ % % % o.:XkXcXzXbXuXVX",
"mXwX;X$X3 8 < Z.g.A.A.U.:X]., 1 M M 1 M d.Y.z.h.h.V.f.%.`.2.<.[ o # * % % % % % % % $ % % % $ % $ $ $ $ % % = $ o.<XzXLXJXJXDXDX",
"zX.X+.9 0 2 w.!.0.A.qX.X<., M M 1 M 1 %.C.R.J.l.h.v.h.o + O X + % > % % $ $ % # % % % # + + $ + $ + $ $ $ % % $  .;XcXDXDXJXJXHX",
"wX#.& 2 q t A.S.1.5Xi.m.{., 1 + M K B d.H.E.D.A.h.h.v.e > > * * * * % % $ $ $ $ $ $ $ $ $ $ $ $ $ $ % # $ % % $ p %XzXzXVXVXVXKX",
"$.A e : 9 F !.g.{.lX1X1X: > S K &.V ..&.z.L.D.x.Z.j.b.a % * * * % % % % $ % $ % % % $ % $ $ % % $ $ # # + + $ # R |.1XBXuXiXpXpX",
"e R 8 y 9 j.E.G <XzX@Xc.g.l.D.R.g.3.4.9.e.S.K.S.Z.k.F.&.# , % % % * % % % % $ $ $ % % % + $ + % $ % + $ e e e 6 { 2.f.:XDXLXHXHX",
"P R { U t D.x.m.7XG.D.Y.Q.Q.x.g.g.g.z.Y.E.L.Y.L.H.A.n.+X, * = * * % * * * % $ % % % % % + $ $ $ + + e r e 6 * * 5 e N %.@XDXDXLX",
"P 2 3 4 K R.D.D.T.Y.A.j.J V V J x.!.Q.L.T.T.R.T.K.J.U.zX<.X $ o o . O o X o o o @ # # % % % + $ % Y y @ . . . . . . # B d.rXuXHX",
"4 4 4 2 g.R.Y.D.l.F V > < g.Y.E.E.R.T.T.T.T.K.T.K.G.8XlXlXO.l 5.4.3.h g l l d f m - = + + # + $ R y X . o . . o o o o > %.:XrXrX",
"5 3 @ 3 A.K.D.D.z.z.0.%.y.w.R.E.Q.R.K.L.R.R.T.W.K.6XzXwXvXcX.X+.k l n c l v b b 3.b h v v g < r y . . . O O O . . . o o e d.SXHX",
"P P 4 f D.D.D.L.Q.l...+X4.b v.Y.Q.E.Y.K.R.R.E.W.J.aXvX0XlXvXcX<X(.W ~ ~ ~ ~ ~ ^ Q e O - n r.7.z o . . . . . O . + . . o o ..eXJX",
";XhX).Z K.D.D.R.J.C 1X Xj v D c.n.Y.K.K.Y.Y.K.D.6XeX0XkXhX1X1XzXJXfX(._ ' ' ` Y 6 < b r.-.r.D =   . . . . . . . . . + + . t >XJX",
"2.<.R C v.g.j.F.C m.FXu.k @.v =.y.b.J.H.~.~.qXqXpXlXlXwXjXlXlX0XjXzX<X`.*.Y 6 < v r.=.-.7.d u o . o O . . . . O . . O . . : OXwX",
"  X + + . . + % p xX1X4.7 ' 3.~ ' ` y.c.n.C.6X7X0X:X<X:X:X:X#XOX|.d.d.<.) u =.a.a.` r.9.s Q Y X . . . O . . . . . . . O o # 1.rX",
"O + . O o o o + # m.2Xb x ' 7.r ) ' ( / r.$.&.&.1.1.2.2.>.>.:.:.:.` ) r.v Q ;.( ' r.4.m ! =.e X o . . O O O O O . . o o o o %.0X",
"O O O O o o O o X O.oXg ~ ;.r.n c t.9.3.n r ~ ' ` ;.Q n r./ ` ) ` ) / 8.6 ) ( / t.h ; Q ;.*.& X . . .   . O   . . . . o o O N :X",
". O O O   O O o X p y.k Q ^ ;.7.s s - 6 ^ z u ' ` ` ^ - j 9.t.` ) ) t.d Y ' / 8.d 3 ) ' ( u O . . . . . . . . . . . o O o O N :X",
"+       . . . .   r 7.u c / ( r.d Y ) _ ' 7.= ( ` ` ' ' u = g 7.-.r.9.6 ( r.9.m 5 ` ' ' Y d ; X . . . . . . . . . . . . o o t }.",
"O       . . . . X c b 6 l -.*.-.7.k ' ( / 8.- Y ' ` ~ Y u 7 - m b t.s ^ t.5.- u ;.' ( ) 3 3.k X . . . . . . . . . . O O o o t OX",
"O O .   . . . . O D l 5 v r._ ` r.k ~ ' ' t.d 5 Q 7 k g 3.4.a.~ = j b 7.g 6 ~ ( Y u r - l a.a X . . . . . . . . . . O O o o e d.",
"    . . . . .   + F k 7 3.-.*.( r.6.Y ' ) Y l d n 4.r.r.' ' ' ' ' u c r 5 Q u - d v D r.<.,.B . . . . . . . . . . . O O o o e d.",
"    .   X . . X = 6.6 7 4./ ' ;.' 8.k 7 - g h n Q Y u Y Y Y Y Y Y u 6 f n h 3.r.$.! y P 0 8 [ $ . . .     . . . . O O . . . 3 d.",
"  .   . . .   X k b 6 k 8.` _ $.~ r.n R @.8.4.b h h g d d m m s d j 6.t.a.$. .8 2 4 L L E L 5 3 . . . . . . . . . . . . . o * <.",
". .       . . X v z R k 8.` -.j Y ;.P } (.(.(.(.:.+.^ 6.$.&.<.<.a.<.#.{ i 2 4 L E E E E E E L 3 #   .   . .   . . . . . . o # %.",
". . .         o 6.k ~ l 8.` 8.s ~ W L P ,.| ,.{ 2 4 L L 4 B ,.,._.} w 2 L L E E E E E E E E E 3 6 X . . . . .     . . . o o @  ."
};
