/* XPM */
static char *picasso[] = {
/* columns rows colors chars-per-pixel */
"70 70 250 2 ",
"   c #0B0E07",
".  c #0C0E09",
"X  c #060B06",
"o  c #0D110B",
"O  c #0A1007",
"+  c #15150D",
"@  c #0B1617",
"#  c #141612",
"$  c #161812",
"%  c #191A14",
"&  c #121C1B",
"*  c #1C1D19",
"=  c #1A1516",
"-  c #251A16",
";  c #2F1910",
":  c #19221C",
">  c #25261A",
",  c #392718",
"<  c #303318",
"1  c #0B1A29",
"2  c #141B24",
"3  c #0A1A35",
"4  c #0E1B31",
"5  c #241B28",
"6  c #2C1C2D",
"7  c #172629",
"8  c #172837",
"9  c #1C3437",
"0  c #0D222F",
"q  c #272828",
"w  c #382527",
"e  c #283429",
"r  c #363728",
"t  c #272A38",
"y  c #362738",
"u  c #273737",
"i  c #363A38",
"p  c #461D10",
"a  c #4A2619",
"s  c #55291A",
"d  c #4B361A",
"f  c #652C19",
"g  c #74341C",
"h  c #452727",
"j  c #473927",
"k  c #563727",
"l  c #463A36",
"z  c #54302F",
"x  c #673728",
"c  c #783927",
"v  c #67322A",
"b  c #384339",
"n  c #36422D",
"m  c #53421B",
"M  c #454528",
"N  c #484A36",
"B  c #554839",
"V  c #525333",
"C  c #675727",
"Z  c #704D30",
"A  c #5A633C",
"S  c #756832",
"D  c #6F5D1D",
"F  c #071A49",
"G  c #182A47",
"H  c #1C3545",
"J  c #163054",
"K  c #3A2846",
"L  c #283847",
"P  c #393945",
"I  c #2A324D",
"U  c #0C2566",
"Y  c #3A376E",
"T  c #483946",
"R  c #4A3153",
"E  c #743E55",
"W  c #5B3B69",
"Q  c #533C6F",
"!  c #633C6B",
"~  c #643E71",
"^  c #364848",
"/  c #374759",
"(  c #314D50",
")  c #3E675B",
"_  c #394C6C",
"`  c #2F585E",
"'  c #454948",
"]  c #4A564A",
"[  c #475655",
"{  c #585856",
"}  c #534A4A",
"|  c #78594A",
" . c #724F53",
".. c #536954",
"X. c #756A44",
"o. c #6E6D51",
"O. c #574D6F",
"+. c #674369",
"@. c #684374",
"#. c #734D69",
"$. c #5A6564",
"%. c #53726E",
"&. c #686968",
"*. c #65796A",
"=. c #7A7975",
"-. c #70706E",
";. c #8B381D",
":. c #873D27",
">. c #933C25",
",. c #974429",
"<. c #8A4536",
"1. c #954837",
"2. c #8B4F2D",
"3. c #AB4A32",
"4. c #897133",
"5. c #AC7435",
"6. c #95494A",
"7. c #884855",
"8. c #914D49",
"9. c #A54D46",
"0. c #8B7150",
"q. c #AA724F",
"w. c #8A746D",
"e. c #B27271",
"r. c #895063",
"t. c #769976",
"y. c #708D71",
"u. c #7A8E5E",
"i. c #7A8039",
"p. c #998C3A",
"a. c #AA963C",
"s. c #B6973C",
"d. c #AC8A3B",
"f. c #C8A43D",
"g. c #E8A73F",
"h. c #96904D",
"j. c #AA9846",
"k. c #B99A43",
"l. c #AE8F51",
"z. c #B6A64B",
"x. c #919071",
"c. c #B78879",
"v. c #BC9C7A",
"b. c #B08F6C",
"n. c #93A36C",
"m. c #B2AB69",
"M. c #C49A47",
"N. c #C89C51",
"B. c #C8A748",
"V. c #D8AA46",
"C. c #D9B648",
"Z. c #C9A754",
"A. c #CCB558",
"S. c #D8BA55",
"D. c #D1AA4F",
"F. c #E3BE4A",
"G. c #E7B947",
"H. c #E3B74E",
"J. c #C49674",
"K. c #CEB36E",
"L. c #DDC14C",
"P. c #EAC34B",
"I. c #E9C349",
"U. c #F3CB4C",
"Y. c #F2C748",
"T. c #E7C553",
"R. c #F4CD52",
"E. c #F8D455",
"W. c #FAD14D",
"Q. c #E5C86C",
"!. c #DBC36D",
"~. c #396087",
"^. c #49678C",
"/. c #72778B",
"(. c #4B699C",
"). c #8D7E89",
"_. c #77928B",
"`. c #79939A",
"'. c #958886",
"]. c #95938B",
"[. c #999A96",
"{. c #89928E",
"}. c #BA9587",
"|. c #B2938D",
" X c #96AA98",
".X c #B8A998",
"XX c #B1A891",
"oX c #8A95A7",
"OX c #979BA8",
"+X c #8B97B4",
"@X c #909AB4",
"#X c #99A1AA",
"$X c #9AA3B8",
"%X c #8EA0A8",
"&X c #A8A8A7",
"*X c #ABB9A8",
"=X c #B7B5A8",
"-X c #A7ABB8",
";X c #AAB2BC",
":X c #B9B9B8",
">X c #B4ADAD",
",X c #A59FA3",
"<X c #C3998C",
"1X c #C4A498",
"2X c #C7BA9A",
"3X c #C8B68A",
"4X c #C6A8A4",
"5X c #C6B9AA",
"6X c #C5BDB5",
"7X c #D1BEAA",
"8X c #BDC2B9",
"9X c #D8C892",
"0X c #C9C1AC",
"qX c #D4C5AB",
"wX c #C4C3BC",
"eX c #CBC5BC",
"rX c #C9C5B8",
"tX c #D4C4B4",
"yX c #D4C6BA",
"uX c #D5C9BC",
"iX c #D7CBBB",
"pX c #DBD2B0",
"aX c #E4D8A8",
"sX c #ACB3C2",
"dX c #BBBDC3",
"fX c #B6B9C4",
"gX c #A8AEC1",
"hX c #BDC1C7",
"jX c #C3C3C3",
"kX c #CCCBC4",
"lX c #C3C5CB",
"zX c #CCCCCC",
"xX c #C7C8C8",
"cX c #D5CCC3",
"vX c #D9CEC4",
"bX c #D4CECA",
"nX c #D9CFC9",
"mX c #D4D2CC",
"MX c #DBD4CD",
"NX c #D9D5C9",
"BX c #CCCED1",
"VX c #D4D4D2",
"CX c #DBD6D1",
"ZX c #DDDAD3",
"AX c #D9DAD8",
"SX c #CED0CE",
"DX c #E1DCD4",
"FX c #E2DDD8",
"GX c #E0D7CD",
"HX c #E5E2DA",
/* pixels */
"NXcXkXHXkXwXDXmXkXZXNXDXNX6Xw.} } } ^ 0 G G G G 4 q r T ' l.j.u u ' ^ ] ( [ |.xXbXcXeXFXiXtXMXcXyXCXvXvXCXCXvXcXbX6XkXmXCX:X/.gXAXBXhXgX$X+X",
"ZXbXeXHXSXkXDXmXeXZXDXvX'.} l ' I / G 3 8 G 4 0 8 I 8 q q 9 t $. X{.y.y.*.O.' ,XcXcX6XDXtX2XCXcXyXMXvXuXGXMXcXcXnX6XcXCXDXfX/.+X+X+X+XgXhXBX",
"ZXmXkXZXkXkXHXmXkXDX0Xr.l } G H 3 1 0 J G J J G 8 7 t b e @ y._.^ e < M A i.] -.e.=XyXDXtX7XCXcXyXnXvXvXGXCXcXvXnXcXkXVXFXsX`.+XhXAXHXHXHXAX",
"ZXNXeXZXkXkXZXNXwXrXx.T B 8 8 1 8 H H H G 9 7 9 8 7 1 0 n e y.n : < e b N V S { w..XyXZXtX7XCXvXyXnXvXcXCXCXyXnXMXcXcXbXFXgX/.gXHXAXAXhXsXgX",
"MXNXkXHXkXrXAXkX8X-X} i 2 L ` G 8 0 7 7 : @ 7 9 u 7 9 n A n H n B V V 7 O.^.u V [ w.4XNXtXvXNXyXyXMXcXyXMXnXyXvXMXcXyXCXHX-X/.gX$X+X+X+X$XfX",
"ZXkXkXZXeXwXVXxXfX/./ 9 H ` 0 1 J H 9 0 @ : ( L ) ` 9 S o.8 H o.K.q.2.A 7 $.`.u ] i |.ZXtXcXCXiXyXbXcXcXnXMXcXnXCXcXcXCXFXsXoXgXsXBXAXHXHXHX",
"DXeXeXmXwXkXmXSXOXr.L J L @ 4 J 9 7 & & & 9 ^ b e e i.S e b G S Q.wXq.3.A   ) /.$.i -.DXtXyXmXiXcXMXcXcXCXCX7XnXMXvXcXMXFX-X+XlXAXHXAXBXfX$X",
"ZXrXkXmXwXkXSXxX'.z L ( 1 H J : @ & 7 & & 7 9 9 V h.u.O ( 9 G h.Q.6X6Xq.C n < $.&.$.} 5XtXnXbXtXcXMXcX7XCXnXcXMXMXvXcXDXFX-X@XsX$X@X+X`.+X$X",
"ZXeXbXbXwXjXAX:X .' ` 7 u / 7 & & + ^ *.y.%.-.0.l.0.7 7 b 3 V T.T.5XhX4X1.m B.V $.$.$.XXtXvXmXtXcXCXvXyXMXNXiXNXGXuXvXCXZX&X$X@X$XhXhXAXBXhX",
"ZXeXkXmXjXxXVXx.h ( H 8 u u : 7 w c d.L.T.T.H.V.S 7 & 8 1 ] L.U.T.5X8XwXe.Z T.4.[ { w.5XqXcXMXtXvXnXuXuXMXvXtXNXMXuXcXNXZX#X@XhXAXHXAXAXBXBX",
"NXeXkXCXjXlXvX7.u J 9 u b 7 7 u 2.V.Y.Y.Y.Y.I.A.B a M S z.R.U.U.S.rXwXwX5Xk.H.B.i { *XcXqXcXbXtXcXcXuXuXCXvXiXMXDXiXuXNXZX$XoXhXVXBXhXhXsXgX",
"NXwXbXCXjXzX4Xz H G 9 L u : u j M.P.I.Y.I.C.K.3XZ.V.L.W.W.P.Y.I.K.rX=X*X*XK.L.H.B -.6XbXtXmXnXtXvXCXcXuXCXvXiXMXMXiXvXCXCXOX%X;X+X@X+X@X$X$X",
"mXwXkXZXjXBXe.q G 8 8 q @ n ( S P.Y.P.I.K.5X8X9XS.W.R.W.Y.W.U.L.m.*.' i i } l.T.X.[.yXvXtXmXcXtXnXCXuXuXCXvXyXZXNXuXMXbXMXOXoXhXBXBXVXAXSXVX",
"mXeXVXmXlX:X .8 0 H 8 & 7 ( } 5.Y.F.K.2XrXkX0XXX0.A ..X.h.A.U.T.h.M { =.y.-.{ X.X.|.uXnXqXcXcXqXnXMXuXcXZXvXuXZXMXtXnXvXMX$XOXmXHXAXAXVXlXgX",
"mXjXVXzXlX6X} I t I 0 7 i : l s.S.2XwXzX0Xw.n < < < M < e n z.T.f.K.BXBXhXBXlXw.N =XuXnXtXnXcXtXMXDXuXvXDXvXiXZXGXtXMXZXZX$X-XdXsX+X@X+X+X+X",
"kX8XCXmXBX.X} P P t @ ' 7 9 > v.rX8XkXXXj d S a.A.m.m.n.x...a.T.M.v.#X_.].{.sXxX&.6XyXbXtXMXnXtXMXDXiXuXDXvXiXZXMXiXMXNXNX-X-X-XgXsXhXlXhXhX",
"bXhXCXAXBX[.T P 9 7 G } 7 u Z cX6XzX].r 4.S.m.n.*.*.o.l.L.L.T.m.h.4.B } 0.*.O.{.{ 5XcXcXyXGXvXyXMXMXuXvXGXvXvXGXGX6XCXnXCXOX-XBXAXZXmXSXhXfX",
"kXjXDXSXBXw.} I 8 1 G q 9 k J.wXzX'.d D.R.u.$.&.o.o.).).b.L.L.{.l.5.V ] b o.[ L l 4XvXcXyXGXvXyXMXZXiXvXDXnX7XDXGXiXCXbXnXoX&XzXVXAXVXmXhX;X",
"bX8XZXVXlX&.} G 1 2 G / & j x.bX=XC V.R.x.-.&.r j k T [ &.-.h.`.].5.N ] ..{ / 0.C ].vXcX7XDXvX7XMXMXtXiXCXnXyXGXnX7XGXnXNX#X-XlXgX$X$X$X+X@X",
"VXhXZXVXfX&.T 8 7 1 I L & u x.iX0.B.E.z.-.&.i j a x N %.( @ ..`.].d.4.b o.o.^ S.S -.nXnX7XCXvXtXMXDXtXvXFXnX7XCXnXiXCXCXDX$X;XsXgXgXfXlXhXlX",
"DXkXVXVXjX&.t 8 7 & ( 1 9 N b.K.k.I.Y.0.q ( %.Z ; c l *.oX&.y._.#Xh.1X#X&.} q.P.z.&.MXeX7XVXcXyXGXMXyXnXDXiX7XCXMXyXCXMXMXoX:XBXAXbXVXmXzXlX",
"CXlXBXVXdX#.0 G 7 7 H & ^ V s.Y.C.S.3X5X'.' ] i k l %.sXqXm.t._.#Xx.XXSX>XK.C.V.G.X.kXyX7XMXuXvXDXCXtXcXGXuXvXCXMXyXnXnXNX#X;XVXAXAXVXBXfXgX",
"bXlXCXSXjX{ 8 H 9 9 7 2 ) B s.E.T.3XwXjXzX{.] i.i ] [.3XV.N.t.t.$X[.n.wX=XD.V.V.H.S >XnX7XnXtXvXCXMXtXvXMX7XcXCXnXyXnXCXbX&XdXlXgX$X$X-X-XgX",
"BXhXAXVX6X{ 0 H 9 L @ 7 [ c 4.M.B.T.K.4X5X6Xw.i } } 0.N.D.g.Z._.OX$Xn.=X6XD.V.D.H.p.'.CX7XCX7XuXZXCXtXGXCXcXvXCXMXyXCXCXbX$X:X;XfXlXBXSXzXBX",
"bXdXAXVX>X} 3 9 9 9 & 7 | :.Z 5.2.C.I.Z.v.}.c.e.|.e.e.|.c.D.g.b.oX$X[..X:XZ.V.V.V.a.w.CXtXMXyXuXCXGXiXnXnXcXvXGXMXuXMXGXnXOX:XbXHXVXBXVXjXdX",
"bXdXAXVX;X[ 4 9 L ( & 9 k a C 4.Z B.T.b.}.}.}.}.}.<Xe.e.e.J.H.N.[..XK.!.K.Z.z.Z.V.B.o.yXtXMX7XuXFXFX7XnXMXyXvXGXMXyXMXGXkXoXfXVXZXVXVXZXlXdX",
"bXdXAXVX;X_ 1 7 ^ ( & 7 , S C Z C S.S.}.v.v.J.XX<X<Xe.e.e.e.N.g.XX!.Z.h.Z.x.( $.l.D.X.>XtXNXtXvXGXMXiXCXCX6XnXGXMXtXnXDX>X[.jXVXAXlXfXhXdXsX",
"AXhXAXAXhX_ 4 7 ( ( 7 @ x.S.x < S E.Z.l.B.S.D.J.<X<X).e.e.e.J.V.m.Q.r L { x.V S X.l.x.6XiXNXiXyXMXMX7XnXGXvXnXDXGXuXMXCX XOXhX;X$X@X$XsXfXfX",
"SXlXFXAXgX_ 4 0 ^ ( @ e 0XA.< - M.U.M.f.P.P.C.D.<X1X<Xe.e.e.J.N.j.m.x.:XXXk.j.X.o.'.eXvX7XnX7XvXMXnX7XGXMXuXnXDXMXyXMXZX&X{.lXCXAXxXCXHXAXVX",
"BXlXFXVX$X_ 0 0 u ( @ / pXj.+ Z s.W.F.F.P.P.I.C.J.1X<Xe.e.c.<XJ.h.p.m.>X.Xf.M -XyX7XvXvXyXMXvXnXnXnX6XGXGXyXnXGXGXcXMXDX:X,XSXAXFXVXCXDXHXZX",
"bXlXDXAXOX/ 3 8 u u @ { pXj., m 2.H.T.F.P.I.S.f.J.1X|.e.e.e.<XN.p.h.j.*X4Xs.0.AXvX7XnXCXyXMXvXvXnXnXiXGXMXyXnXCXMXcXMXZXxX>XxXdXfXsXdXfXhXdX",
"zXlXCXVX).I 3 8 ^ 9 @ *.aXZ.< j B 0.9XC.G.C.B.B.<X1X<X).c.<X<Xe.p.a.m.8X=XA.A.=XnX7XnXGX7XMX7X7XnXnXiXCXMXtXGXGXGXuXMXMXbX-XjX6XdXfXdXlXBXxX",
"zXdXZXBX-.8 1 1 ^ u @ {.aXz.X.c.w.i zX2XB.B.k.k.<X.X<Xc.c.|.v.z.z.XX0X}.b.J.4.[.vX7XMXMXqXnX7XvXCXnX7XGXMXtXnXbXMXyXNXNXVX>XAXFXAXCXSXkXAXCX",
"zXdXDXBX-.8 7 0 b 7 & #XpXs.} 1X .> {.:Xj.v.<X<X1X1Xc.c.c.b.B.m.|.x.8.g x m i 6XtX7XMXnX7XGXyX7XCXcX7XDXMXyXyXcXnXyXmXNXzX-XmXCXCXAXAXmXVXzX",
"zXdXDXbX#.q 7 0 i : q *XK.B.n n ...., ,.8.3X4X4X4X1Xc.c.c.b.g.j.B z T j x Z N [.iXtXCXvXyXCXyXcXnXcX6XGXNXyXnXCXnXyXmXMXkX;XeXSXhXhXlXfXlXjX",
"zXlXbXCXr.u 0 0 e @ u :X!.B.y.y.o.S 2.:..X6Xv.1X4X<X<Xb.l.C.G.f.n.t.b.q.5.q.o.6XtXyXcXvX7XCXyXvXnXcX7XnXmXuXvXNXnXyXCXMXjX>XwX:X;XsXsXfXdXjX",
"kXzXdXVXe.P 1 7 e @ b wXQ.B.V V f.p.f B 8XhXK.Z.<XJ.b.M.g.G.g.G.z.t.t.u.m.4.].DXtXiXMXnXtXCXtXuXnXnXcXMXcXyXcXkXeX5XeXmX:X;XNXVXmXZXmXzXSXxX",
"zX6XAXCXw.i @ e : o ^ wXT.k.$ a.E.a.D o.t.&X=XI.G.H.C.G.G.G.I.G.G.A.n.t.n.C 6XiXtXiXmXnXyXCXcXnXnX6X7XbX6XkXrX:X=X].&X:X-X>XkXZXCXZXzXmXSXkX",
"bXwXZXVX'.q O u * * i 5XS.4.C E.I.B.V V m 1.Z S.U.P.P.G.g.G.G.G.G.G.f.z.h.X..XvXeXuXNXiXyXMXtX.X7X7X6XbXbXBXBXOX#XoXOX>X,X-X8X8XfXhXhX:X8XwX",
"bXkXZXAX'.* @ u - - ^ x.a.S d.R.C.m C D >.s j p.U.P.P.Y.Y.G.G.G.G.I.L.L.s.h.|.GXpX.X:X=X>X>X&X[.-X,X&X>X4X.X|.w.0.| | Z &.{.:XxXjXzXSXzXSXmX",
"cXjXZXHX_.X 8 2 a j & d B.4.B.L.C S Q.Z + r ..h.z.L.E.U.L.L.G.I.I.Y.U.I.C.h.{.5X|.].,X).'.'.c.w.0.X.0.| Z k , , - % > * q ^  XHXZXDXDXDXZXZX",
"cXwXZXHX&.@ / @ c Z X h.C.a.U.D 4.aXu.$ A V ..A.h.n.A.L.I.Y.I.I.I.Y.P.C.C.o.-.0.0.0.| Z Z C j , , - + $ # # $ % % * % % * ^ [.AXmXZXDXHXZXZX",
"kXrXmXAX[ 7 ^ @ ,.s S S.f.G.D o.9X..  X.A e %.L.a.u.t.n.C.L.L.L.C.C.S.S.0.: j k d , - = + % & # # = $ + $ $ % % % $ % * % ^  XdX8XxXkXuXiXpX",
"bXwXjXzX' 7 7 , 3.S B.f.f.h.[.=Xn O M A < n y.L.f.a.t.t.t.u.3X*X0X0X.Xo.+ + * $ # $ % % % % % * $ # + $ $ $ % + $ % % % % i %XjXSXVXmXNXNXNX",
"NXuX[.OXI 7 2 2.V.p.V.B.K.*X{.: n n n e n n n.S.V.a.a.h.n.A { &.{ ^ >   % * = % $ $ $ = % % $ = # + % % % $ $ $ # $ % % % i oX:XVXHXDXHXZXDX",
"jX&X{ t 1 8 : S.C.S A.2X[.&.< < M < < N < y.m.I.V.s.p.a.j.m X       + > * % $ $ $ $ $ $ % % $ $ % # % + + % + % $ % % * % t {.wXAXFXZXZXZXHX",
"wX-.& 2 8 9 C R.a.x.2X=.y.&Xn < $ < A n ] t.C.U.C.B.a.p.j.A @ > * - : * * % % $ $ $ $ $ % $ % $ % % + % $ # % + # % % % $ q /.:XeXkXNXNXDXDX",
"0.B q & 9 7 s.W.S >X=X>XbXi O n V A X.n o.X.C.I.C.V.B.a.a.h.# - % % % % % % * $ $ $ $ = $ % $ $ # # $ % % $ + % $ + + + # > /.&XcXNXrXpXrXpX",
"- I q & L M T.C.A kXzXrXx.S p.s.C.z.2.;.;.3.5.g.I.f.V.f.a.m.q * * % & * * % $ = % % % % % % $ $ % # % % # $ $ $ # * q q * P /.*. XeXZXHXDXDX",
"I I _ / H S R.a.x.rXm.Z.g.I.P.U.I.s.p.2.s.I.L.I.I.C.f.M.s.3Xo.o > - % * * - = = % + % % % = $ * + % $ + # = + * q t t q - q t b ) x.NXNXZXHX",
"3 1 7 8 7 a.Y.s.K.S.I.F.L.f.a.C m 4.B.T.Y.I.I.I.P.P.Y.C.z.5X&X> & # o o o # # # # # # # % % & = + % % + = $ t y 2 + . . . . o # e ..*XkXNXHX",
"3 3 1 F n C.I.L.F.V.p.D m ; < 4.B.U.P.I.I.Y.I.I.F.P.P.V.K.wXkX=.= , s a a ; ; ; - = = + o . . . + # $ % * P I . o o . . o o o o @ n x.8XrXiX",
"4 4 4 1 C H.I.g.f.4.4.D <  .5.E.W.I.I.I.I.P.I.P.U.T.I.S.0XjXhXzX].7.:.,.>.>.>.:.:.:.,.:.:.g f s , ; = . K L     . . . . . o o o + & ] *XNXiX",
"G 1 1 @ p.F.L.L.Y.G.T.S u.0.f j.I.W.U.I.G.F.P.I.U.P.G.K.eXwXjXlXbX:XO.t y K K 6 w h h z s z h a v :.c v y X . o . . . . . . . o O # e x.NXNX",
"I / _ > k.C.V.C.C.R.S o.6X,.c 4.z.L.U.Y.I.F.I.I.P.P.C.2XkX8XdXjXhXxXVX$X^.Y W ~ W W @.Q R 2 = s c  .6.Z +   o . + . . . . o o o + o + ..SXZX",
"wXVXOXr D.F.I.g.P.p.N mX}.v x v X.j.z.S.I.I.T.T.S.S.K.xXjX8X8XdX8X:XwXZXBX+XY Q ! W T 2 = f 1.7.#.6.v q . o o . . . . . . . o o O O O b 8XZX",
"{ ' 8 > X.S 4.a.h., *XNXq.a R <.R r.0.j.z.C.!.9X9X9XqXkXjXwXjXxXhXwXwX8X8X8X X^.I 6 6 v <.r.! E 3.f y 7   . + . . . o       o . O o O e [.wX",
"  X # $ O X X # o { mX=X8., W 8.h W ~ +.0.h.j.m.m..X8X*X*X*X X#X X X{.t.t.*.&.&.T R #.r.#.W 6.3.a y R . . . . . . .   . . o o . o o o % y.eX",
"o o o . o o o # # $ ]..X:.6 ^.6.g K ~ W W ! r.| o.w.&.-.*.-.&.$.&.#.$.@.+.W E <.w W ~ ~ ! 9.3.p K @.l X     . . .       . . . o o o o $ $.8X",
"o   O O O o o o o o &.|.f R @.E 1.6 7.9.3.:.c 6 R @.W ! ! T 6.6.! W W W W +.3.a y ~ ~ E 9.c + K @.@.q   . . . .   .       . . . o o o o ..8X",
"o . .     o O o . . ' q.h R R ! 9.s s f p 5 v h y @.! ! ! w s ,.3.7.W W W 8.1.- W ~ E 3.s = R ~ @.R + X . . . . . . . . . . . .   o o . ' 8X",
"o .   .   . . . o X w 6.h K v ~ #.,.= K R W #.<.= W ! W W ! K 6 s <.6.E +.3.a P ! 6.3.s = W ~ ~ O., , X . . . . . . . . . o . . o o o o b  X",
". O     . . . . o X l Z 6 h 7.Q ~ 6.s W ~ ! E 3.; K ~ ! ! ! R y @ - v 7.9.:.5 +.3.>.; 6 W ~ Q ~ K f c X . . . . . . . . . . . . O O o O n  X",
"o .     . . . . o o Z v 6 s 6.Q ~ 7.c y ~ W ! 9.f 5 ~ R K 6 p f g E h ; 9.c v 3.f 5 R @.~ R R 6 = v Z . . . . . . . . . . . . o O o o O i _.",
"O O       . . . o + Z s t f 7.W W +.1.h R ~ ~ 7.z = y a g >.6.6.E ! ~ K ; c c w 5 W R 6 5 ; p k | -.[ o   . . o . . . . . .   .     o . i {.",
"    . .     . . X - 1.w 5 :.r.Q +.Q 6.c K ! K 5 v g :.7.E ~ ! Q ~ ! ! ~ R 6 5 6 K h p v Z 8.7. .[ ^ ) %   . . . . . . . . .   X     o . q t.",
"    .     . . . X h Z 5 6 >.7.~ @.@.#.3.w = p ,.;.f h 5 5 5 5 5 5 5 5 2 2 h v >.>.1.6. .T 8 3 3 F 1 t u . X X . . . . . . . . . . .   + 5 y.",
"O . . .       .   x f 5 w ,.E ~  .z R 6.l [ #.8.<.<.>.:.;.;.c f f v v x :.1.6.o.$.^ 0 1 3 F U U U U F 2 & . . . . . . X . . . . . . . . & *.",
". . . . . . X . + <.h K h 3.E ! 1.; Q Q 3 ~.(.~.^.^.^.T R T E  .&.$.&./.-...) 9 1 1 F F U U U U U U U 4 2 . X   . . . .   .     . O O o # $.",
". . . . . . . X ; >.w Q a 3.! 6.g y Q U F G %.) ) ) 7 1 F F F 0 ( ) %.(.~.0 1 3 U U U U U U U U U U U 3 t &   . . . . . .       . O o O # ] "
};
